%TF.GenerationSoftware,Novarm,DipTrace,3.3.1.3*%
%TF.CreationDate,2019-07-25T18:01:05+00:00*%
%FSLAX35Y35*%
%MOMM*%
%TF.FileFunction,Copper,L2,Bot*%
%TF.Part,Single*%
%TA.AperFunction,Conductor*%
%ADD13C,0.4*%
%ADD14C,0.22*%
%TA.AperFunction,CopperBalancing*%
%ADD15C,0.635*%
%ADD16C,0.33*%
%TA.AperFunction,ComponentPad*%
%ADD17O,3.0X1.5*%
%ADD21O,1.5X3.0*%
%ADD22R,2.0X2.0*%
%ADD26C,2.0*%
%ADD27R,2.5X2.5*%
%ADD31C,2.5*%
%ADD32C,1.524*%
%ADD36R,1.7X1.7*%
%ADD38C,1.7*%
%ADD39O,5.08X2.54*%
%ADD43R,1.3X1.5*%
G75*
G01*
%LPD*%
X5191000Y3921000D2*
D13*
X5543999Y4273999D1*
Y5555101D1*
X5489000Y5610100D1*
X5191000D1*
X4768001D1*
X4713000Y5665101D1*
Y6913991D1*
X4403991Y7223000D1*
X4302000D1*
Y3921000D2*
D14*
X4496010D1*
X5004010Y4429000D1*
X5191000D1*
X4496010Y3921000D2*
Y4175000D1*
X4302000D1*
X3667000Y4429000D2*
X3794000D1*
X4048000Y4175000D1*
X4302000D1*
X2778000Y6969000D2*
X1889000D1*
X1635000Y6715000D1*
X2778000Y6969000D2*
X3159000D1*
X3477000Y6651000D1*
Y4429000D1*
X2778000Y6461000D2*
X1861649D1*
X1635000D1*
X2778000Y6207000D2*
X2404239D1*
X1635000D1*
X2778000Y5953000D2*
X1950130D1*
X1635000D1*
X2778000Y5699000D2*
X1635000D1*
X2778000Y5445000D2*
X1635000D1*
X5445000Y6969000D2*
D13*
X5489000Y6925000D1*
Y6080000D1*
X5191000D1*
X2143000Y1381000D2*
D14*
X1652000Y1872000D1*
Y2524000D1*
Y2679011D1*
X2390980Y3417991D1*
X3485001D1*
X3540000Y3472990D1*
Y3921000D1*
X1508000Y2524000D2*
X1514640Y2579001D1*
Y2524000D1*
X1652000D1*
X3794000Y1381000D2*
X3558979Y1616021D1*
Y2524000D1*
Y3120118D1*
X3794000Y3355139D1*
Y3921000D1*
X3159000Y2524000D2*
X3204810D1*
X3259811Y2468999D1*
X3159000Y2524000D2*
X3558979D1*
X4810000D2*
X5184657Y2149343D1*
Y1641343D1*
X5445000Y1381000D1*
X4810000Y2524000D2*
Y3362990D1*
X4754999Y3417991D1*
X4102999D1*
X4048000Y3472990D1*
Y3921000D1*
X1551763Y7443083D2*
D15*
X5948242D1*
X1578013Y7379917D2*
X2609935D1*
X2946112D2*
X4133893D1*
X4470070D2*
X5921992D1*
X1588130Y7316750D2*
X2543854D1*
X3012192D2*
X4067813D1*
X4536151D2*
X5911875D1*
X1583846Y7253583D2*
X2519974D1*
X3035981D2*
X4044024D1*
X4560031D2*
X5916068D1*
X1564523Y7190417D2*
X2520339D1*
X3035617D2*
X4044388D1*
X4618729D2*
X4871081D1*
X5002909D2*
X5209323D1*
X5680669D2*
X5935482D1*
X1526151Y7127250D2*
X2545039D1*
X3010916D2*
X4069089D1*
X4681893D2*
X4764714D1*
X5109276D2*
X5209323D1*
X5680669D2*
X5973763D1*
X1104146Y7064083D2*
X1145313D1*
X1454692D2*
X1817422D1*
X3230578D2*
X4068633D1*
X5152023D2*
X5209323D1*
X5680669D2*
X6045313D1*
X6354692D2*
X6395860D1*
X1104146Y7000917D2*
X1751524D1*
X3296476D2*
X4044206D1*
X5170435D2*
X5209323D1*
X5680669D2*
X6395860D1*
X1104146Y6937750D2*
X1688360D1*
X3359640D2*
X4044115D1*
X5170526D2*
X5209323D1*
X5680669D2*
X6395860D1*
X1104146Y6874583D2*
X1439349D1*
X3422804D2*
X4068268D1*
X4535786D2*
X4570300D1*
X5152297D2*
X5209323D1*
X5680669D2*
X6395860D1*
X1104146Y6811417D2*
X1439349D1*
X1900851D2*
X2545495D1*
X3010552D2*
X3147149D1*
X3485968D2*
X4069453D1*
X4534510D2*
X4582331D1*
X5109914D2*
X5209323D1*
X5680669D2*
X6395860D1*
X1104146Y6748250D2*
X1439349D1*
X1837687D2*
X2520430D1*
X3035526D2*
X3210313D1*
X3549132D2*
X4044479D1*
X4559575D2*
X4582443D1*
X4843677D2*
X4868637D1*
X5005369D2*
X5209323D1*
X5680669D2*
X6395860D1*
X1104146Y6685083D2*
X1439349D1*
X1830669D2*
X2519883D1*
X3036164D2*
X3273477D1*
X3593521D2*
X4043841D1*
X4560122D2*
X4582381D1*
X4843677D2*
X5358347D1*
X5619601D2*
X6395860D1*
X1104146Y6621917D2*
X1439349D1*
X1830669D2*
X2543399D1*
X3012557D2*
X3336732D1*
X3598625D2*
X4067448D1*
X4536606D2*
X4582331D1*
X4843677D2*
X5358347D1*
X5619601D2*
X6395860D1*
X1104146Y6558750D2*
X1439349D1*
X3009640D2*
X3355326D1*
X3598625D2*
X4070365D1*
X4533690D2*
X4582331D1*
X4843677D2*
X5358347D1*
X5619601D2*
X6395860D1*
X1104146Y6495583D2*
X1442539D1*
X3035252D2*
X3355326D1*
X3598625D2*
X4044753D1*
X4559302D2*
X4582388D1*
X4843677D2*
X5358347D1*
X5619601D2*
X6395860D1*
X1104146Y6432417D2*
X1441537D1*
X3036346D2*
X3355326D1*
X3598625D2*
X4043659D1*
X4560304D2*
X4582418D1*
X4843677D2*
X5358347D1*
X5619601D2*
X6395860D1*
X1104146Y6369250D2*
X1463047D1*
X3013377D2*
X3355326D1*
X3598625D2*
X4066628D1*
X4537427D2*
X4582331D1*
X4843677D2*
X5358347D1*
X5619601D2*
X6395860D1*
X1104146Y6306083D2*
X1467331D1*
X3008729D2*
X3355326D1*
X3598625D2*
X4071185D1*
X4532778D2*
X4582331D1*
X4843677D2*
X5008893D1*
X5619601D2*
X6395860D1*
X1104146Y6242917D2*
X1442813D1*
X3034979D2*
X3355326D1*
X3598625D2*
X4045026D1*
X4559028D2*
X4582333D1*
X4843677D2*
X4893503D1*
X5619601D2*
X6395860D1*
X1104146Y6179750D2*
X1441354D1*
X3036528D2*
X3355326D1*
X3598625D2*
X4043477D1*
X4560578D2*
X4582304D1*
X5619601D2*
X6395860D1*
X1104146Y6116583D2*
X1462318D1*
X3014198D2*
X3355326D1*
X3598625D2*
X4065807D1*
X4538156D2*
X4582331D1*
X5619601D2*
X6395860D1*
X1104146Y6053417D2*
X1468151D1*
X3007909D2*
X3355326D1*
X3598625D2*
X4072097D1*
X4531867D2*
X4582331D1*
X5616776D2*
X6395860D1*
X1104146Y5990250D2*
X1443086D1*
X3034705D2*
X3355326D1*
X3598625D2*
X4045300D1*
X4558755D2*
X4582278D1*
X5581320D2*
X6395860D1*
X1104146Y5927083D2*
X1441172D1*
X3036802D2*
X3355326D1*
X3598625D2*
X4043203D1*
X4560760D2*
X4582343D1*
X4843677D2*
X4884115D1*
X5497922D2*
X6395860D1*
X1104146Y5863917D2*
X1461589D1*
X3014927D2*
X3355326D1*
X3598625D2*
X4065078D1*
X4538976D2*
X4582331D1*
X4843677D2*
X4975169D1*
X5406867D2*
X6395860D1*
X1104146Y5800750D2*
X1469063D1*
X3006997D2*
X3355326D1*
X3598625D2*
X4073008D1*
X4530955D2*
X4582331D1*
X4843677D2*
X4926680D1*
X5455265D2*
X6395860D1*
X1104146Y5737583D2*
X1443360D1*
X3034432D2*
X3355326D1*
X3598625D2*
X4045573D1*
X4558481D2*
X4582401D1*
X4843677D2*
X4864689D1*
X5517336D2*
X6395860D1*
X1104146Y5674417D2*
X1440990D1*
X3036984D2*
X3355326D1*
X3598625D2*
X4043021D1*
X4560942D2*
X4582381D1*
X5606841D2*
X6395860D1*
X1104146Y5611250D2*
X1460951D1*
X3015656D2*
X3355326D1*
X3598625D2*
X4064258D1*
X4539705D2*
X4594636D1*
X5661255D2*
X6395860D1*
X1104146Y5548083D2*
X1469883D1*
X3006086D2*
X3355326D1*
X3598625D2*
X4073919D1*
X4530044D2*
X4647865D1*
X5674653D2*
X6395860D1*
X1104146Y5484917D2*
X1443633D1*
X3034159D2*
X3355326D1*
X3598625D2*
X4045847D1*
X4558117D2*
X4863151D1*
X5674653D2*
X6395860D1*
X1104146Y5421750D2*
X1440807D1*
X3037166D2*
X3355326D1*
X3598625D2*
X4042839D1*
X4561125D2*
X4923399D1*
X5674653D2*
X6395860D1*
X1104146Y5358583D2*
X1460222D1*
X3016476D2*
X3355326D1*
X3598625D2*
X4063529D1*
X4540435D2*
X4981459D1*
X5674653D2*
X6395860D1*
X1104146Y5295417D2*
X1512630D1*
X1757388D2*
X2550873D1*
X3005083D2*
X3355326D1*
X3598625D2*
X4074922D1*
X4529132D2*
X4886211D1*
X5674653D2*
X6395860D1*
X1104146Y5232250D2*
X2522162D1*
X3033794D2*
X3355326D1*
X3598625D2*
X4046211D1*
X4557843D2*
X4845469D1*
X5674653D2*
X6395860D1*
X1104146Y5169083D2*
X2518698D1*
X3037257D2*
X3355326D1*
X3598625D2*
X4042748D1*
X4561307D2*
X4828151D1*
X5674653D2*
X6395860D1*
X1104146Y5105917D2*
X2538841D1*
X3017205D2*
X3355326D1*
X3598625D2*
X4062800D1*
X4541164D2*
X4828880D1*
X5674653D2*
X6395860D1*
X1104146Y5042750D2*
X2551875D1*
X3004172D2*
X3355326D1*
X3598625D2*
X4075834D1*
X4528130D2*
X4847930D1*
X5674653D2*
X6395860D1*
X1104146Y4979583D2*
X2522526D1*
X3033521D2*
X3355326D1*
X3598625D2*
X4046485D1*
X4557479D2*
X4891224D1*
X5674653D2*
X6395860D1*
X1104146Y4916417D2*
X2518516D1*
X3037440D2*
X3355326D1*
X3598625D2*
X4042565D1*
X4561489D2*
X4999232D1*
X5382804D2*
X5413399D1*
X5674653D2*
X6395860D1*
X1104146Y4853250D2*
X2538112D1*
X3017843D2*
X3355326D1*
X3598625D2*
X4062162D1*
X4541893D2*
X5413399D1*
X5674653D2*
X6395860D1*
X1104146Y4790083D2*
X2552878D1*
X3003169D2*
X3355326D1*
X3598625D2*
X4076836D1*
X4527127D2*
X5413399D1*
X5674653D2*
X6395860D1*
X1104146Y4726917D2*
X2522800D1*
X3033156D2*
X3355326D1*
X3598625D2*
X4046849D1*
X4557205D2*
X5413399D1*
X5674653D2*
X6395860D1*
X1104146Y4663750D2*
X2518425D1*
X3037622D2*
X3355326D1*
X3598625D2*
X4042383D1*
X4561580D2*
X5413399D1*
X5674653D2*
X6395860D1*
X1104146Y4600583D2*
X2537383D1*
X3018573D2*
X3301367D1*
X3842622D2*
X4061432D1*
X4542531D2*
X4955391D1*
X5674653D2*
X6395860D1*
X1104146Y4537417D2*
X2553880D1*
X3002166D2*
X3301367D1*
X3842622D2*
X4077839D1*
X4526125D2*
X4955391D1*
X5674653D2*
X6395860D1*
X1104146Y4474250D2*
X2523164D1*
X3032791D2*
X3301367D1*
X3918182D2*
X4047123D1*
X4556841D2*
X4879831D1*
X5674653D2*
X6395860D1*
X1104146Y4411083D2*
X2518242D1*
X3037713D2*
X3301367D1*
X3981346D2*
X4042292D1*
X4561763D2*
X4816667D1*
X5674653D2*
X6395860D1*
X1104146Y4347917D2*
X2536745D1*
X3019302D2*
X3301367D1*
X4543260D2*
X4753503D1*
X5674653D2*
X6395860D1*
X1104146Y4284750D2*
X2554883D1*
X3001164D2*
X3301367D1*
X4537700D2*
X4690339D1*
X5674653D2*
X6395860D1*
X1104146Y4221583D2*
X2523529D1*
X3032518D2*
X3832018D1*
X4607791D2*
X4627239D1*
X5663078D2*
X6395860D1*
X1104146Y4158417D2*
X2518151D1*
X3114276D2*
X3203750D1*
X3368299D2*
X3457682D1*
X3622323D2*
X3711706D1*
X4902830D2*
X5246328D1*
X5610578D2*
X6395860D1*
X1104146Y4095250D2*
X2536107D1*
X4839666D2*
X5035599D1*
X5547414D2*
X6395860D1*
X1104146Y4032083D2*
X2555886D1*
X4776502D2*
X4984102D1*
X5484250D2*
X6395860D1*
X1104146Y3968917D2*
X2523893D1*
X4713338D2*
X4960404D1*
X5421541D2*
X6395860D1*
X1104146Y3905750D2*
X2517969D1*
X4650174D2*
X4955847D1*
X5426099D2*
X6395860D1*
X1104146Y3842583D2*
X2535378D1*
X4587010D2*
X4969154D1*
X5412791D2*
X6395860D1*
X1104146Y3779417D2*
X2586693D1*
X4493312D2*
X5004336D1*
X5377700D2*
X6395860D1*
X1104146Y3716250D2*
X2901875D1*
X4178039D2*
X5081446D1*
X5300591D2*
X6395860D1*
X1104146Y3653083D2*
X3418399D1*
X4169653D2*
X6395860D1*
X1104146Y3589917D2*
X3418399D1*
X4169653D2*
X5038789D1*
X5343247D2*
X6395860D1*
X1104146Y3526750D2*
X2346341D1*
X4799562D2*
X4985560D1*
X5396476D2*
X6395860D1*
X1104146Y3463583D2*
X2267136D1*
X4878768D2*
X4961042D1*
X5420994D2*
X6395860D1*
X1104146Y3400417D2*
X2203972D1*
X3635903D2*
X3669870D1*
X3915630D2*
X3952057D1*
X4925435D2*
X4955664D1*
X5426281D2*
X6395860D1*
X1104146Y3337250D2*
X2140807D1*
X3573651D2*
X3606706D1*
X3914263D2*
X4014310D1*
X4931632D2*
X4968242D1*
X5413794D2*
X6395860D1*
X1104146Y3274083D2*
X2077643D1*
X2416463D2*
X3543542D1*
X3882362D2*
X4688334D1*
X4931632D2*
X5002240D1*
X5379797D2*
X6395860D1*
X1104146Y3210917D2*
X2014479D1*
X2353299D2*
X3480378D1*
X3819198D2*
X4688334D1*
X4931632D2*
X5076341D1*
X5305695D2*
X6395860D1*
X1104146Y3147750D2*
X1951315D1*
X2290135D2*
X3440729D1*
X3756034D2*
X4688334D1*
X4931632D2*
X6395860D1*
X1104146Y3084583D2*
X1888151D1*
X2226971D2*
X3437357D1*
X3692869D2*
X4688334D1*
X4931632D2*
X6395860D1*
X1104146Y3021417D2*
X1824987D1*
X2163807D2*
X3437357D1*
X3680656D2*
X4688334D1*
X4931632D2*
X6395860D1*
X1104146Y2958250D2*
X1761823D1*
X2100643D2*
X3437357D1*
X3680656D2*
X4688334D1*
X4931632D2*
X6395860D1*
X1104146Y2895083D2*
X1698659D1*
X2231437D2*
X3437357D1*
X3882453D2*
X4688334D1*
X4931632D2*
X5336563D1*
X5533468D2*
X6395860D1*
X1104146Y2831917D2*
X1635495D1*
X2300890D2*
X3437357D1*
X3951906D2*
X4688334D1*
X4931632D2*
X5267110D1*
X5602922D2*
X6395860D1*
X1104146Y2768750D2*
X1572331D1*
X1911151D2*
X1937552D1*
X2328416D2*
X3437357D1*
X3979432D2*
X4688334D1*
X4931632D2*
X5239584D1*
X5630448D2*
X6395860D1*
X1104146Y2705583D2*
X1297344D1*
X1847987D2*
X1933268D1*
X2332791D2*
X2658060D1*
X2857974D2*
X2948360D1*
X3369666D2*
X3437357D1*
X3983807D2*
X4309076D1*
X4508989D2*
X4599375D1*
X5020682D2*
X5235209D1*
X5634731D2*
X5960000D1*
X6159914D2*
X6395860D1*
X1104146Y2642417D2*
X1297344D1*
X1784823D2*
X1950313D1*
X2315656D2*
X2585143D1*
X3369666D2*
X3437357D1*
X3966672D2*
X4236159D1*
X5020682D2*
X5252344D1*
X5617687D2*
X5887175D1*
X6232830D2*
X6395860D1*
X1104146Y2579250D2*
X1297344D1*
X1773612D2*
X1997071D1*
X2268989D2*
X2554974D1*
X3919914D2*
X4205990D1*
X5020682D2*
X5299011D1*
X5570929D2*
X5857005D1*
X6263000D2*
X6395860D1*
X1104146Y2516083D2*
X1297344D1*
X1773612D2*
X2547500D1*
X3680656D2*
X4198516D1*
X5020682D2*
X5849531D1*
X6270474D2*
X6395860D1*
X1104146Y2452917D2*
X1297344D1*
X1773612D2*
X2560169D1*
X3680656D2*
X4211094D1*
X5050487D2*
X5862110D1*
X6257896D2*
X6395860D1*
X1104146Y2389750D2*
X1297344D1*
X1773612D2*
X2597630D1*
X2918312D2*
X2948360D1*
X3369666D2*
X3437357D1*
X3680656D2*
X4248646D1*
X4569328D2*
X4599375D1*
X5113651D2*
X5899662D1*
X6220343D2*
X6395860D1*
X1104146Y2326583D2*
X1297344D1*
X1773612D2*
X2699076D1*
X2816867D2*
X2948360D1*
X3369666D2*
X3437357D1*
X3680656D2*
X4350091D1*
X4467882D2*
X4599375D1*
X5176815D2*
X6001107D1*
X6118898D2*
X6395860D1*
X1104146Y2263417D2*
X1530404D1*
X1773612D2*
X3437357D1*
X3680656D2*
X4901159D1*
X5239979D2*
X6395860D1*
X1104146Y2200250D2*
X1398334D1*
X1773612D2*
X2648307D1*
X2867635D2*
X3049349D1*
X3268677D2*
X3437357D1*
X3680656D2*
X4299323D1*
X4518651D2*
X4700365D1*
X4919692D2*
X4964323D1*
X5294484D2*
X5950339D1*
X6169666D2*
X6395860D1*
X1104146Y2137083D2*
X1331524D1*
X1773612D2*
X2581498D1*
X2934445D2*
X2982539D1*
X3335487D2*
X3437357D1*
X3680656D2*
X4232513D1*
X4585461D2*
X4633555D1*
X4986502D2*
X5027487D1*
X5306333D2*
X5883529D1*
X6236476D2*
X6395860D1*
X1104146Y2073917D2*
X1303542D1*
X1773612D2*
X2553516D1*
X3363468D2*
X3437357D1*
X3680656D2*
X4204531D1*
X5014484D2*
X5063034D1*
X5306333D2*
X5855547D1*
X6264458D2*
X6395860D1*
X1104146Y2010750D2*
X1297800D1*
X1773612D2*
X2073086D1*
X2192974D2*
X2547774D1*
X3369211D2*
X3437357D1*
X3680656D2*
X3724011D1*
X3843989D2*
X4198789D1*
X5020226D2*
X5063034D1*
X5306333D2*
X5375026D1*
X5494914D2*
X5849805D1*
X6270200D2*
X6395860D1*
X1104146Y1947583D2*
X1312201D1*
X1773612D2*
X1976745D1*
X2289224D2*
X2562175D1*
X3354810D2*
X3437357D1*
X3940239D2*
X4213190D1*
X5005825D2*
X5063034D1*
X5591255D2*
X5864206D1*
X6255799D2*
X6395860D1*
X1104146Y1884417D2*
X1352487D1*
X1808976D2*
X1942018D1*
X2324041D2*
X2602461D1*
X2913481D2*
X3003503D1*
X3314523D2*
X3437357D1*
X3974966D2*
X4253477D1*
X4564497D2*
X4654518D1*
X4965539D2*
X5063034D1*
X5625981D2*
X5904492D1*
X6215513D2*
X6395860D1*
X1104146Y1821250D2*
X1476628D1*
X1872140D2*
X1932357D1*
X2333612D2*
X2726602D1*
X2789432D2*
X3127643D1*
X3190382D2*
X3437357D1*
X3984627D2*
X4377617D1*
X4440356D2*
X4778568D1*
X4841398D2*
X5063034D1*
X5635643D2*
X6028633D1*
X6091372D2*
X6395860D1*
X1104146Y1758083D2*
X1596485D1*
X2322127D2*
X3437357D1*
X3973143D2*
X5063034D1*
X5624159D2*
X6395860D1*
X1104146Y1694917D2*
X1659649D1*
X2284575D2*
X3437357D1*
X3935591D2*
X5063034D1*
X5586515D2*
X6395860D1*
X1104146Y1631750D2*
X1722813D1*
X2061632D2*
X2098607D1*
X2167453D2*
X3437357D1*
X3712648D2*
X3749531D1*
X3818468D2*
X5063399D1*
X5363664D2*
X5400547D1*
X5469393D2*
X6395860D1*
X1104146Y1568583D2*
X1195807D1*
X1404198D2*
X1785977D1*
X2124797D2*
X3447565D1*
X3775812D2*
X5088919D1*
X5426828D2*
X6095807D1*
X6304198D2*
X6395860D1*
X1503820Y1505417D2*
X1849232D1*
X2280109D2*
X3500156D1*
X3931125D2*
X5151172D1*
X5582140D2*
X5996185D1*
X1552218Y1442250D2*
X1912396D1*
X2319119D2*
X3563321D1*
X3970135D2*
X5214336D1*
X5621151D2*
X5947787D1*
X1578286Y1379083D2*
X1956146D1*
X2329875D2*
X3607162D1*
X3980799D2*
X5258177D1*
X5631815D2*
X5921719D1*
X1588221Y1315917D2*
X1968268D1*
X2317661D2*
X3619284D1*
X3968677D2*
X5270300D1*
X5619692D2*
X5911784D1*
X1583755Y1252750D2*
X2009649D1*
X2276372D2*
X3660664D1*
X3927388D2*
X5311680D1*
X5578312D2*
X5916250D1*
X1564159Y1189583D2*
X5935847D1*
X1525513Y1126417D2*
X5974492D1*
X2576425Y7096036D2*
X2566667Y7106560D1*
X2550130Y7129321D1*
X2537358Y7154389D1*
X2528664Y7181146D1*
X2524263Y7208933D1*
Y7237067D1*
X2528664Y7264854D1*
X2537358Y7291611D1*
X2550130Y7316679D1*
X2566667Y7339440D1*
X2586560Y7359333D1*
X2609321Y7375870D1*
X2634389Y7388642D1*
X2661146Y7397336D1*
X2688933Y7401737D1*
X2749667Y7402290D1*
X2867067Y7401737D1*
X2894854Y7397336D1*
X2921611Y7388642D1*
X2946679Y7375870D1*
X2969440Y7359333D1*
X2989333Y7339440D1*
X3005870Y7316679D1*
X3018642Y7291611D1*
X3027336Y7264854D1*
X3031737Y7237067D1*
Y7208933D1*
X3027336Y7181146D1*
X3018642Y7154389D1*
X3005870Y7129321D1*
X2989333Y7106560D1*
X2979777Y7095777D1*
X2990252Y7084274D1*
X3168046Y7083935D1*
X3185914Y7081105D1*
X3203120Y7075514D1*
X3219239Y7067301D1*
X3233875Y7056667D1*
X3290020Y7001025D1*
X3564667Y6725875D1*
X3575301Y6711239D1*
X3583514Y6695120D1*
X3589105Y6677914D1*
X3591935Y6660046D1*
X3592290Y6581000D1*
Y4608331D1*
X3836290Y4608290D1*
Y4536194D1*
X3854239Y4527301D1*
X3868875Y4516667D1*
X3925020Y4461025D1*
X4092525Y4293520D1*
X4100223Y4302223D1*
X4081951Y4323616D1*
X4067251Y4347604D1*
X4056485Y4373596D1*
X4049917Y4400953D1*
X4047710Y4429000D1*
X4049917Y4457047D1*
X4056485Y4484404D1*
X4067251Y4510396D1*
X4081951Y4534384D1*
X4100223Y4555777D1*
X4090667Y4566560D1*
X4074130Y4589321D1*
X4061358Y4614389D1*
X4052664Y4641146D1*
X4048263Y4668933D1*
Y4697067D1*
X4052664Y4724854D1*
X4061358Y4751611D1*
X4074130Y4776679D1*
X4090667Y4799440D1*
X4100223Y4810223D1*
X4081951Y4831616D1*
X4067251Y4855604D1*
X4056485Y4881596D1*
X4049917Y4908953D1*
X4047710Y4937000D1*
X4049917Y4965047D1*
X4056485Y4992404D1*
X4067251Y5018396D1*
X4081951Y5042384D1*
X4100223Y5063777D1*
X4090667Y5074560D1*
X4074130Y5097321D1*
X4061358Y5122389D1*
X4052664Y5149146D1*
X4048263Y5176933D1*
Y5205067D1*
X4052664Y5232854D1*
X4061358Y5259611D1*
X4074130Y5284679D1*
X4090667Y5307440D1*
X4100223Y5318223D1*
X4081951Y5339616D1*
X4067251Y5363604D1*
X4056485Y5389596D1*
X4049917Y5416953D1*
X4047710Y5445000D1*
X4049917Y5473047D1*
X4056485Y5500404D1*
X4067251Y5526396D1*
X4081951Y5550384D1*
X4100223Y5571777D1*
X4090667Y5582560D1*
X4074130Y5605321D1*
X4061358Y5630389D1*
X4052664Y5657146D1*
X4048263Y5684933D1*
Y5713067D1*
X4052664Y5740854D1*
X4061358Y5767611D1*
X4074130Y5792679D1*
X4090667Y5815440D1*
X4100223Y5826223D1*
X4081951Y5847616D1*
X4067251Y5871604D1*
X4056485Y5897596D1*
X4049917Y5924953D1*
X4047710Y5953000D1*
X4049917Y5981047D1*
X4056485Y6008404D1*
X4067251Y6034396D1*
X4081951Y6058384D1*
X4100223Y6079777D1*
X4090667Y6090560D1*
X4074130Y6113321D1*
X4061358Y6138389D1*
X4052664Y6165146D1*
X4048263Y6192933D1*
Y6221067D1*
X4052664Y6248854D1*
X4061358Y6275611D1*
X4074130Y6300679D1*
X4090667Y6323440D1*
X4100223Y6334223D1*
X4081951Y6355616D1*
X4067251Y6379604D1*
X4056485Y6405596D1*
X4049917Y6432953D1*
X4047710Y6461000D1*
X4049917Y6489047D1*
X4056485Y6516404D1*
X4067251Y6542396D1*
X4081951Y6566384D1*
X4100223Y6587777D1*
X4090667Y6598560D1*
X4074130Y6621321D1*
X4061358Y6646389D1*
X4052664Y6673146D1*
X4048263Y6700933D1*
Y6729067D1*
X4052664Y6756854D1*
X4061358Y6783611D1*
X4074130Y6808679D1*
X4090667Y6831440D1*
X4100425Y6841964D1*
X4086344Y6857821D1*
X4075551Y6873041D1*
X4066398Y6889301D1*
X4058985Y6906423D1*
X4053391Y6924223D1*
X4049678Y6942508D1*
X4047885Y6961080D1*
X4048032Y6979737D1*
X4050117Y6998279D1*
X4054117Y7016503D1*
X4059990Y7034213D1*
X4067672Y7051216D1*
X4077079Y7067330D1*
X4088110Y7082378D1*
X4100454Y7096003D1*
X4090667Y7106560D1*
X4074130Y7129321D1*
X4061358Y7154389D1*
X4052664Y7181146D1*
X4048263Y7208933D1*
Y7237067D1*
X4052664Y7264854D1*
X4061358Y7291611D1*
X4074130Y7316679D1*
X4090667Y7339440D1*
X4110560Y7359333D1*
X4133321Y7375870D1*
X4158389Y7388642D1*
X4185146Y7397336D1*
X4212933Y7401737D1*
X4273667Y7402289D1*
X4391067Y7401737D1*
X4418854Y7397336D1*
X4445611Y7388642D1*
X4470679Y7375870D1*
X4493440Y7359333D1*
X4513333Y7339440D1*
X4529870Y7316679D1*
X4542642Y7291611D1*
X4551336Y7264854D1*
X4554399Y7248371D1*
X4731695Y7071069D1*
X4743050Y7091300D1*
X4756477Y7110370D1*
X4771773Y7127977D1*
X4788778Y7143940D1*
X4807316Y7158093D1*
X4827197Y7170289D1*
X4848213Y7180402D1*
X4870148Y7188328D1*
X4892775Y7193985D1*
X4915860Y7197313D1*
X4939163Y7198280D1*
X4962444Y7196874D1*
X4985461Y7193110D1*
X5007978Y7187028D1*
X5029759Y7178689D1*
X5050581Y7168181D1*
X5070228Y7155612D1*
X5088496Y7141113D1*
X5105197Y7124832D1*
X5120158Y7106939D1*
X5133223Y7087619D1*
X5144258Y7067071D1*
X5153149Y7045509D1*
X5159803Y7023155D1*
X5164152Y7000241D1*
X5166150Y6977003D1*
X5165863Y6955009D1*
X5163257Y6931831D1*
X5158311Y6909039D1*
X5151075Y6886866D1*
X5141623Y6865544D1*
X5130055Y6845292D1*
X5116489Y6826320D1*
X5101066Y6808824D1*
X5083945Y6792986D1*
X5065304Y6778968D1*
X5045335Y6766917D1*
X5024246Y6756957D1*
X5002253Y6749191D1*
X4979586Y6743699D1*
X4956478Y6740539D1*
X4933168Y6739742D1*
X4909898Y6741317D1*
X4886908Y6745248D1*
X4864437Y6751495D1*
X4842717Y6759991D1*
X4837287Y6762538D1*
X4837290Y6125853D1*
X4844030Y6151473D1*
X4850316Y6168511D1*
X4857919Y6185003D1*
X4866793Y6200849D1*
X4876882Y6215949D1*
X4888126Y6230211D1*
X4900453Y6243547D1*
X4913789Y6255874D1*
X4928051Y6267118D1*
X4943151Y6277207D1*
X4958997Y6286081D1*
X4975489Y6293684D1*
X4992527Y6299970D1*
X5010006Y6304899D1*
X5027818Y6308442D1*
X5045853Y6310577D1*
X5087334Y6311289D1*
X5318000Y6311290D1*
X5336147Y6310577D1*
X5364688Y6306353D1*
X5364710Y6739622D1*
X5215711Y6739709D1*
Y7198289D1*
X5674291D1*
Y6739709D1*
X5613314D1*
X5612908Y6070248D1*
X5609857Y6050985D1*
X5603830Y6032436D1*
X5594975Y6015059D1*
X5583511Y5999280D1*
X5569720Y5985489D1*
X5553942Y5974025D1*
X5536564Y5965171D1*
X5517978Y5959136D1*
X5493874Y5929789D1*
X5481547Y5916453D1*
X5468211Y5904126D1*
X5453949Y5892882D1*
X5438849Y5882793D1*
X5423003Y5873919D1*
X5406511Y5866316D1*
X5389473Y5860030D1*
X5371994Y5855101D1*
X5354182Y5851558D1*
X5336147Y5849423D1*
X5294667Y5848709D1*
X5064000Y5848710D1*
X5045853Y5849423D1*
X5027818Y5851558D1*
X5010006Y5855101D1*
X4992527Y5860030D1*
X4975489Y5866316D1*
X4958997Y5873919D1*
X4943151Y5882793D1*
X4928051Y5892882D1*
X4913789Y5904126D1*
X4900453Y5916453D1*
X4888126Y5929789D1*
X4876882Y5944051D1*
X4866793Y5959151D1*
X4857919Y5974997D1*
X4850316Y5991489D1*
X4844030Y6008527D1*
X4837288Y6035121D1*
X4837290Y5734473D1*
X4868900Y5734390D1*
X4888126Y5760311D1*
X4900453Y5773647D1*
X4913789Y5785974D1*
X4928051Y5797218D1*
X4943151Y5807307D1*
X4958997Y5816181D1*
X4975489Y5823784D1*
X4992527Y5830070D1*
X5010006Y5834999D1*
X5027818Y5838542D1*
X5045853Y5840677D1*
X5087334Y5841389D1*
X5318000Y5841390D1*
X5336147Y5840677D1*
X5354182Y5838542D1*
X5371994Y5834999D1*
X5389473Y5830070D1*
X5406511Y5823784D1*
X5423003Y5816181D1*
X5438849Y5807307D1*
X5453949Y5797218D1*
X5468211Y5785974D1*
X5481547Y5773647D1*
X5493874Y5760311D1*
X5505118Y5746049D1*
X5514695Y5731715D1*
X5527408Y5728307D1*
X5545427Y5720843D1*
X5562056Y5710653D1*
X5576913Y5697958D1*
X5638510Y5635821D1*
X5649974Y5620043D1*
X5658828Y5602665D1*
X5664855Y5584116D1*
X5667906Y5564853D1*
X5668289Y5485101D1*
X5667906Y4264247D1*
X5664855Y4244984D1*
X5658828Y4226435D1*
X5649974Y4209058D1*
X5638510Y4193279D1*
X5582388Y4136615D1*
X5415141Y3969368D1*
X5419583Y3938990D1*
X5420290Y3921000D1*
X5419583Y3903010D1*
X5417467Y3885131D1*
X5413955Y3867473D1*
X5409068Y3850145D1*
X5402836Y3833255D1*
X5395299Y3816905D1*
X5386502Y3801196D1*
X5376500Y3786227D1*
X5365353Y3772088D1*
X5353133Y3758867D1*
X5339912Y3746647D1*
X5325773Y3735500D1*
X5310804Y3725498D1*
X5295095Y3716701D1*
X5278745Y3709164D1*
X5261855Y3702932D1*
X5244527Y3698045D1*
X5226869Y3694533D1*
X5208990Y3692417D1*
X5191000Y3691710D1*
X5173010Y3692417D1*
X5155131Y3694533D1*
X5137473Y3698045D1*
X5120145Y3702932D1*
X5103255Y3709164D1*
X5086905Y3716701D1*
X5071196Y3725498D1*
X5056227Y3735500D1*
X5042088Y3746647D1*
X5028867Y3758867D1*
X5016647Y3772088D1*
X5005500Y3786227D1*
X4995498Y3801196D1*
X4986701Y3816905D1*
X4979164Y3833255D1*
X4972932Y3850145D1*
X4968045Y3867473D1*
X4964533Y3885131D1*
X4962417Y3903010D1*
X4961710Y3921000D1*
X4962417Y3938990D1*
X4964533Y3956869D1*
X4968045Y3974527D1*
X4972932Y3991855D1*
X4979164Y4008745D1*
X4986701Y4025095D1*
X4995498Y4040804D1*
X5005500Y4055773D1*
X5016647Y4069912D1*
X5028867Y4083133D1*
X5042088Y4095353D1*
X5056227Y4106500D1*
X5071196Y4116502D1*
X5086905Y4125299D1*
X5103255Y4132836D1*
X5120145Y4139068D1*
X5137473Y4143955D1*
X5155131Y4147467D1*
X5173010Y4149583D1*
X5191000Y4150290D1*
X5208990Y4149583D1*
X5239216Y4145011D1*
X5293950Y4199722D1*
X4961711Y4199709D1*
Y4223681D1*
X4570885Y3833333D1*
X4556249Y3822699D1*
X4540130Y3814486D1*
X4522889Y3808888D1*
X4513333Y3804560D1*
X4493440Y3784667D1*
X4470679Y3768130D1*
X4445611Y3755358D1*
X4418854Y3746664D1*
X4391067Y3742263D1*
X4330334Y3741710D1*
X4227000D1*
X4198953Y3743917D1*
X4195771Y3744550D1*
X4184333Y3729560D1*
X4164440Y3709667D1*
X4163274Y3708748D1*
X4163290Y3533357D1*
X4754999Y3533281D1*
X4773034Y3531862D1*
X4790625Y3527638D1*
X4807339Y3520715D1*
X4822764Y3511263D1*
X4836545Y3499487D1*
X4897667Y3437865D1*
X4908301Y3423229D1*
X4916514Y3407109D1*
X4922104Y3389904D1*
X4924934Y3372035D1*
X4925290Y3292990D1*
Y2728342D1*
X5014291Y2728289D1*
Y2482834D1*
X5272324Y2224218D1*
X5282958Y2209582D1*
X5291171Y2193463D1*
X5296761Y2176257D1*
X5299592Y2158389D1*
X5299947Y2079343D1*
Y1963679D1*
X5320799Y1981184D1*
X5333484Y1989659D1*
X5346794Y1997114D1*
X5360648Y2003501D1*
X5374961Y2008781D1*
X5389644Y2012922D1*
X5404606Y2015898D1*
X5419756Y2017691D1*
X5435000Y2018290D1*
X5450244Y2017691D1*
X5465394Y2015898D1*
X5480356Y2012922D1*
X5495039Y2008781D1*
X5509352Y2003501D1*
X5523206Y1997114D1*
X5536516Y1989659D1*
X5549201Y1981184D1*
X5561181Y1971739D1*
X5572384Y1961384D1*
X5582739Y1950181D1*
X5592184Y1938201D1*
X5600659Y1925516D1*
X5608114Y1912206D1*
X5614501Y1898352D1*
X5619781Y1884039D1*
X5623922Y1869356D1*
X5626898Y1854394D1*
X5628691Y1839244D1*
X5629290Y1824000D1*
X5628691Y1808756D1*
X5626898Y1793606D1*
X5623922Y1778644D1*
X5619781Y1763961D1*
X5614501Y1749648D1*
X5608114Y1735794D1*
X5600659Y1722484D1*
X5592184Y1709799D1*
X5582739Y1697819D1*
X5572384Y1686616D1*
X5561181Y1676261D1*
X5549201Y1666816D1*
X5536516Y1658341D1*
X5523206Y1650886D1*
X5509352Y1644499D1*
X5495039Y1639219D1*
X5480356Y1635078D1*
X5465394Y1632102D1*
X5450244Y1630309D1*
X5435000Y1629710D1*
X5419756Y1630309D1*
X5404606Y1632102D1*
X5389644Y1635078D1*
X5374961Y1639219D1*
X5360648Y1644499D1*
X5346794Y1650886D1*
X5325110Y1663936D1*
X5428271Y1560775D1*
X5445000Y1561490D1*
X5473235Y1559268D1*
X5500774Y1552656D1*
X5526941Y1541818D1*
X5551089Y1527019D1*
X5572626Y1508626D1*
X5591019Y1487089D1*
X5605818Y1462941D1*
X5616656Y1436774D1*
X5623268Y1409235D1*
X5625490Y1381000D1*
X5623268Y1352765D1*
X5616656Y1325226D1*
X5605818Y1299059D1*
X5591019Y1274911D1*
X5572626Y1253374D1*
X5551089Y1234981D1*
X5526941Y1220182D1*
X5500774Y1209344D1*
X5473235Y1202732D1*
X5445000Y1200510D1*
X5416765Y1202732D1*
X5389226Y1209344D1*
X5363059Y1220182D1*
X5338911Y1234981D1*
X5317374Y1253374D1*
X5298981Y1274911D1*
X5284182Y1299059D1*
X5273344Y1325226D1*
X5266732Y1352765D1*
X5264510Y1381000D1*
X5265359Y1397635D1*
X5096989Y1566468D1*
X5086356Y1581104D1*
X5078142Y1597224D1*
X5072552Y1614429D1*
X5069722Y1632298D1*
X5069366Y1711343D1*
Y2101539D1*
X4850957Y2319709D1*
X4605711D1*
Y2468915D1*
X4597739Y2445822D1*
X4591024Y2431254D1*
X4583186Y2417259D1*
X4574274Y2403921D1*
X4564343Y2391324D1*
X4553455Y2379545D1*
X4541676Y2368657D1*
X4529079Y2358726D1*
X4515741Y2349814D1*
X4501746Y2341976D1*
X4487178Y2335261D1*
X4472129Y2329709D1*
X4456691Y2325355D1*
X4440958Y2322225D1*
X4425028Y2320340D1*
X4409000Y2319710D1*
X4392972Y2320340D1*
X4377042Y2322225D1*
X4361309Y2325355D1*
X4345871Y2329709D1*
X4330822Y2335261D1*
X4316254Y2341976D1*
X4302259Y2349814D1*
X4288921Y2358726D1*
X4276324Y2368657D1*
X4264545Y2379545D1*
X4253657Y2391324D1*
X4243726Y2403921D1*
X4234814Y2417259D1*
X4226976Y2431254D1*
X4220261Y2445822D1*
X4214709Y2460871D1*
X4210355Y2476309D1*
X4207225Y2492042D1*
X4205340Y2507972D1*
X4204710Y2524000D1*
X4205340Y2540028D1*
X4207225Y2555958D1*
X4210355Y2571691D1*
X4214709Y2587129D1*
X4220261Y2602178D1*
X4226976Y2616746D1*
X4234814Y2630741D1*
X4243726Y2644079D1*
X4253657Y2656676D1*
X4264545Y2668455D1*
X4276324Y2679343D1*
X4288921Y2689274D1*
X4302259Y2698186D1*
X4316254Y2706024D1*
X4330822Y2712739D1*
X4345871Y2718291D1*
X4361309Y2722645D1*
X4377042Y2725775D1*
X4392972Y2727660D1*
X4409000Y2728290D1*
X4425028Y2727660D1*
X4440958Y2725775D1*
X4456691Y2722645D1*
X4472129Y2718291D1*
X4487178Y2712739D1*
X4501746Y2706024D1*
X4515741Y2698186D1*
X4529079Y2689274D1*
X4541676Y2679343D1*
X4553455Y2668455D1*
X4564343Y2656676D1*
X4574274Y2644079D1*
X4583186Y2630741D1*
X4591024Y2616746D1*
X4597739Y2602178D1*
X4605724Y2578505D1*
X4605711Y2728289D1*
X4694760D1*
X4694710Y3302659D1*
X4093953Y3303057D1*
X4076085Y3305887D1*
X4058879Y3311477D1*
X4042760Y3319690D1*
X4028124Y3330324D1*
X3966478Y3391467D1*
X3954729Y3405224D1*
X3945276Y3420649D1*
X3938353Y3437363D1*
X3934130Y3454954D1*
X3932710Y3472990D1*
Y3708784D1*
X3920777Y3719223D1*
X3909274Y3708748D1*
X3908934Y3346093D1*
X3906104Y3328225D1*
X3900514Y3311019D1*
X3892301Y3294900D1*
X3881667Y3280264D1*
X3826025Y3224119D1*
X3674245Y3072340D1*
X3674268Y2884323D1*
X3695794Y2897114D1*
X3709648Y2903501D1*
X3723961Y2908781D1*
X3738644Y2912922D1*
X3753606Y2915898D1*
X3768756Y2917691D1*
X3784000Y2918290D1*
X3799244Y2917691D1*
X3814394Y2915898D1*
X3829356Y2912922D1*
X3844039Y2908781D1*
X3858352Y2903501D1*
X3872206Y2897114D1*
X3885516Y2889659D1*
X3898201Y2881184D1*
X3910181Y2871739D1*
X3921384Y2861384D1*
X3931739Y2850181D1*
X3941184Y2838201D1*
X3949659Y2825516D1*
X3957114Y2812206D1*
X3963501Y2798352D1*
X3968781Y2784039D1*
X3972922Y2769356D1*
X3975898Y2754394D1*
X3977691Y2739244D1*
X3978290Y2724000D1*
X3977691Y2708756D1*
X3975898Y2693606D1*
X3972922Y2678644D1*
X3968781Y2663961D1*
X3963501Y2649648D1*
X3957114Y2635794D1*
X3949659Y2622484D1*
X3941184Y2609799D1*
X3931739Y2597819D1*
X3921384Y2586616D1*
X3910181Y2576261D1*
X3898201Y2566816D1*
X3885516Y2558341D1*
X3872206Y2550886D1*
X3858352Y2544499D1*
X3844039Y2539219D1*
X3829356Y2535078D1*
X3814394Y2532102D1*
X3799244Y2530309D1*
X3784000Y2529710D1*
X3768756Y2530309D1*
X3753606Y2532102D1*
X3738644Y2535078D1*
X3723961Y2539219D1*
X3709648Y2544499D1*
X3695794Y2550886D1*
X3674308Y2563803D1*
X3674268Y1984326D1*
X3695794Y1997114D1*
X3709648Y2003501D1*
X3723961Y2008781D1*
X3738644Y2012922D1*
X3753606Y2015898D1*
X3768756Y2017691D1*
X3784000Y2018290D1*
X3799244Y2017691D1*
X3814394Y2015898D1*
X3829356Y2012922D1*
X3844039Y2008781D1*
X3858352Y2003501D1*
X3872206Y1997114D1*
X3885516Y1989659D1*
X3898201Y1981184D1*
X3910181Y1971739D1*
X3921384Y1961384D1*
X3931739Y1950181D1*
X3941184Y1938201D1*
X3949659Y1925516D1*
X3957114Y1912206D1*
X3963501Y1898352D1*
X3968781Y1884039D1*
X3972922Y1869356D1*
X3975898Y1854394D1*
X3977691Y1839244D1*
X3978290Y1824000D1*
X3977691Y1808756D1*
X3975898Y1793606D1*
X3972922Y1778644D1*
X3968781Y1763961D1*
X3963501Y1749648D1*
X3957114Y1735794D1*
X3949659Y1722484D1*
X3941184Y1709799D1*
X3931739Y1697819D1*
X3921384Y1686616D1*
X3910181Y1676261D1*
X3898201Y1666816D1*
X3885516Y1658341D1*
X3872206Y1650886D1*
X3858352Y1644499D1*
X3844039Y1639219D1*
X3829356Y1635078D1*
X3814394Y1632102D1*
X3799244Y1630309D1*
X3784000Y1629710D1*
X3768756Y1630309D1*
X3753606Y1632102D1*
X3738644Y1635078D1*
X3723961Y1639219D1*
X3709648Y1644499D1*
X3695794Y1650886D1*
X3674308Y1663803D1*
X3777328Y1560716D1*
X3794000Y1561490D1*
X3822235Y1559268D1*
X3849774Y1552656D1*
X3875941Y1541818D1*
X3900089Y1527019D1*
X3921626Y1508626D1*
X3940019Y1487089D1*
X3954818Y1462941D1*
X3965656Y1436774D1*
X3972268Y1409235D1*
X3974490Y1381000D1*
X3972268Y1352765D1*
X3965656Y1325226D1*
X3954818Y1299059D1*
X3940019Y1274911D1*
X3921626Y1253374D1*
X3900089Y1234981D1*
X3875941Y1220182D1*
X3849774Y1209344D1*
X3822235Y1202732D1*
X3794000Y1200510D1*
X3765765Y1202732D1*
X3738226Y1209344D1*
X3712059Y1220182D1*
X3687911Y1234981D1*
X3666374Y1253374D1*
X3647981Y1274911D1*
X3633182Y1299059D1*
X3622344Y1325226D1*
X3615732Y1352765D1*
X3613510Y1381000D1*
X3614359Y1397635D1*
X3471312Y1541147D1*
X3460678Y1555782D1*
X3452465Y1571902D1*
X3446875Y1589107D1*
X3444045Y1606976D1*
X3443689Y1686021D1*
Y2408716D1*
X3363289Y2408710D1*
X3363291Y2319709D1*
X2954711D1*
Y2468915D1*
X2946739Y2445822D1*
X2940024Y2431254D1*
X2932186Y2417259D1*
X2923274Y2403921D1*
X2913343Y2391324D1*
X2902455Y2379545D1*
X2890676Y2368657D1*
X2878079Y2358726D1*
X2864741Y2349814D1*
X2850746Y2341976D1*
X2836178Y2335261D1*
X2821129Y2329709D1*
X2805691Y2325355D1*
X2789958Y2322225D1*
X2774028Y2320340D1*
X2758000Y2319710D1*
X2741972Y2320340D1*
X2726042Y2322225D1*
X2710309Y2325355D1*
X2694871Y2329709D1*
X2679822Y2335261D1*
X2665254Y2341976D1*
X2651259Y2349814D1*
X2637921Y2358726D1*
X2625324Y2368657D1*
X2613545Y2379545D1*
X2602657Y2391324D1*
X2592726Y2403921D1*
X2583814Y2417259D1*
X2575976Y2431254D1*
X2569261Y2445822D1*
X2563709Y2460871D1*
X2559355Y2476309D1*
X2556225Y2492042D1*
X2554340Y2507972D1*
X2553710Y2524000D1*
X2554340Y2540028D1*
X2556225Y2555958D1*
X2559355Y2571691D1*
X2563709Y2587129D1*
X2569261Y2602178D1*
X2575976Y2616746D1*
X2583814Y2630741D1*
X2592726Y2644079D1*
X2602657Y2656676D1*
X2613545Y2668455D1*
X2625324Y2679343D1*
X2637921Y2689274D1*
X2651259Y2698186D1*
X2665254Y2706024D1*
X2679822Y2712739D1*
X2694871Y2718291D1*
X2710309Y2722645D1*
X2726042Y2725775D1*
X2741972Y2727660D1*
X2758000Y2728290D1*
X2774028Y2727660D1*
X2789958Y2725775D1*
X2805691Y2722645D1*
X2821129Y2718291D1*
X2836178Y2712739D1*
X2850746Y2706024D1*
X2864741Y2698186D1*
X2878079Y2689274D1*
X2890676Y2679343D1*
X2902455Y2668455D1*
X2913343Y2656676D1*
X2923274Y2644079D1*
X2932186Y2630741D1*
X2940024Y2616746D1*
X2946739Y2602178D1*
X2954724Y2578505D1*
X2954711Y2728289D1*
X3363291D1*
Y2639240D1*
X3443648Y2639290D1*
X3444045Y3129163D1*
X3446875Y3147032D1*
X3452465Y3164237D1*
X3460678Y3180356D1*
X3471312Y3194992D1*
X3526954Y3251137D1*
X3678734Y3402917D1*
X3678710Y3708693D1*
X3666777Y3719223D1*
X3655274Y3708748D1*
X3654934Y3463944D1*
X3652104Y3446076D1*
X3646514Y3428870D1*
X3638301Y3412751D1*
X3627667Y3398115D1*
X3566524Y3336469D1*
X3552767Y3324720D1*
X3537342Y3315267D1*
X3520628Y3308344D1*
X3503037Y3304121D1*
X3484966Y3302703D1*
X2438738Y3302701D1*
X2012266Y2876233D1*
X2031484Y2889659D1*
X2044794Y2897114D1*
X2058648Y2903501D1*
X2072961Y2908781D1*
X2087644Y2912922D1*
X2102606Y2915898D1*
X2117756Y2917691D1*
X2133000Y2918290D1*
X2148244Y2917691D1*
X2163394Y2915898D1*
X2178356Y2912922D1*
X2193039Y2908781D1*
X2207352Y2903501D1*
X2221206Y2897114D1*
X2234516Y2889659D1*
X2247201Y2881184D1*
X2259181Y2871739D1*
X2270384Y2861384D1*
X2280739Y2850181D1*
X2290184Y2838201D1*
X2298659Y2825516D1*
X2306114Y2812206D1*
X2312501Y2798352D1*
X2317781Y2784039D1*
X2321922Y2769356D1*
X2324898Y2754394D1*
X2326691Y2739244D1*
X2327290Y2724000D1*
X2326691Y2708756D1*
X2324898Y2693606D1*
X2321922Y2678644D1*
X2317781Y2663961D1*
X2312501Y2649648D1*
X2306114Y2635794D1*
X2298659Y2622484D1*
X2290184Y2609799D1*
X2280739Y2597819D1*
X2270384Y2586616D1*
X2259181Y2576261D1*
X2247201Y2566816D1*
X2234516Y2558341D1*
X2221206Y2550886D1*
X2207352Y2544499D1*
X2193039Y2539219D1*
X2178356Y2535078D1*
X2163394Y2532102D1*
X2148244Y2530309D1*
X2133000Y2529710D1*
X2117756Y2530309D1*
X2102606Y2532102D1*
X2087644Y2535078D1*
X2072961Y2539219D1*
X2058648Y2544499D1*
X2044794Y2550886D1*
X2031484Y2558341D1*
X2018799Y2566816D1*
X2006819Y2576261D1*
X1995616Y2586616D1*
X1985261Y2597819D1*
X1975816Y2609799D1*
X1967341Y2622484D1*
X1959886Y2635794D1*
X1953499Y2649648D1*
X1948219Y2663961D1*
X1944078Y2678644D1*
X1941102Y2693606D1*
X1939309Y2708756D1*
X1938710Y2724000D1*
X1939309Y2739244D1*
X1941102Y2754394D1*
X1944078Y2769356D1*
X1948219Y2784039D1*
X1953499Y2798352D1*
X1959886Y2812206D1*
X1967341Y2825516D1*
X1981682Y2845642D1*
X1767228Y2631194D1*
X1767290Y1919794D1*
X1972438Y1714606D1*
X1959886Y1735794D1*
X1953499Y1749648D1*
X1948219Y1763961D1*
X1944078Y1778644D1*
X1941102Y1793606D1*
X1939309Y1808756D1*
X1938710Y1824000D1*
X1939309Y1839244D1*
X1941102Y1854394D1*
X1944078Y1869356D1*
X1948219Y1884039D1*
X1953499Y1898352D1*
X1959886Y1912206D1*
X1967341Y1925516D1*
X1975816Y1938201D1*
X1985261Y1950181D1*
X1995616Y1961384D1*
X2006819Y1971739D1*
X2018799Y1981184D1*
X2031484Y1989659D1*
X2044794Y1997114D1*
X2058648Y2003501D1*
X2072961Y2008781D1*
X2087644Y2012922D1*
X2102606Y2015898D1*
X2117756Y2017691D1*
X2133000Y2018290D1*
X2148244Y2017691D1*
X2163394Y2015898D1*
X2178356Y2012922D1*
X2193039Y2008781D1*
X2207352Y2003501D1*
X2221206Y1997114D1*
X2234516Y1989659D1*
X2247201Y1981184D1*
X2259181Y1971739D1*
X2270384Y1961384D1*
X2280739Y1950181D1*
X2290184Y1938201D1*
X2298659Y1925516D1*
X2306114Y1912206D1*
X2312501Y1898352D1*
X2317781Y1884039D1*
X2321922Y1869356D1*
X2324898Y1854394D1*
X2326691Y1839244D1*
X2327290Y1824000D1*
X2326691Y1808756D1*
X2324898Y1793606D1*
X2321922Y1778644D1*
X2317781Y1763961D1*
X2312501Y1749648D1*
X2306114Y1735794D1*
X2298659Y1722484D1*
X2290184Y1709799D1*
X2280739Y1697819D1*
X2270384Y1686616D1*
X2259181Y1676261D1*
X2247201Y1666816D1*
X2234516Y1658341D1*
X2221206Y1650886D1*
X2207352Y1644499D1*
X2193039Y1639219D1*
X2178356Y1635078D1*
X2163394Y1632102D1*
X2148244Y1630309D1*
X2133000Y1629710D1*
X2117756Y1630309D1*
X2102606Y1632102D1*
X2087644Y1635078D1*
X2072961Y1639219D1*
X2058648Y1644499D1*
X2044794Y1650886D1*
X2023110Y1663936D1*
X2126344Y1560700D1*
X2143000Y1561490D1*
X2171235Y1559268D1*
X2198774Y1552656D1*
X2224941Y1541818D1*
X2249089Y1527019D1*
X2270626Y1508626D1*
X2289019Y1487089D1*
X2303818Y1462941D1*
X2314656Y1436774D1*
X2321268Y1409235D1*
X2323490Y1381000D1*
X2321268Y1352765D1*
X2314656Y1325226D1*
X2303818Y1299059D1*
X2289019Y1274911D1*
X2270626Y1253374D1*
X2249089Y1234981D1*
X2224941Y1220182D1*
X2198774Y1209344D1*
X2171235Y1202732D1*
X2143000Y1200510D1*
X2114765Y1202732D1*
X2087226Y1209344D1*
X2061059Y1220182D1*
X2036911Y1234981D1*
X2015374Y1253374D1*
X1996981Y1274911D1*
X1982182Y1299059D1*
X1971344Y1325226D1*
X1964732Y1352765D1*
X1962510Y1381000D1*
X1963359Y1397635D1*
X1564333Y1797125D1*
X1553700Y1811761D1*
X1549261Y1819691D1*
X1539958Y1822225D1*
X1524028Y1820340D1*
X1508000Y1819710D1*
X1491972Y1820340D1*
X1476042Y1822225D1*
X1460309Y1825355D1*
X1444871Y1829709D1*
X1429822Y1835261D1*
X1415254Y1841976D1*
X1401259Y1849814D1*
X1387921Y1858726D1*
X1375324Y1868657D1*
X1363545Y1879545D1*
X1352657Y1891324D1*
X1342726Y1903921D1*
X1333814Y1917259D1*
X1325976Y1931254D1*
X1319261Y1945822D1*
X1313709Y1960871D1*
X1309355Y1976309D1*
X1306225Y1992042D1*
X1304340Y2007972D1*
X1303710Y2024000D1*
X1304340Y2040028D1*
X1306225Y2055958D1*
X1309355Y2071691D1*
X1313709Y2087129D1*
X1319261Y2102178D1*
X1325976Y2116746D1*
X1333814Y2130741D1*
X1342726Y2144079D1*
X1352657Y2156676D1*
X1363545Y2168455D1*
X1375324Y2179343D1*
X1387921Y2189274D1*
X1401259Y2198186D1*
X1415254Y2206024D1*
X1429822Y2212739D1*
X1444871Y2218291D1*
X1460309Y2222645D1*
X1476042Y2225775D1*
X1491972Y2227660D1*
X1508000Y2228290D1*
X1536660Y2226165D1*
X1536710Y2319799D1*
X1303711Y2319709D1*
Y2728289D1*
X1547708D1*
X1558729Y2746777D1*
X1570478Y2760533D1*
X2316105Y3505658D1*
X2330741Y3516292D1*
X2346861Y3524505D1*
X2364066Y3530095D1*
X2381935Y3532926D1*
X2460980Y3533281D1*
X3424665D1*
X3424711Y3708784D1*
X3412777Y3719223D1*
X3391384Y3700951D1*
X3367396Y3686251D1*
X3341404Y3675485D1*
X3314047Y3668917D1*
X3286000Y3666710D1*
X3257953Y3668917D1*
X3230596Y3675485D1*
X3204604Y3686251D1*
X3180616Y3700951D1*
X3159223Y3719223D1*
X3148440Y3709667D1*
X3125679Y3693130D1*
X3100611Y3680358D1*
X3073854Y3671664D1*
X3046067Y3667263D1*
X3017933D1*
X2990146Y3671664D1*
X2963389Y3680358D1*
X2938321Y3693130D1*
X2915560Y3709667D1*
X2895667Y3729560D1*
X2884354Y3744502D1*
X2867067Y3742263D1*
X2806334Y3741709D1*
X2703000Y3741710D1*
X2674953Y3743917D1*
X2647596Y3750485D1*
X2621604Y3761251D1*
X2597616Y3775951D1*
X2576223Y3794223D1*
X2557951Y3815616D1*
X2543251Y3839604D1*
X2532485Y3865596D1*
X2525917Y3892953D1*
X2523710Y3921000D1*
X2525917Y3949047D1*
X2532485Y3976404D1*
X2543251Y4002396D1*
X2557951Y4026384D1*
X2576223Y4047777D1*
X2566667Y4058560D1*
X2550130Y4081321D1*
X2537358Y4106389D1*
X2528664Y4133146D1*
X2524263Y4160933D1*
Y4189067D1*
X2528664Y4216854D1*
X2537358Y4243611D1*
X2550130Y4268679D1*
X2566667Y4291440D1*
X2576223Y4302223D1*
X2557951Y4323616D1*
X2543251Y4347604D1*
X2532485Y4373596D1*
X2525917Y4400953D1*
X2523710Y4429000D1*
X2525917Y4457047D1*
X2532485Y4484404D1*
X2543251Y4510396D1*
X2557951Y4534384D1*
X2576223Y4555777D1*
X2566667Y4566560D1*
X2550130Y4589321D1*
X2537358Y4614389D1*
X2528664Y4641146D1*
X2524263Y4668933D1*
Y4697067D1*
X2528664Y4724854D1*
X2537358Y4751611D1*
X2550130Y4776679D1*
X2566667Y4799440D1*
X2576223Y4810223D1*
X2557951Y4831616D1*
X2543251Y4855604D1*
X2532485Y4881596D1*
X2525917Y4908953D1*
X2523710Y4937000D1*
X2525917Y4965047D1*
X2532485Y4992404D1*
X2543251Y5018396D1*
X2557951Y5042384D1*
X2576223Y5063777D1*
X2566667Y5074560D1*
X2550130Y5097321D1*
X2537358Y5122389D1*
X2528664Y5149146D1*
X2524263Y5176933D1*
Y5205067D1*
X2528664Y5232854D1*
X2537358Y5259611D1*
X2550130Y5284679D1*
X2566667Y5307440D1*
X2576223Y5318223D1*
X2565748Y5329726D1*
X1785148Y5329710D1*
X1768848Y5311152D1*
X1757934Y5301063D1*
X1746262Y5291861D1*
X1733904Y5283604D1*
X1720936Y5276341D1*
X1707438Y5270119D1*
X1693494Y5264975D1*
X1679189Y5260940D1*
X1664611Y5258040D1*
X1649852Y5256294D1*
X1635000Y5255710D1*
X1620148Y5256294D1*
X1605389Y5258040D1*
X1590811Y5260940D1*
X1576506Y5264975D1*
X1562562Y5270119D1*
X1549064Y5276341D1*
X1536096Y5283604D1*
X1523738Y5291861D1*
X1512066Y5301063D1*
X1501152Y5311152D1*
X1491063Y5322066D1*
X1481861Y5333738D1*
X1473604Y5346096D1*
X1466341Y5359064D1*
X1460119Y5372562D1*
X1454975Y5386506D1*
X1450940Y5400811D1*
X1448040Y5415389D1*
X1446294Y5430148D1*
X1445710Y5445000D1*
X1446294Y5459852D1*
X1448040Y5474611D1*
X1450940Y5489189D1*
X1454975Y5503494D1*
X1460119Y5517438D1*
X1466341Y5530936D1*
X1473604Y5543904D1*
X1481861Y5556262D1*
X1494728Y5571899D1*
X1481861Y5587738D1*
X1473604Y5600096D1*
X1466341Y5613064D1*
X1460119Y5626562D1*
X1454975Y5640506D1*
X1450940Y5654811D1*
X1448040Y5669389D1*
X1446294Y5684148D1*
X1445710Y5699000D1*
X1446294Y5713852D1*
X1448040Y5728611D1*
X1450940Y5743189D1*
X1454975Y5757494D1*
X1460119Y5771438D1*
X1466341Y5784936D1*
X1473604Y5797904D1*
X1481861Y5810262D1*
X1494728Y5825899D1*
X1481861Y5841738D1*
X1473604Y5854096D1*
X1466341Y5867064D1*
X1460119Y5880562D1*
X1454975Y5894506D1*
X1450940Y5908811D1*
X1448040Y5923389D1*
X1446294Y5938148D1*
X1445710Y5953000D1*
X1446294Y5967852D1*
X1448040Y5982611D1*
X1450940Y5997189D1*
X1454975Y6011494D1*
X1460119Y6025438D1*
X1466341Y6038936D1*
X1473604Y6051904D1*
X1481861Y6064262D1*
X1494728Y6079899D1*
X1481861Y6095738D1*
X1473604Y6108096D1*
X1466341Y6121064D1*
X1460119Y6134562D1*
X1454975Y6148506D1*
X1450940Y6162811D1*
X1448040Y6177389D1*
X1446294Y6192148D1*
X1445710Y6207000D1*
X1446294Y6221852D1*
X1448040Y6236611D1*
X1450940Y6251189D1*
X1454975Y6265494D1*
X1460119Y6279438D1*
X1466341Y6292936D1*
X1473604Y6305904D1*
X1481861Y6318262D1*
X1494728Y6333899D1*
X1481861Y6349738D1*
X1473604Y6362096D1*
X1466341Y6375064D1*
X1460119Y6388562D1*
X1454975Y6402506D1*
X1450940Y6416811D1*
X1448040Y6431389D1*
X1446294Y6446148D1*
X1445710Y6461000D1*
X1446294Y6475852D1*
X1448040Y6490611D1*
X1450940Y6505189D1*
X1457285Y6525758D1*
X1445711Y6525709D1*
Y6904289D1*
X1661271D1*
X1814125Y7056668D1*
X1828761Y7067301D1*
X1844880Y7075514D1*
X1862086Y7081105D1*
X1879954Y7083935D1*
X1959000Y7084290D1*
X2565758D1*
X2576425Y7095964D1*
Y6842036D2*
X2565748Y6853726D1*
X1936815Y6853710D1*
X1824291Y6740956D1*
Y6576255D1*
X2565751Y6576290D1*
X2576223Y6588223D1*
X2557951Y6609616D1*
X2543251Y6633604D1*
X2532485Y6659596D1*
X2525917Y6686953D1*
X2523710Y6715000D1*
X2525917Y6743047D1*
X2532485Y6770404D1*
X2543251Y6796396D1*
X2557951Y6820384D1*
X2576223Y6841777D1*
X2576425Y6841964D1*
X2990252Y6853726D2*
X2979777Y6841777D1*
X2998049Y6820384D1*
X3012749Y6796396D1*
X3023515Y6770404D1*
X3030083Y6743047D1*
X3032290Y6715000D1*
X3030083Y6686953D1*
X3023515Y6659596D1*
X3012749Y6633604D1*
X2998049Y6609616D1*
X2979777Y6588223D1*
X2989333Y6577440D1*
X3005870Y6554679D1*
X3018642Y6529611D1*
X3027336Y6502854D1*
X3031737Y6475067D1*
Y6446933D1*
X3027336Y6419146D1*
X3018642Y6392389D1*
X3005870Y6367321D1*
X2989333Y6344560D1*
X2979777Y6333777D1*
X2998049Y6312384D1*
X3012749Y6288396D1*
X3023515Y6262404D1*
X3030083Y6235047D1*
X3032290Y6207000D1*
X3030083Y6178953D1*
X3023515Y6151596D1*
X3012749Y6125604D1*
X2998049Y6101616D1*
X2979777Y6080223D1*
X2989333Y6069440D1*
X3005870Y6046679D1*
X3018642Y6021611D1*
X3027336Y5994854D1*
X3031737Y5967067D1*
Y5938933D1*
X3027336Y5911146D1*
X3018642Y5884389D1*
X3005870Y5859321D1*
X2989333Y5836560D1*
X2979777Y5825777D1*
X2998049Y5804384D1*
X3012749Y5780396D1*
X3023515Y5754404D1*
X3030083Y5727047D1*
X3032290Y5699000D1*
X3030083Y5670953D1*
X3023515Y5643596D1*
X3012749Y5617604D1*
X2998049Y5593616D1*
X2979777Y5572223D1*
X2989333Y5561440D1*
X3005870Y5538679D1*
X3018642Y5513611D1*
X3027336Y5486854D1*
X3031737Y5459067D1*
Y5430933D1*
X3027336Y5403146D1*
X3018642Y5376389D1*
X3005870Y5351321D1*
X2989333Y5328560D1*
X2979777Y5317777D1*
X2998049Y5296384D1*
X3012749Y5272396D1*
X3023515Y5246404D1*
X3030083Y5219047D1*
X3032290Y5191000D1*
X3030083Y5162953D1*
X3023515Y5135596D1*
X3012749Y5109604D1*
X2998049Y5085616D1*
X2979777Y5064223D1*
X2989333Y5053440D1*
X3005870Y5030679D1*
X3018642Y5005611D1*
X3027336Y4978854D1*
X3031737Y4951067D1*
Y4922933D1*
X3027336Y4895146D1*
X3018642Y4868389D1*
X3005870Y4843321D1*
X2989333Y4820560D1*
X2979777Y4809777D1*
X2998049Y4788384D1*
X3012749Y4764396D1*
X3023515Y4738404D1*
X3030083Y4711047D1*
X3032290Y4683000D1*
X3030083Y4654953D1*
X3023515Y4627596D1*
X3012749Y4601604D1*
X2998049Y4577616D1*
X2979777Y4556223D1*
X2989333Y4545440D1*
X3005870Y4522679D1*
X3018642Y4497611D1*
X3027336Y4470854D1*
X3031737Y4443067D1*
Y4414933D1*
X3027336Y4387146D1*
X3018642Y4360389D1*
X3005870Y4335321D1*
X2989333Y4312560D1*
X2979777Y4301777D1*
X2998049Y4280384D1*
X3012749Y4256396D1*
X3023515Y4230404D1*
X3030083Y4203047D1*
X3032279Y4175275D1*
X3060047Y4173083D1*
X3087404Y4166515D1*
X3113396Y4155749D1*
X3137384Y4141049D1*
X3158777Y4122777D1*
X3169560Y4132333D1*
X3192321Y4148870D1*
X3217389Y4161642D1*
X3244146Y4170336D1*
X3271933Y4174737D1*
X3300067D1*
X3327854Y4170336D1*
X3354611Y4161642D1*
X3379679Y4148870D1*
X3402440Y4132333D1*
X3413223Y4122777D1*
X3434616Y4141049D1*
X3458604Y4155749D1*
X3484596Y4166515D1*
X3511953Y4173083D1*
X3540000Y4175290D1*
X3568047Y4173083D1*
X3595404Y4166515D1*
X3621396Y4155749D1*
X3645384Y4141049D1*
X3666777Y4122777D1*
X3677560Y4132333D1*
X3700321Y4148870D1*
X3725389Y4161642D1*
X3752146Y4170336D1*
X3779933Y4174737D1*
X3808067D1*
X3835854Y4170336D1*
X3862611Y4161642D1*
X3887679Y4148870D1*
X3910440Y4132333D1*
X3921223Y4122777D1*
X3929501Y4130429D1*
X3810187Y4249768D1*
X3307710Y4249710D1*
Y4608290D1*
X3361760D1*
X3361710Y6603284D1*
X3111189Y6853766D1*
X2990289Y6853710D1*
X2576425Y6334036D2*
X2565748Y6345726D1*
X1785178Y6345710D1*
X1775272Y6334101D1*
X1784940Y6322320D1*
X2565658Y6322290D1*
X2576425Y6333964D1*
Y6080036D2*
X2565748Y6091726D1*
X1785085Y6091710D1*
X1775272Y6080101D1*
X1784940Y6068320D1*
X2565638Y6068290D1*
X2576425Y6079964D1*
Y5826036D2*
X2565748Y5837726D1*
X1785065Y5837710D1*
X1775272Y5826101D1*
X1784940Y5814320D1*
X2565690Y5814290D1*
X2576425Y5825964D1*
Y5572036D2*
X2565748Y5583726D1*
X1785148Y5583710D1*
X1775272Y5572101D1*
X1784940Y5560320D1*
X2565690Y5560290D1*
X2576425Y5571964D1*
X4544950Y6906284D2*
X4536970Y6888040D1*
X4527690Y6871853D1*
X4516777Y6856718D1*
X4503559Y6842020D1*
X4522049Y6820384D1*
X4536749Y6796396D1*
X4547515Y6770404D1*
X4554083Y6743047D1*
X4556290Y6715000D1*
X4554083Y6686953D1*
X4547515Y6659596D1*
X4536749Y6633604D1*
X4522049Y6609616D1*
X4503777Y6588223D1*
X4513333Y6577440D1*
X4529870Y6554679D1*
X4542642Y6529611D1*
X4551336Y6502854D1*
X4555737Y6475067D1*
Y6446933D1*
X4551336Y6419146D1*
X4542642Y6392389D1*
X4529870Y6367321D1*
X4513333Y6344560D1*
X4503777Y6333777D1*
X4522049Y6312384D1*
X4536749Y6288396D1*
X4547515Y6262404D1*
X4554083Y6235047D1*
X4556290Y6207000D1*
X4554083Y6178953D1*
X4547515Y6151596D1*
X4536749Y6125604D1*
X4522049Y6101616D1*
X4503777Y6080223D1*
X4513333Y6069440D1*
X4529870Y6046679D1*
X4542642Y6021611D1*
X4551336Y5994854D1*
X4555737Y5967067D1*
Y5938933D1*
X4551336Y5911146D1*
X4542642Y5884389D1*
X4529870Y5859321D1*
X4513333Y5836560D1*
X4503777Y5825777D1*
X4522049Y5804384D1*
X4536749Y5780396D1*
X4547515Y5754404D1*
X4554083Y5727047D1*
X4556290Y5699000D1*
X4554083Y5670953D1*
X4547515Y5643596D1*
X4536749Y5617604D1*
X4522049Y5593616D1*
X4503777Y5572223D1*
X4513333Y5561440D1*
X4529870Y5538679D1*
X4542642Y5513611D1*
X4551336Y5486854D1*
X4555737Y5459067D1*
Y5430933D1*
X4551336Y5403146D1*
X4542642Y5376389D1*
X4529870Y5351321D1*
X4513333Y5328560D1*
X4503777Y5317777D1*
X4522049Y5296384D1*
X4536749Y5272396D1*
X4547515Y5246404D1*
X4554083Y5219047D1*
X4556290Y5191000D1*
X4554083Y5162953D1*
X4547515Y5135596D1*
X4536749Y5109604D1*
X4522049Y5085616D1*
X4503777Y5064223D1*
X4513333Y5053440D1*
X4529870Y5030679D1*
X4542642Y5005611D1*
X4551336Y4978854D1*
X4555737Y4951067D1*
Y4922933D1*
X4551336Y4895146D1*
X4542642Y4868389D1*
X4529870Y4843321D1*
X4513333Y4820560D1*
X4503777Y4809777D1*
X4522049Y4788384D1*
X4536749Y4764396D1*
X4547515Y4738404D1*
X4554083Y4711047D1*
X4556290Y4683000D1*
X4554083Y4654953D1*
X4547515Y4627596D1*
X4536749Y4601604D1*
X4522049Y4577616D1*
X4503777Y4556223D1*
X4513333Y4545440D1*
X4529870Y4522679D1*
X4542642Y4497611D1*
X4551336Y4470854D1*
X4555737Y4443067D1*
Y4414933D1*
X4551336Y4387146D1*
X4542642Y4360389D1*
X4529870Y4335321D1*
X4513333Y4312560D1*
X4503777Y4301777D1*
X4515546Y4288632D1*
X4531637Y4284648D1*
X4548351Y4277724D1*
X4563776Y4268272D1*
X4577533Y4256523D1*
X4589282Y4242766D1*
X4598734Y4227341D1*
X4605658Y4210627D1*
X4608122Y4201879D1*
X4612477Y4200512D1*
X4929135Y4516667D1*
X4943771Y4527301D1*
X4959923Y4535527D1*
X4961711Y4549709D1*
Y4658289D1*
X5419755D1*
X5419709Y4932528D1*
X5406511Y4926516D1*
X5389473Y4920230D1*
X5371994Y4915301D1*
X5354182Y4911758D1*
X5336147Y4909623D1*
X5294667Y4908910D1*
X5064000D1*
X5045853Y4909623D1*
X5027818Y4911758D1*
X5010006Y4915301D1*
X4992527Y4920230D1*
X4975489Y4926516D1*
X4958997Y4934119D1*
X4943151Y4942993D1*
X4928051Y4953082D1*
X4913789Y4964326D1*
X4900453Y4976653D1*
X4888126Y4989989D1*
X4876882Y5004251D1*
X4866793Y5019351D1*
X4857919Y5035197D1*
X4850316Y5051689D1*
X4844030Y5068727D1*
X4839101Y5086206D1*
X4835558Y5104018D1*
X4833423Y5122053D1*
X4832710Y5140200D1*
X4833423Y5158347D1*
X4835558Y5176382D1*
X4839101Y5194194D1*
X4844030Y5211673D1*
X4850316Y5228711D1*
X4857919Y5245203D1*
X4866793Y5261049D1*
X4876882Y5276149D1*
X4888126Y5290411D1*
X4900453Y5303747D1*
X4913789Y5316074D1*
X4928051Y5327318D1*
X4943151Y5337407D1*
X4958997Y5346281D1*
X4975489Y5353884D1*
X4992527Y5360170D1*
X5010006Y5365099D1*
X5027818Y5368642D1*
X5045853Y5370777D1*
X5087333Y5371490D1*
X5318000D1*
X5336147Y5370777D1*
X5354182Y5368642D1*
X5371994Y5365099D1*
X5389473Y5360170D1*
X5406511Y5353884D1*
X5419718Y5347796D1*
X5419709Y5402293D1*
X5389473Y5390130D1*
X5371994Y5385201D1*
X5354182Y5381658D1*
X5336147Y5379523D1*
X5294667Y5378809D1*
X5064000Y5378810D1*
X5045853Y5379523D1*
X5027818Y5381658D1*
X5010006Y5385201D1*
X4992527Y5390130D1*
X4975489Y5396416D1*
X4958997Y5404019D1*
X4943151Y5412893D1*
X4928051Y5422982D1*
X4913789Y5434226D1*
X4900453Y5446553D1*
X4888126Y5459889D1*
X4876882Y5474151D1*
X4869118Y5485771D1*
X4758249Y5486193D1*
X4738986Y5489244D1*
X4720437Y5495271D1*
X4703060Y5504125D1*
X4687281Y5515589D1*
X4625114Y5577215D1*
X4612447Y5592045D1*
X4602257Y5608675D1*
X4594793Y5626693D1*
X4590240Y5645658D1*
X4588710Y5665101D1*
Y6862484D1*
X4545002Y6906216D1*
X2958491Y1984853D2*
X2953348Y1964221D1*
X2945262Y1942347D1*
X2934736Y1921537D1*
X2921907Y1902062D1*
X2906942Y1884176D1*
X2890036Y1868113D1*
X2871410Y1854081D1*
X2851305Y1842263D1*
X2829985Y1832813D1*
X2807727Y1825854D1*
X2784820Y1821478D1*
X2761564Y1819741D1*
X2738262Y1820666D1*
X2715217Y1824240D1*
X2692729Y1830418D1*
X2671092Y1839118D1*
X2650588Y1850227D1*
X2631483Y1863601D1*
X2614027Y1879065D1*
X2598447Y1896418D1*
X2584946Y1915433D1*
X2573701Y1935863D1*
X2564857Y1957442D1*
X2558529Y1979888D1*
X2554802Y2002908D1*
X2553722Y2026204D1*
X2555304Y2049471D1*
X2559528Y2072406D1*
X2566338Y2094710D1*
X2575645Y2116093D1*
X2587329Y2136276D1*
X2601237Y2154995D1*
X2617188Y2172008D1*
X2634973Y2187092D1*
X2654362Y2200050D1*
X2675102Y2210714D1*
X2696921Y2218946D1*
X2719537Y2224636D1*
X2742654Y2227713D1*
X2765971Y2228134D1*
X2789184Y2225896D1*
X2811990Y2221027D1*
X2834093Y2213590D1*
X2855205Y2203682D1*
X2875050Y2191433D1*
X2893369Y2177002D1*
X2909924Y2160577D1*
X2924500Y2142373D1*
X2936906Y2122626D1*
X2946981Y2101594D1*
X2954592Y2079550D1*
X2958491Y2063150D1*
X2964709Y2087129D1*
X2970261Y2102178D1*
X2976976Y2116746D1*
X2984814Y2130741D1*
X2993726Y2144079D1*
X3003657Y2156676D1*
X3014545Y2168455D1*
X3026324Y2179343D1*
X3038921Y2189274D1*
X3052259Y2198186D1*
X3066254Y2206024D1*
X3080822Y2212739D1*
X3095871Y2218291D1*
X3111309Y2222645D1*
X3127042Y2225775D1*
X3142972Y2227660D1*
X3159000Y2228290D1*
X3175028Y2227660D1*
X3190958Y2225775D1*
X3206691Y2222645D1*
X3222129Y2218291D1*
X3237178Y2212739D1*
X3251746Y2206024D1*
X3265741Y2198186D1*
X3279079Y2189274D1*
X3291676Y2179343D1*
X3303455Y2168455D1*
X3314343Y2156676D1*
X3324274Y2144079D1*
X3333186Y2130741D1*
X3341024Y2116746D1*
X3347739Y2102178D1*
X3353291Y2087129D1*
X3357645Y2071691D1*
X3360775Y2055958D1*
X3362660Y2040028D1*
X3363290Y2024000D1*
X3362660Y2007972D1*
X3360775Y1992042D1*
X3357645Y1976309D1*
X3353291Y1960871D1*
X3347739Y1945822D1*
X3341024Y1931254D1*
X3333186Y1917259D1*
X3324274Y1903921D1*
X3314343Y1891324D1*
X3303455Y1879545D1*
X3291676Y1868657D1*
X3279079Y1858726D1*
X3265741Y1849814D1*
X3251746Y1841976D1*
X3237178Y1835261D1*
X3222129Y1829709D1*
X3206691Y1825355D1*
X3190958Y1822225D1*
X3175028Y1820340D1*
X3159000Y1819710D1*
X3142972Y1820340D1*
X3127042Y1822225D1*
X3111309Y1825355D1*
X3095871Y1829709D1*
X3080822Y1835261D1*
X3066254Y1841976D1*
X3052259Y1849814D1*
X3038921Y1858726D1*
X3026324Y1868657D1*
X3014545Y1879545D1*
X3003657Y1891324D1*
X2993726Y1903921D1*
X2984814Y1917259D1*
X2976976Y1931254D1*
X2970261Y1945822D1*
X2964709Y1960871D1*
X2958582Y1985220D1*
X4609491Y1984853D2*
X4604348Y1964221D1*
X4596262Y1942347D1*
X4585736Y1921537D1*
X4572907Y1902062D1*
X4557942Y1884176D1*
X4541036Y1868113D1*
X4522410Y1854081D1*
X4502305Y1842263D1*
X4480985Y1832813D1*
X4458727Y1825854D1*
X4435820Y1821478D1*
X4412564Y1819741D1*
X4389262Y1820666D1*
X4366217Y1824240D1*
X4343729Y1830418D1*
X4322092Y1839118D1*
X4301588Y1850227D1*
X4282483Y1863601D1*
X4265027Y1879065D1*
X4249447Y1896418D1*
X4235946Y1915433D1*
X4224701Y1935863D1*
X4215857Y1957442D1*
X4209529Y1979888D1*
X4205802Y2002908D1*
X4204722Y2026204D1*
X4206304Y2049471D1*
X4210528Y2072406D1*
X4217338Y2094710D1*
X4226645Y2116093D1*
X4238329Y2136276D1*
X4252237Y2154995D1*
X4268188Y2172008D1*
X4285973Y2187092D1*
X4305362Y2200050D1*
X4326102Y2210714D1*
X4347921Y2218946D1*
X4370537Y2224636D1*
X4393654Y2227713D1*
X4416971Y2228134D1*
X4440184Y2225896D1*
X4462990Y2221027D1*
X4485093Y2213590D1*
X4506205Y2203682D1*
X4526050Y2191433D1*
X4544369Y2177002D1*
X4560924Y2160577D1*
X4575500Y2142373D1*
X4587906Y2122626D1*
X4597981Y2101594D1*
X4605592Y2079550D1*
X4609491Y2063150D1*
X4615709Y2087129D1*
X4621261Y2102178D1*
X4627976Y2116746D1*
X4635814Y2130741D1*
X4644726Y2144079D1*
X4654657Y2156676D1*
X4665545Y2168455D1*
X4677324Y2179343D1*
X4689921Y2189274D1*
X4703259Y2198186D1*
X4717254Y2206024D1*
X4731822Y2212739D1*
X4746871Y2218291D1*
X4762309Y2222645D1*
X4778042Y2225775D1*
X4793972Y2227660D1*
X4810000Y2228290D1*
X4826028Y2227660D1*
X4841958Y2225775D1*
X4857691Y2222645D1*
X4873129Y2218291D1*
X4888178Y2212739D1*
X4902746Y2206024D1*
X4916741Y2198186D1*
X4930079Y2189274D1*
X4942676Y2179343D1*
X4954455Y2168455D1*
X4965343Y2156676D1*
X4975274Y2144079D1*
X4984186Y2130741D1*
X4992024Y2116746D1*
X4998739Y2102178D1*
X5004291Y2087129D1*
X5008645Y2071691D1*
X5011775Y2055958D1*
X5013660Y2040028D1*
X5014290Y2024000D1*
X5013660Y2007972D1*
X5011775Y1992042D1*
X5008645Y1976309D1*
X5004291Y1960871D1*
X4998739Y1945822D1*
X4992024Y1931254D1*
X4984186Y1917259D1*
X4975274Y1903921D1*
X4965343Y1891324D1*
X4954455Y1879545D1*
X4942676Y1868657D1*
X4930079Y1858726D1*
X4916741Y1849814D1*
X4902746Y1841976D1*
X4888178Y1835261D1*
X4873129Y1829709D1*
X4857691Y1825355D1*
X4841958Y1822225D1*
X4826028Y1820340D1*
X4810000Y1819710D1*
X4793972Y1820340D1*
X4778042Y1822225D1*
X4762309Y1825355D1*
X4746871Y1829709D1*
X4731822Y1835261D1*
X4717254Y1841976D1*
X4703259Y1849814D1*
X4689921Y1858726D1*
X4677324Y1868657D1*
X4665545Y1879545D1*
X4654657Y1891324D1*
X4644726Y1903921D1*
X4635814Y1917259D1*
X4627976Y1931254D1*
X4621261Y1945822D1*
X4615709Y1960871D1*
X4609582Y1985220D1*
X6263660Y2507972D2*
X6261775Y2492042D1*
X6258645Y2476309D1*
X6254291Y2460871D1*
X6248739Y2445822D1*
X6242024Y2431254D1*
X6234186Y2417259D1*
X6225274Y2403921D1*
X6215343Y2391324D1*
X6204455Y2379545D1*
X6192676Y2368657D1*
X6180079Y2358726D1*
X6166741Y2349814D1*
X6152746Y2341976D1*
X6138178Y2335261D1*
X6123129Y2329709D1*
X6107691Y2325355D1*
X6091958Y2322225D1*
X6076028Y2320340D1*
X6060000Y2319710D1*
X6043972Y2320340D1*
X6028042Y2322225D1*
X6012309Y2325355D1*
X5996871Y2329709D1*
X5981822Y2335261D1*
X5967254Y2341976D1*
X5953259Y2349814D1*
X5939921Y2358726D1*
X5927324Y2368657D1*
X5915545Y2379545D1*
X5904657Y2391324D1*
X5894726Y2403921D1*
X5885814Y2417259D1*
X5877976Y2431254D1*
X5871261Y2445822D1*
X5865709Y2460871D1*
X5861355Y2476309D1*
X5858225Y2492042D1*
X5856340Y2507972D1*
X5855710Y2524000D1*
X5856340Y2540028D1*
X5858225Y2555958D1*
X5861355Y2571691D1*
X5865709Y2587129D1*
X5871261Y2602178D1*
X5877976Y2616746D1*
X5885814Y2630741D1*
X5894726Y2644079D1*
X5904657Y2656676D1*
X5915545Y2668455D1*
X5927324Y2679343D1*
X5939921Y2689274D1*
X5953259Y2698186D1*
X5967254Y2706024D1*
X5981822Y2712739D1*
X5996871Y2718291D1*
X6012309Y2722645D1*
X6028042Y2725775D1*
X6043972Y2727660D1*
X6060000Y2728290D1*
X6076028Y2727660D1*
X6091958Y2725775D1*
X6107691Y2722645D1*
X6123129Y2718291D1*
X6138178Y2712739D1*
X6152746Y2706024D1*
X6166741Y2698186D1*
X6180079Y2689274D1*
X6192676Y2679343D1*
X6204455Y2668455D1*
X6215343Y2656676D1*
X6225274Y2644079D1*
X6234186Y2630741D1*
X6242024Y2616746D1*
X6248739Y2602178D1*
X6254291Y2587129D1*
X6258645Y2571691D1*
X6261775Y2555958D1*
X6263660Y2540028D1*
X6264290Y2524000D1*
X6263660Y2507972D1*
X6264237Y2019334D2*
X6262374Y1996088D1*
X6257874Y1973205D1*
X6250796Y1950985D1*
X6241232Y1929716D1*
X6229305Y1909675D1*
X6215173Y1891125D1*
X6199018Y1874306D1*
X6181052Y1859437D1*
X6161508Y1846713D1*
X6140642Y1836300D1*
X6118724Y1828332D1*
X6096042Y1822914D1*
X6072889Y1820117D1*
X6049569Y1819976D1*
X6026385Y1822495D1*
X6003639Y1827639D1*
X5981627Y1835341D1*
X5960636Y1845503D1*
X5940941Y1857990D1*
X5922797Y1872641D1*
X5906440Y1889264D1*
X5892085Y1907643D1*
X5879918Y1927538D1*
X5870098Y1948690D1*
X5862752Y1970824D1*
X5857977Y1993650D1*
X5855834Y2016872D1*
X5856352Y2040187D1*
X5859524Y2063291D1*
X5865308Y2085883D1*
X5873629Y2107668D1*
X5884379Y2128364D1*
X5897418Y2147699D1*
X5912575Y2165422D1*
X5929653Y2181303D1*
X5948430Y2195133D1*
X5968661Y2206734D1*
X5990082Y2215953D1*
X6012414Y2222670D1*
X6035366Y2226799D1*
X6058639Y2228285D1*
X6081930Y2227109D1*
X6104936Y2223287D1*
X6127355Y2216867D1*
X6148897Y2207934D1*
X6169281Y2196604D1*
X6188240Y2183025D1*
X6205528Y2167373D1*
X6220920Y2149854D1*
X6234215Y2130694D1*
X6245240Y2110144D1*
X6253850Y2088471D1*
X6259935Y2065958D1*
X6263414Y2042898D1*
X6264237Y2019334D1*
X5628691Y2708756D2*
X5626898Y2693606D1*
X5623922Y2678644D1*
X5619781Y2663961D1*
X5614501Y2649648D1*
X5608114Y2635794D1*
X5600659Y2622484D1*
X5592184Y2609799D1*
X5582739Y2597819D1*
X5572384Y2586616D1*
X5561181Y2576261D1*
X5549201Y2566816D1*
X5536516Y2558341D1*
X5523206Y2550886D1*
X5509352Y2544499D1*
X5495039Y2539219D1*
X5480356Y2535078D1*
X5465394Y2532102D1*
X5450244Y2530309D1*
X5435000Y2529710D1*
X5419756Y2530309D1*
X5404606Y2532102D1*
X5389644Y2535078D1*
X5374961Y2539219D1*
X5360648Y2544499D1*
X5346794Y2550886D1*
X5333484Y2558341D1*
X5320799Y2566816D1*
X5308819Y2576261D1*
X5297616Y2586616D1*
X5287261Y2597819D1*
X5277816Y2609799D1*
X5269341Y2622484D1*
X5261886Y2635794D1*
X5255499Y2649648D1*
X5250219Y2663961D1*
X5246078Y2678644D1*
X5243102Y2693606D1*
X5241309Y2708756D1*
X5240710Y2724000D1*
X5241309Y2739244D1*
X5243102Y2754394D1*
X5246078Y2769356D1*
X5250219Y2784039D1*
X5255499Y2798352D1*
X5261886Y2812206D1*
X5269341Y2825516D1*
X5277816Y2838201D1*
X5287261Y2850181D1*
X5297616Y2861384D1*
X5308819Y2871739D1*
X5320799Y2881184D1*
X5333484Y2889659D1*
X5346794Y2897114D1*
X5360648Y2903501D1*
X5374961Y2908781D1*
X5389644Y2912922D1*
X5404606Y2915898D1*
X5419756Y2917691D1*
X5435000Y2918290D1*
X5450244Y2917691D1*
X5465394Y2915898D1*
X5480356Y2912922D1*
X5495039Y2908781D1*
X5509352Y2903501D1*
X5523206Y2897114D1*
X5536516Y2889659D1*
X5549201Y2881184D1*
X5561181Y2871739D1*
X5572384Y2861384D1*
X5582739Y2850181D1*
X5592184Y2838201D1*
X5600659Y2825516D1*
X5608114Y2812206D1*
X5614501Y2798352D1*
X5619781Y2784039D1*
X5623922Y2769356D1*
X5626898Y2754394D1*
X5628691Y2739244D1*
X5629290Y2724000D1*
X5628691Y2708756D1*
X5420243Y3408334D2*
X5418582Y3385070D1*
X5414568Y3362094D1*
X5408240Y3339646D1*
X5399664Y3317957D1*
X5388929Y3297251D1*
X5376146Y3277742D1*
X5361448Y3259633D1*
X5344986Y3243111D1*
X5326931Y3228347D1*
X5307469Y3215493D1*
X5286802Y3204683D1*
X5265144Y3196029D1*
X5242719Y3189619D1*
X5219759Y3185521D1*
X5196501Y3183776D1*
X5173186Y3184403D1*
X5150055Y3187395D1*
X5127348Y3192722D1*
X5105300Y3200328D1*
X5084139Y3210134D1*
X5064083Y3222039D1*
X5045340Y3235921D1*
X5028105Y3251634D1*
X5012554Y3269017D1*
X4998851Y3287890D1*
X4987135Y3308057D1*
X4977529Y3329310D1*
X4970131Y3351429D1*
X4965019Y3374185D1*
X4962245Y3397343D1*
X4961838Y3420663D1*
X4963802Y3443903D1*
X4968117Y3466824D1*
X4974738Y3489188D1*
X4983596Y3510763D1*
X4994601Y3531327D1*
X5007638Y3550667D1*
X5022571Y3568582D1*
X5039248Y3584887D1*
X5057495Y3599414D1*
X5077123Y3612012D1*
X5097929Y3622551D1*
X5119699Y3630922D1*
X5142206Y3637038D1*
X5165218Y3640836D1*
X5188496Y3642276D1*
X5211801Y3641345D1*
X5234890Y3638050D1*
X5257526Y3632427D1*
X5279473Y3624534D1*
X5300504Y3614452D1*
X5320403Y3602285D1*
X5338962Y3588160D1*
X5355991Y3572223D1*
X5371313Y3554638D1*
X5384768Y3535588D1*
X5396219Y3515269D1*
X5405547Y3493892D1*
X5412655Y3471678D1*
X5417469Y3448857D1*
X5419940Y3425665D1*
X5420243Y3408334D1*
X1581214Y7281868D2*
X1578610Y7259872D1*
X1574289Y7238149D1*
X1568277Y7216831D1*
X1560611Y7196051D1*
X1551338Y7175937D1*
X1540516Y7156612D1*
X1528210Y7138196D1*
X1514498Y7120802D1*
X1499463Y7104537D1*
X1483198Y7089502D1*
X1465804Y7075790D1*
X1447388Y7063484D1*
X1428063Y7052662D1*
X1407949Y7043389D1*
X1387169Y7035723D1*
X1365851Y7029711D1*
X1344128Y7025390D1*
X1322132Y7022786D1*
X1300000Y7021917D1*
X1277868Y7022786D1*
X1255872Y7025390D1*
X1234149Y7029711D1*
X1212831Y7035723D1*
X1192051Y7043389D1*
X1171937Y7052662D1*
X1152612Y7063484D1*
X1134196Y7075790D1*
X1116802Y7089502D1*
X1097777Y7107523D1*
X1097750Y1500591D1*
X1116802Y1518498D1*
X1134196Y1532210D1*
X1152612Y1544516D1*
X1171937Y1555338D1*
X1192051Y1564611D1*
X1212831Y1572277D1*
X1234149Y1578289D1*
X1255872Y1582610D1*
X1277868Y1585214D1*
X1300000Y1586083D1*
X1322132Y1585214D1*
X1344128Y1582610D1*
X1365851Y1578289D1*
X1387169Y1572277D1*
X1407949Y1564611D1*
X1428063Y1555338D1*
X1447388Y1544516D1*
X1465804Y1532210D1*
X1483198Y1518498D1*
X1499463Y1503463D1*
X1514498Y1487198D1*
X1528210Y1469804D1*
X1540516Y1451388D1*
X1551338Y1432063D1*
X1560611Y1411949D1*
X1568277Y1391169D1*
X1574289Y1369851D1*
X1578610Y1348128D1*
X1581214Y1326132D1*
X1582083Y1304000D1*
X1581214Y1281868D1*
X1578610Y1259872D1*
X1574289Y1238149D1*
X1568277Y1216831D1*
X1560611Y1196051D1*
X1551338Y1175937D1*
X1540516Y1156612D1*
X1528210Y1138196D1*
X1514498Y1120802D1*
X1492538Y1098135D1*
X6003801Y1101389D1*
X5985502Y1120802D1*
X5971790Y1138196D1*
X5959484Y1156612D1*
X5948662Y1175937D1*
X5939389Y1196051D1*
X5931723Y1216831D1*
X5925711Y1238149D1*
X5921390Y1259872D1*
X5918786Y1281868D1*
X5917917Y1304000D1*
X5918786Y1326132D1*
X5921390Y1348128D1*
X5925711Y1369851D1*
X5931723Y1391169D1*
X5939389Y1411949D1*
X5948662Y1432063D1*
X5959484Y1451388D1*
X5971790Y1469804D1*
X5985502Y1487198D1*
X6000537Y1503463D1*
X6016802Y1518498D1*
X6034196Y1532210D1*
X6052612Y1544516D1*
X6071937Y1555338D1*
X6092051Y1564611D1*
X6112831Y1572277D1*
X6134149Y1578289D1*
X6155872Y1582610D1*
X6177868Y1585214D1*
X6200000Y1586083D1*
X6222132Y1585214D1*
X6244128Y1582610D1*
X6265851Y1578289D1*
X6287169Y1572277D1*
X6307949Y1564611D1*
X6328063Y1555338D1*
X6347388Y1544516D1*
X6365804Y1532210D1*
X6383198Y1518498D1*
X6402223Y1500477D1*
X6402250Y7107361D1*
X6383198Y7089502D1*
X6365804Y7075790D1*
X6347388Y7063484D1*
X6328063Y7052662D1*
X6307949Y7043389D1*
X6287169Y7035723D1*
X6265851Y7029711D1*
X6244128Y7025390D1*
X6222132Y7022786D1*
X6200000Y7021917D1*
X6177868Y7022786D1*
X6155872Y7025390D1*
X6134149Y7029711D1*
X6112831Y7035723D1*
X6092051Y7043389D1*
X6071937Y7052662D1*
X6052612Y7063484D1*
X6034196Y7075790D1*
X6016802Y7089502D1*
X6000537Y7104537D1*
X5985502Y7120802D1*
X5971790Y7138196D1*
X5959484Y7156612D1*
X5948662Y7175937D1*
X5939389Y7196051D1*
X5931723Y7216831D1*
X5925711Y7238149D1*
X5921390Y7259872D1*
X5918786Y7281868D1*
X5917917Y7304000D1*
X5918786Y7326132D1*
X5921390Y7348128D1*
X5925711Y7369851D1*
X5931723Y7391169D1*
X5939389Y7411949D1*
X5948662Y7432063D1*
X5959484Y7451388D1*
X5971790Y7469804D1*
X5985502Y7487198D1*
X6003523Y7506223D1*
X1496721Y7506250D1*
X1514498Y7487198D1*
X1528210Y7469804D1*
X1540516Y7451388D1*
X1551338Y7432063D1*
X1560611Y7411949D1*
X1568277Y7391169D1*
X1574289Y7369851D1*
X1578610Y7348128D1*
X1581214Y7326132D1*
X1582083Y7304000D1*
X1581214Y7281868D1*
X4047801Y6969000D2*
D16*
X4302000D1*
X2758000Y2228199D2*
Y1819801D1*
X2553801Y2024000D2*
X2758000D1*
X4409000Y2228199D2*
Y1819801D1*
X4204801Y2024000D2*
X4409000D1*
X6060000Y2228199D2*
Y1819801D1*
X5855801Y2024000D2*
X6264199D1*
X4937000Y7198199D2*
Y6739801D1*
Y6969000D2*
X5166199D1*
X5191000Y3642199D2*
Y3183801D1*
X4961801Y3413000D2*
X5420199D1*
D17*
X2778000Y7223000D3*
Y6969000D3*
Y6715000D3*
Y6461000D3*
Y6207000D3*
Y5953000D3*
Y5699000D3*
Y5445000D3*
Y5191000D3*
Y4937000D3*
Y4683000D3*
Y4429000D3*
Y4175000D3*
Y3921000D3*
X4302000Y7223000D3*
Y6969000D3*
Y6715000D3*
Y6461000D3*
Y6207000D3*
Y5953000D3*
Y5699000D3*
Y5445000D3*
Y5191000D3*
Y4937000D3*
Y4683000D3*
Y4429000D3*
Y4175000D3*
Y3921000D3*
D21*
X3032000D3*
X3286000D3*
X3540000D3*
X3794000D3*
X4048000D3*
D22*
X1508000Y2524000D3*
D26*
X2758000D3*
X1508000Y2024000D3*
X2758000D3*
D22*
X3159000Y2524000D3*
D26*
X4409000D3*
X3159000Y2024000D3*
X4409000D3*
D22*
X4810000Y2524000D3*
D26*
X6060000D3*
X4810000Y2024000D3*
X6060000D3*
D27*
X5445000Y6969000D3*
D31*
X4937000D3*
D27*
X5191000Y4429000D3*
D31*
Y3921000D3*
Y3413000D3*
D32*
X2143000Y1381000D3*
X3794000D3*
X5445000D3*
D36*
X1635000Y6715000D3*
D38*
Y6461000D3*
Y6207000D3*
Y5953000D3*
Y5699000D3*
Y5445000D3*
D39*
X5191000Y6080000D3*
Y5610100D3*
Y5140200D3*
D43*
X3667000Y4429000D3*
X3477000D3*
M02*
