%TF.GenerationSoftware,Novarm,DipTrace,3.3.1.3*%
%TF.CreationDate,2019-11-14T11:02:37+00:00*%
%FSLAX35Y35*%
%MOMM*%
%TF.FileFunction,Copper,L2,Bot*%
%TF.Part,Single*%
%TA.AperFunction,Conductor*%
%ADD13C,0.4*%
%ADD14C,0.22*%
%ADD15C,0.5*%
%TA.AperFunction,CopperBalancing*%
%ADD16C,0.635*%
%ADD17C,0.33*%
%TA.AperFunction,ComponentPad*%
%ADD18O,3.0X1.5*%
%ADD22O,1.5X3.0*%
%ADD23R,2.0X2.0*%
%ADD27C,2.0*%
%ADD28R,2.5X2.5*%
%ADD32C,2.5*%
%ADD33C,1.524*%
%ADD37R,1.7X1.7*%
%ADD39C,1.7*%
%ADD40O,5.08X2.54*%
%ADD44R,1.3X1.5*%
%TA.AperFunction,ComponentPad*%
%ADD46C,2.4*%
G75*
G01*
%LPD*%
X5953000Y5614000D2*
D13*
X5889500Y5677500D1*
X6016500D1*
X6270500Y5931500D1*
Y7076100D1*
X5572000D1*
X3667000Y7582500D2*
D14*
X4302000D1*
Y6312500D1*
X4429000Y6185500D1*
X4681400D1*
X5572000Y7076100D1*
X3667000Y4280500D2*
Y4534500D1*
X3825750D1*
X3921000Y4629750D1*
Y5042500D1*
X4175000Y5296500D1*
X5191000D1*
X5953000Y6058500D1*
Y6122000D1*
X3667000Y4534500D2*
D3*
X3032000Y5169500D2*
Y4915500D1*
X3413000Y4534500D1*
X3667000D1*
X2143000Y7328500D2*
X1889000D1*
X1635000Y7074500D1*
X2143000Y7328500D2*
X2778000D1*
X2842000Y7264500D1*
Y5169500D1*
X2143000Y6820500D2*
X1861650D1*
X1635000D1*
X2143000Y6566500D2*
X1889000D1*
X1635000D1*
X2143000Y6312500D2*
X1950130D1*
X1635000D1*
X2143000Y6058500D2*
X1635000D1*
X2143000Y5804500D2*
X1635000D1*
X4556000Y6503000D2*
D15*
Y6530000D1*
X5572000Y7546000D1*
X2905000Y4280500D2*
D14*
Y4026500D1*
X4111500Y2820000D1*
Y2121500D1*
X5064000Y3436500D2*
Y3836000D1*
X4111500D1*
X3984500Y3963000D1*
X3286000D1*
X3159000Y4090000D1*
Y4280500D1*
X4111500Y4788500D2*
X4365500D1*
Y4090000D1*
X3476500D1*
X3413000Y4153500D1*
Y4280500D1*
X2143000Y5042500D2*
X1508000D1*
X1381000Y4915500D1*
Y3436500D1*
X3101500D2*
Y3449000D1*
X2587500Y3963000D1*
X2016000D1*
X1825500Y4153500D1*
Y4598000D1*
X2016000Y4788500D1*
X2143000D1*
X2270000Y2058000D2*
Y3075500D1*
X2631000Y3436500D1*
X4351500D2*
X4367750Y3452750D1*
X4524250Y3296250D1*
Y2121500D1*
X4333750Y1931000D1*
X3856920D1*
X3412420Y2375500D1*
X2721300D1*
X2524000Y2178200D1*
Y2058000D1*
X5361500Y2121500D2*
X5202750Y1962750D1*
X4556000D1*
X4397250Y1804000D1*
X3660200D1*
X3406200Y2058000D1*
X3286000D1*
X3032000D2*
X2911800Y2178200D1*
X2699200D1*
X2644200Y2123200D1*
Y1884000D1*
X3295700Y1232500D1*
X5445000D1*
X6016500Y1804000D1*
Y3139000D1*
X6314000Y3436500D1*
X2778000Y2058000D2*
X3444750Y1391250D1*
X4302000D1*
X4714750Y1804000D1*
X5370500D1*
X5505500Y1939000D1*
Y4644500D1*
X5361500Y4788500D1*
X1551763Y7739083D2*
D16*
X1974284D1*
X2311646D2*
X3498334D1*
X3835695D2*
X5311315D1*
X5832700D2*
X6148216D1*
X1578013Y7675917D2*
X1908659D1*
X2377362D2*
X3432617D1*
X4375916D2*
X5247331D1*
X5896685D2*
X6121966D1*
X1588130Y7612750D2*
X1884961D1*
X2401060D2*
X3408920D1*
X4419575D2*
X5217162D1*
X5926763D2*
X6111849D1*
X1583846Y7549583D2*
X1885417D1*
X2400604D2*
X3409375D1*
X4423677D2*
X5207409D1*
X5936607D2*
X6116133D1*
X1564523Y7486417D2*
X1910300D1*
X2375721D2*
X3434258D1*
X4423677D2*
X5215157D1*
X5928859D2*
X6135456D1*
X1526151Y7423250D2*
X1816966D1*
X2850044D2*
X3433438D1*
X3900591D2*
X4180378D1*
X4423677D2*
X5242591D1*
X5901424D2*
X6173828D1*
X1104146Y7360083D2*
X1145313D1*
X1454692D2*
X1751159D1*
X2915851D2*
X3409193D1*
X3924836D2*
X4180378D1*
X4423677D2*
X5196927D1*
X5842909D2*
X6245287D1*
X6554666D2*
X6595925D1*
X1104146Y7296917D2*
X1687995D1*
X2958963D2*
X3409193D1*
X3924836D2*
X4180378D1*
X4703950D2*
X5133763D1*
X5774185D2*
X6595925D1*
X1104146Y7233750D2*
X1439349D1*
X2963612D2*
X3433438D1*
X3900591D2*
X4180378D1*
X4757362D2*
X5070599D1*
X5874627D2*
X6595925D1*
X1104146Y7170583D2*
X1439349D1*
X2375721D2*
X2720404D1*
X2963612D2*
X3434258D1*
X3899679D2*
X4180378D1*
X4781515D2*
X5007344D1*
X6357609D2*
X6595925D1*
X1104146Y7107417D2*
X1439349D1*
X1837323D2*
X1885417D1*
X2400604D2*
X2720404D1*
X2963612D2*
X3409375D1*
X3924562D2*
X4180378D1*
X4786073D2*
X4944180D1*
X6397166D2*
X6595925D1*
X1104146Y7044250D2*
X1439349D1*
X1830669D2*
X1884961D1*
X2401060D2*
X2720404D1*
X2963612D2*
X3408920D1*
X3925109D2*
X4180378D1*
X4772401D2*
X4881016D1*
X6401177D2*
X6595925D1*
X1104146Y6981083D2*
X1439349D1*
X1830669D2*
X1908659D1*
X2377362D2*
X2720404D1*
X2963612D2*
X3432617D1*
X4736034D2*
X4817852D1*
X5196320D2*
X5227735D1*
X6401177D2*
X6595925D1*
X1104146Y6917917D2*
X1439349D1*
X2374901D2*
X2720404D1*
X2963612D2*
X3435170D1*
X4423677D2*
X4458828D1*
X4653182D2*
X4754688D1*
X5133156D2*
X5244414D1*
X5874080D2*
X6139831D1*
X6401177D2*
X6595925D1*
X1104146Y6854750D2*
X1442448D1*
X2400330D2*
X2720404D1*
X2963612D2*
X3409649D1*
X4423677D2*
X4691524D1*
X5069901D2*
X5181250D1*
X5772453D2*
X6139831D1*
X6401177D2*
X6595925D1*
X1104146Y6791583D2*
X1441537D1*
X2401333D2*
X2720404D1*
X2963612D2*
X3408737D1*
X4423677D2*
X4628360D1*
X5006737D2*
X5118086D1*
X5843638D2*
X6139831D1*
X6401177D2*
X6595925D1*
X1104146Y6728417D2*
X1463229D1*
X2378182D2*
X2720404D1*
X2963612D2*
X3431797D1*
X4423677D2*
X4565196D1*
X4943573D2*
X5054922D1*
X5901698D2*
X6139831D1*
X6401177D2*
X6595925D1*
X1104146Y6665250D2*
X1467149D1*
X2373989D2*
X2720404D1*
X2963612D2*
X3435990D1*
X4880409D2*
X4991758D1*
X5928950D2*
X6139831D1*
X6401177D2*
X6595925D1*
X1104146Y6602083D2*
X1442722D1*
X2400057D2*
X2720404D1*
X2963612D2*
X3409922D1*
X3924107D2*
X3973386D1*
X4138664D2*
X4180378D1*
X4817245D2*
X4928594D1*
X5936607D2*
X6139831D1*
X6401177D2*
X6595925D1*
X1104146Y6538917D2*
X1441354D1*
X2401515D2*
X2720404D1*
X2963612D2*
X3408464D1*
X3925474D2*
X4180378D1*
X4783703D2*
X4865430D1*
X5926672D2*
X6139831D1*
X6401177D2*
X6595925D1*
X1104146Y6475750D2*
X1462500D1*
X2379002D2*
X2720404D1*
X2963612D2*
X3431068D1*
X3902961D2*
X4180378D1*
X5141086D2*
X5247696D1*
X5896320D2*
X6139831D1*
X6401177D2*
X6595925D1*
X1104146Y6412583D2*
X1467969D1*
X2373078D2*
X2720404D1*
X2963612D2*
X3436901D1*
X3897127D2*
X4180378D1*
X5077922D2*
X5312136D1*
X5831880D2*
X6139831D1*
X6401177D2*
X6595925D1*
X1104146Y6349417D2*
X1442995D1*
X2399784D2*
X2720404D1*
X2963612D2*
X3410196D1*
X3923833D2*
X4180378D1*
X5014666D2*
X5717370D1*
X6401177D2*
X6595925D1*
X1104146Y6286250D2*
X1441172D1*
X2401698D2*
X2720404D1*
X2963612D2*
X3408282D1*
X3925747D2*
X4183386D1*
X4951502D2*
X5717370D1*
X6401177D2*
X6595925D1*
X1104146Y6223083D2*
X1461771D1*
X2379732D2*
X2720404D1*
X2963612D2*
X3430248D1*
X3903781D2*
X4222032D1*
X4888338D2*
X5717370D1*
X6401177D2*
X6595925D1*
X1104146Y6159917D2*
X1468789D1*
X2372166D2*
X2720404D1*
X2963612D2*
X3437813D1*
X3896216D2*
X4285196D1*
X4825174D2*
X5717370D1*
X6401177D2*
X6595925D1*
X1104146Y6096750D2*
X1443268D1*
X2399510D2*
X2720404D1*
X2963612D2*
X3410469D1*
X3923468D2*
X4349089D1*
X4761372D2*
X5717370D1*
X6401177D2*
X6595925D1*
X1104146Y6033583D2*
X1440990D1*
X2401880D2*
X2720404D1*
X2963612D2*
X3408099D1*
X3925929D2*
X5717370D1*
X6401177D2*
X6595925D1*
X1104146Y5970417D2*
X1461133D1*
X2380552D2*
X2720404D1*
X2963612D2*
X3429518D1*
X3904510D2*
X5695495D1*
X6401177D2*
X6595925D1*
X1104146Y5907250D2*
X1469701D1*
X2371255D2*
X2720404D1*
X2963612D2*
X3438724D1*
X3895304D2*
X5632331D1*
X6398716D2*
X6595925D1*
X1104146Y5844083D2*
X1443542D1*
X2399237D2*
X2720404D1*
X2963612D2*
X3410742D1*
X3923195D2*
X5569167D1*
X5907987D2*
X6000925D1*
X6365174D2*
X6595925D1*
X1104146Y5780917D2*
X1440808D1*
X2402062D2*
X2720404D1*
X2963612D2*
X3407917D1*
X3926112D2*
X5506003D1*
X6302010D2*
X6595925D1*
X1104146Y5717750D2*
X1460404D1*
X2381281D2*
X2720404D1*
X2963612D2*
X3428789D1*
X3905239D2*
X5442839D1*
X6238846D2*
X6595925D1*
X1104146Y5654583D2*
X1513086D1*
X1756932D2*
X1915677D1*
X2370343D2*
X2720404D1*
X2963612D2*
X3439636D1*
X3894302D2*
X5379675D1*
X6184979D2*
X6595925D1*
X1104146Y5591417D2*
X1887058D1*
X2398872D2*
X2720404D1*
X2963612D2*
X3411107D1*
X3922922D2*
X5316511D1*
X5655330D2*
X5718464D1*
X6187531D2*
X6595925D1*
X1104146Y5528250D2*
X1883776D1*
X2402245D2*
X2720404D1*
X2963612D2*
X3407735D1*
X3926294D2*
X5253347D1*
X5592166D2*
X5733959D1*
X6172036D2*
X6595925D1*
X1104146Y5465083D2*
X1904011D1*
X2382010D2*
X2720404D1*
X2963612D2*
X3428060D1*
X3905968D2*
X5190183D1*
X5529002D2*
X5772331D1*
X6133664D2*
X6595925D1*
X1104146Y5401917D2*
X1916589D1*
X2369341D2*
X2720404D1*
X2963612D2*
X3440638D1*
X3893390D2*
X4121953D1*
X5465838D2*
X5859466D1*
X6046528D2*
X6595925D1*
X1104146Y5338750D2*
X1887422D1*
X2398599D2*
X2666354D1*
X3207609D2*
X3411380D1*
X3922557D2*
X4047852D1*
X5402674D2*
X6595925D1*
X1104146Y5275583D2*
X1883594D1*
X2402427D2*
X2666354D1*
X3207609D2*
X3407552D1*
X3926385D2*
X3984688D1*
X5339510D2*
X5792292D1*
X6113703D2*
X6595925D1*
X1104146Y5212417D2*
X1903282D1*
X2382739D2*
X2666354D1*
X3207609D2*
X3427331D1*
X5276255D2*
X5743529D1*
X6162466D2*
X6595925D1*
X1104146Y5149250D2*
X1458125D1*
X2368429D2*
X2666354D1*
X3207609D2*
X3441641D1*
X4197179D2*
X4621068D1*
X4851971D2*
X5721472D1*
X6184523D2*
X6595925D1*
X1104146Y5086083D2*
X1382201D1*
X2398234D2*
X2666354D1*
X3207609D2*
X3411745D1*
X4134015D2*
X4562188D1*
X4910851D2*
X5718190D1*
X6187804D2*
X6595925D1*
X1104146Y5022917D2*
X1319037D1*
X2402609D2*
X2666354D1*
X3207609D2*
X3407461D1*
X4070851D2*
X4538946D1*
X4934093D2*
X5732956D1*
X6173039D2*
X6595925D1*
X1104146Y4959750D2*
X1268177D1*
X2383377D2*
X2910352D1*
X3157114D2*
X3426602D1*
X4322140D2*
X4538034D1*
X4935005D2*
X5243776D1*
X5479237D2*
X5770052D1*
X6135942D2*
X6595925D1*
X1104146Y4896583D2*
X1259336D1*
X1531437D2*
X1918594D1*
X2367427D2*
X2911901D1*
X3220278D2*
X3442643D1*
X4412010D2*
X4558998D1*
X4914041D2*
X5181797D1*
X5541216D2*
X5853268D1*
X6052726D2*
X6595925D1*
X1104146Y4833417D2*
X1259336D1*
X1502635D2*
X1888060D1*
X2397961D2*
X2944714D1*
X3283442D2*
X3412110D1*
X4478000D2*
X4613138D1*
X4859901D2*
X5155821D1*
X5567101D2*
X6595925D1*
X1104146Y4770250D2*
X1259336D1*
X1502635D2*
X1828360D1*
X2402700D2*
X3007878D1*
X3346607D2*
X3407279D1*
X4487114D2*
X5151719D1*
X5571294D2*
X6595925D1*
X1104146Y4707083D2*
X1259336D1*
X1502635D2*
X1765196D1*
X2384107D2*
X3071042D1*
X4487114D2*
X5167761D1*
X5608664D2*
X6595925D1*
X1104146Y4643917D2*
X1259336D1*
X1502635D2*
X1713425D1*
X2366424D2*
X3134206D1*
X4487114D2*
X5210782D1*
X5627166D2*
X6595925D1*
X1104146Y4580750D2*
X1259336D1*
X1502635D2*
X1703854D1*
X2397596D2*
X3197370D1*
X4031750D2*
X4243815D1*
X4487114D2*
X5383867D1*
X5627166D2*
X6595925D1*
X1104146Y4517583D2*
X1259336D1*
X1502635D2*
X1703854D1*
X2479992D2*
X2568008D1*
X2734015D2*
X2822032D1*
X2987948D2*
X3075964D1*
X3978247D2*
X4243815D1*
X4487114D2*
X5383867D1*
X5627166D2*
X6595925D1*
X1104146Y4454417D2*
X1259336D1*
X1502635D2*
X1703854D1*
X3915083D2*
X3985964D1*
X4487114D2*
X5235938D1*
X5627166D2*
X6595925D1*
X1104146Y4391250D2*
X1259336D1*
X1502635D2*
X1703854D1*
X3889380D2*
X3928542D1*
X4487114D2*
X5178607D1*
X5627166D2*
X6595925D1*
X1104146Y4328083D2*
X1259336D1*
X1502635D2*
X1703854D1*
X4487114D2*
X5154727D1*
X5627166D2*
X6595925D1*
X1104146Y4264917D2*
X1259336D1*
X1502635D2*
X1703854D1*
X4487114D2*
X4648776D1*
X4824263D2*
X5152266D1*
X5627166D2*
X6595925D1*
X1104146Y4201750D2*
X1259336D1*
X1502635D2*
X1703854D1*
X4487114D2*
X4572305D1*
X4900734D2*
X5170222D1*
X5627166D2*
X6595925D1*
X1104146Y4138583D2*
X1259336D1*
X1502635D2*
X1704857D1*
X4487114D2*
X4542409D1*
X4930539D2*
X5216341D1*
X5627166D2*
X6595925D1*
X1104146Y4075417D2*
X1259336D1*
X1502635D2*
X1734297D1*
X4486203D2*
X4536302D1*
X4936737D2*
X5383867D1*
X5627166D2*
X6595925D1*
X1104146Y4012250D2*
X1259336D1*
X1502635D2*
X1797370D1*
X2707674D2*
X2784206D1*
X4456945D2*
X4551433D1*
X4921515D2*
X5383867D1*
X5627166D2*
X6595925D1*
X1104146Y3949083D2*
X1259336D1*
X1502635D2*
X1860534D1*
X2770838D2*
X2813190D1*
X5092778D2*
X5383867D1*
X5627166D2*
X6595925D1*
X1104146Y3885917D2*
X1259336D1*
X1502635D2*
X1923698D1*
X2834002D2*
X2876172D1*
X5174263D2*
X5383867D1*
X5627166D2*
X6595925D1*
X1104146Y3822750D2*
X1259336D1*
X1502635D2*
X1944297D1*
X2067648D2*
X2558347D1*
X2897166D2*
X2939336D1*
X3278156D2*
X3664857D1*
X3788208D2*
X3955339D1*
X5185656D2*
X5383867D1*
X5750669D2*
X6595925D1*
X1104146Y3759583D2*
X1259336D1*
X1502635D2*
X1849323D1*
X2162713D2*
X2621511D1*
X2960330D2*
X3002500D1*
X3341320D2*
X3569792D1*
X3883182D2*
X4018503D1*
X5185656D2*
X5383867D1*
X5845643D2*
X6595925D1*
X1104146Y3696417D2*
X1259336D1*
X1502635D2*
X1814870D1*
X2197166D2*
X2684675D1*
X3023495D2*
X3065664D1*
X3404484D2*
X3535339D1*
X3917635D2*
X4942357D1*
X5185656D2*
X5383867D1*
X5880187D2*
X6595925D1*
X1104146Y3633250D2*
X1259336D1*
X1502635D2*
X1805391D1*
X2206646D2*
X2569649D1*
X2692362D2*
X2747839D1*
X3467648D2*
X3525860D1*
X3927114D2*
X4290117D1*
X4412830D2*
X4853399D1*
X5274614D2*
X5383867D1*
X5889575D2*
X6252670D1*
X6375383D2*
X6595925D1*
X1104146Y3570083D2*
X1220052D1*
X1541919D2*
X1817058D1*
X2194979D2*
X2470117D1*
X2791893D2*
X2811006D1*
X3915448D2*
X4190586D1*
X4512453D2*
X4853399D1*
X5274614D2*
X5383867D1*
X5877909D2*
X6153047D1*
X6474914D2*
X6595925D1*
X1104146Y3506917D2*
X1182865D1*
X1579107D2*
X1854883D1*
X2157153D2*
X2432839D1*
X2829080D2*
X2874167D1*
X3877622D2*
X4153399D1*
X4549640D2*
X4853399D1*
X5274614D2*
X5383867D1*
X5840083D2*
X6115860D1*
X6512101D2*
X6595925D1*
X1104146Y3443750D2*
X1170469D1*
X1591502D2*
X1975196D1*
X2036750D2*
X2420534D1*
X2841476D2*
X2891029D1*
X3657140D2*
X3695755D1*
X3757218D2*
X4141003D1*
X4562036D2*
X4853399D1*
X5274614D2*
X5383867D1*
X5627166D2*
X5658216D1*
X5719771D2*
X6103464D1*
X6524497D2*
X6595925D1*
X1104146Y3380583D2*
X1178125D1*
X1583846D2*
X2405677D1*
X2833820D2*
X2898685D1*
X3304315D2*
X3381485D1*
X3720304D2*
X4148659D1*
X4609341D2*
X4853399D1*
X5274614D2*
X5383867D1*
X5627166D2*
X6088698D1*
X6516841D2*
X6595925D1*
X1104146Y3317417D2*
X1208659D1*
X1553312D2*
X2342513D1*
X2803377D2*
X2929128D1*
X3273872D2*
X3444649D1*
X3783468D2*
X4179193D1*
X4643885D2*
X4853399D1*
X5274614D2*
X5383867D1*
X5627166D2*
X6025534D1*
X6486307D2*
X6595925D1*
X1104146Y3254250D2*
X1282305D1*
X1479666D2*
X2279349D1*
X2729640D2*
X3002865D1*
X3200135D2*
X3507813D1*
X3846633D2*
X4252839D1*
X4645890D2*
X4853399D1*
X5274614D2*
X5383867D1*
X5627166D2*
X5962370D1*
X6412661D2*
X6595925D1*
X1104146Y3191083D2*
X2216185D1*
X2555005D2*
X3570977D1*
X3909797D2*
X4402591D1*
X4645890D2*
X5383867D1*
X5627166D2*
X5907318D1*
X6237935D2*
X6595925D1*
X1104146Y3127917D2*
X1303268D1*
X1458703D2*
X2160951D1*
X2841659D2*
X3023737D1*
X3179263D2*
X3634232D1*
X3972961D2*
X4140821D1*
X4645890D2*
X4986289D1*
X5141724D2*
X5383867D1*
X5627166D2*
X5894831D1*
X6174771D2*
X6236263D1*
X6391698D2*
X6595925D1*
X1104146Y3064750D2*
X1215677D1*
X1546385D2*
X2148373D1*
X2841659D2*
X2936146D1*
X3266854D2*
X3697396D1*
X4036125D2*
X4140821D1*
X4645890D2*
X4898607D1*
X5229406D2*
X5383867D1*
X5627166D2*
X5894831D1*
X6479380D2*
X6595925D1*
X1104146Y3001583D2*
X1181042D1*
X1581021D2*
X2148373D1*
X2391672D2*
X2420323D1*
X2841659D2*
X2901511D1*
X3301489D2*
X3760560D1*
X4099289D2*
X4140821D1*
X4645890D2*
X4863972D1*
X5263950D2*
X5383867D1*
X5627166D2*
X5894831D1*
X6514015D2*
X6595925D1*
X1104146Y2938417D2*
X1170378D1*
X1591593D2*
X2148373D1*
X2391672D2*
X2420323D1*
X2841659D2*
X2890847D1*
X3312153D2*
X3823724D1*
X4645890D2*
X4853399D1*
X5274614D2*
X5383867D1*
X5627166D2*
X5894831D1*
X6524588D2*
X6595925D1*
X1104146Y2875250D2*
X1179766D1*
X1582205D2*
X1863633D1*
X2391672D2*
X2420323D1*
X2841659D2*
X2900235D1*
X3302765D2*
X3584102D1*
X4645890D2*
X4862787D1*
X5265226D2*
X5383867D1*
X5831333D2*
X5894831D1*
X6515200D2*
X6595925D1*
X1104146Y2812083D2*
X1212578D1*
X1549393D2*
X1820703D1*
X2391672D2*
X2420323D1*
X2841659D2*
X2933138D1*
X3269862D2*
X3541172D1*
X3911802D2*
X3950052D1*
X4645890D2*
X4895599D1*
X5232414D2*
X5383867D1*
X5874354D2*
X5894866D1*
X6482388D2*
X6595925D1*
X1104146Y2748917D2*
X1293698D1*
X1468273D2*
X1805755D1*
X2391672D2*
X2420323D1*
X2841659D2*
X3014258D1*
X3188742D2*
X3526224D1*
X3926750D2*
X3989883D1*
X4645890D2*
X4976719D1*
X5151294D2*
X5383867D1*
X6138130D2*
X6226693D1*
X6401268D2*
X6595925D1*
X1104146Y2685750D2*
X1812136D1*
X2391672D2*
X3532604D1*
X3920370D2*
X3989883D1*
X4233182D2*
X4402591D1*
X4645890D2*
X5383867D1*
X6138130D2*
X6595925D1*
X1104146Y2622583D2*
X1842305D1*
X2391672D2*
X3562774D1*
X3890200D2*
X3989883D1*
X4233182D2*
X4402591D1*
X4645890D2*
X5383867D1*
X5852752D2*
X5894831D1*
X6138130D2*
X6595925D1*
X1104146Y2559417D2*
X1919688D1*
X2092258D2*
X2148373D1*
X2391672D2*
X3640248D1*
X3812817D2*
X3989883D1*
X4233182D2*
X4402591D1*
X4645890D2*
X5383867D1*
X5775278D2*
X5894831D1*
X6138130D2*
X6595925D1*
X1104146Y2496250D2*
X2148373D1*
X2391672D2*
X3989883D1*
X4233182D2*
X4402591D1*
X4827726D2*
X5383867D1*
X5627166D2*
X5894831D1*
X6138130D2*
X6595925D1*
X1104146Y2433083D2*
X2148373D1*
X2391672D2*
X2609479D1*
X3524250D2*
X3989883D1*
X4233182D2*
X4402591D1*
X4901919D2*
X5383867D1*
X5627166D2*
X5894831D1*
X6138130D2*
X6595925D1*
X1104146Y2369917D2*
X2148373D1*
X2391672D2*
X2546315D1*
X3587414D2*
X3989883D1*
X4233182D2*
X4402591D1*
X4930995D2*
X5383867D1*
X5627166D2*
X5894831D1*
X6138130D2*
X6595925D1*
X1104146Y2306750D2*
X2148373D1*
X2391672D2*
X2483151D1*
X3650578D2*
X3900834D1*
X4322140D2*
X4402591D1*
X4936554D2*
X5269024D1*
X5627166D2*
X5894831D1*
X6138130D2*
X6595925D1*
X1104146Y2243583D2*
X2148373D1*
X2391672D2*
X2422722D1*
X3015838D2*
X3374922D1*
X3713742D2*
X3900834D1*
X4322140D2*
X4402591D1*
X4920877D2*
X5191367D1*
X5627166D2*
X5894831D1*
X6138130D2*
X6595925D1*
X1104146Y2180417D2*
X2131055D1*
X3776906D2*
X3900834D1*
X4322140D2*
X4402591D1*
X4876398D2*
X5159558D1*
X5627166D2*
X5894831D1*
X6138130D2*
X6595925D1*
X1104146Y2117250D2*
X2093138D1*
X3840070D2*
X3900834D1*
X4322140D2*
X4350638D1*
X4645799D2*
X5150899D1*
X5627166D2*
X5894831D1*
X6138130D2*
X6595925D1*
X1104146Y2054083D2*
X2083203D1*
X5627166D2*
X5894831D1*
X6138130D2*
X6595925D1*
X1104146Y1990917D2*
X2096055D1*
X5627166D2*
X5894831D1*
X6138130D2*
X6595925D1*
X1104146Y1927750D2*
X2138711D1*
X5626620D2*
X5894831D1*
X6138130D2*
X6595925D1*
X1104146Y1864583D2*
X2524167D1*
X3140799D2*
X3430248D1*
X5599914D2*
X5894831D1*
X6138130D2*
X6595925D1*
X1104146Y1801417D2*
X2557344D1*
X3203963D2*
X3493412D1*
X5537297D2*
X5844518D1*
X6138130D2*
X6595925D1*
X1104146Y1738250D2*
X2620599D1*
X3267127D2*
X3556576D1*
X5535474D2*
X5781354D1*
X6117531D2*
X6595925D1*
X1104146Y1675083D2*
X2683763D1*
X3330291D2*
X3908034D1*
X4315031D2*
X4416446D1*
X4755265D2*
X5158008D1*
X5565005D2*
X5718190D1*
X6057010D2*
X6595925D1*
X1104146Y1611917D2*
X2746927D1*
X3393455D2*
X3901107D1*
X4321958D2*
X4353282D1*
X4781424D2*
X5151081D1*
X5571932D2*
X5655026D1*
X5993846D2*
X6595925D1*
X1104146Y1548750D2*
X1160625D1*
X1439380D2*
X2810091D1*
X3456620D2*
X3914232D1*
X4889705D2*
X5164297D1*
X5558716D2*
X5591862D1*
X5930682D2*
X6260599D1*
X6539354D2*
X6595925D1*
X1518768Y1485583D2*
X2873255D1*
X4926255D2*
X5202670D1*
X5867518D2*
X6181211D1*
X1560513Y1422417D2*
X2936420D1*
X4502518D2*
X4535847D1*
X4937101D2*
X5309310D1*
X5413703D2*
X5465534D1*
X5804354D2*
X6139558D1*
X1582114Y1359250D2*
X2999584D1*
X4439354D2*
X4546146D1*
X4926893D2*
X5402370D1*
X5741190D2*
X6117865D1*
X1588403Y1296083D2*
X3062748D1*
X5677935D2*
X6111576D1*
X1580383Y1232917D2*
X3125912D1*
X5614771D2*
X6119688D1*
X1556593Y1169750D2*
X3189076D1*
X5551607D2*
X6143477D1*
X1511659Y1106583D2*
X6188321D1*
X1941425Y7455536D2*
X1931667Y7466060D1*
X1915130Y7488821D1*
X1902358Y7513889D1*
X1893664Y7540646D1*
X1889263Y7568433D1*
Y7596567D1*
X1893664Y7624354D1*
X1902358Y7651111D1*
X1915130Y7676179D1*
X1931667Y7698940D1*
X1951560Y7718833D1*
X1974321Y7735370D1*
X1999389Y7748142D1*
X2026146Y7756836D1*
X2053933Y7761237D1*
X2114667Y7761790D1*
X2232067Y7761237D1*
X2259854Y7756836D1*
X2286611Y7748142D1*
X2311679Y7735370D1*
X2334440Y7718833D1*
X2354333Y7698940D1*
X2370870Y7676179D1*
X2383642Y7651111D1*
X2392336Y7624354D1*
X2396737Y7596567D1*
Y7568433D1*
X2392336Y7540646D1*
X2383642Y7513889D1*
X2370870Y7488821D1*
X2354333Y7466060D1*
X2344777Y7455277D1*
X2355252Y7443774D1*
X2787046Y7443435D1*
X2804914Y7440605D1*
X2822120Y7435014D1*
X2838239Y7426801D1*
X2852875Y7416167D1*
X2923522Y7346022D1*
X2935272Y7332266D1*
X2944724Y7316841D1*
X2951647Y7300127D1*
X2955871Y7282535D1*
X2957290Y7264500D1*
Y5348706D1*
X3201290Y5348790D1*
Y4990210D1*
X3147241D1*
X3147290Y4963237D1*
X3457491Y4653054D1*
X3465223Y4661723D1*
X3446951Y4683116D1*
X3432251Y4707104D1*
X3421485Y4733096D1*
X3414917Y4760453D1*
X3412710Y4788500D1*
X3414917Y4816547D1*
X3421485Y4843904D1*
X3432251Y4869896D1*
X3446951Y4893884D1*
X3465223Y4915277D1*
X3455667Y4926060D1*
X3439130Y4948821D1*
X3426358Y4973889D1*
X3417664Y5000646D1*
X3413263Y5028433D1*
Y5056567D1*
X3417664Y5084354D1*
X3426358Y5111111D1*
X3439130Y5136179D1*
X3455667Y5158940D1*
X3465223Y5169723D1*
X3446951Y5191116D1*
X3432251Y5215104D1*
X3421485Y5241096D1*
X3414917Y5268453D1*
X3412710Y5296500D1*
X3414917Y5324547D1*
X3421485Y5351904D1*
X3432251Y5377896D1*
X3446951Y5401884D1*
X3465223Y5423277D1*
X3455667Y5434060D1*
X3439130Y5456821D1*
X3426358Y5481889D1*
X3417664Y5508646D1*
X3413263Y5536433D1*
Y5564567D1*
X3417664Y5592354D1*
X3426358Y5619111D1*
X3439130Y5644179D1*
X3455667Y5666940D1*
X3465223Y5677723D1*
X3446951Y5699116D1*
X3432251Y5723104D1*
X3421485Y5749096D1*
X3414917Y5776453D1*
X3412710Y5804500D1*
X3414917Y5832547D1*
X3421485Y5859904D1*
X3432251Y5885896D1*
X3446951Y5909884D1*
X3465223Y5931277D1*
X3455667Y5942060D1*
X3439130Y5964821D1*
X3426358Y5989889D1*
X3417664Y6016646D1*
X3413263Y6044433D1*
Y6072567D1*
X3417664Y6100354D1*
X3426358Y6127111D1*
X3439130Y6152179D1*
X3455667Y6174940D1*
X3465223Y6185723D1*
X3446951Y6207116D1*
X3432251Y6231104D1*
X3421485Y6257096D1*
X3414917Y6284453D1*
X3412710Y6312500D1*
X3414917Y6340547D1*
X3421485Y6367904D1*
X3432251Y6393896D1*
X3446951Y6417884D1*
X3465223Y6439277D1*
X3455667Y6450060D1*
X3439130Y6472821D1*
X3426358Y6497889D1*
X3417664Y6524646D1*
X3413263Y6552433D1*
Y6580567D1*
X3417664Y6608354D1*
X3426358Y6635111D1*
X3439130Y6660179D1*
X3455667Y6682940D1*
X3465223Y6693723D1*
X3446951Y6715116D1*
X3432251Y6739104D1*
X3421485Y6765096D1*
X3414917Y6792453D1*
X3412710Y6820500D1*
X3414917Y6848547D1*
X3421485Y6875904D1*
X3432251Y6901896D1*
X3446951Y6925884D1*
X3465223Y6947277D1*
X3455667Y6958060D1*
X3439130Y6980821D1*
X3426358Y7005889D1*
X3417664Y7032646D1*
X3413263Y7060433D1*
Y7088567D1*
X3417664Y7116354D1*
X3426358Y7143111D1*
X3439130Y7168179D1*
X3455667Y7190940D1*
X3465425Y7201464D1*
X3451344Y7217321D1*
X3440551Y7232541D1*
X3431398Y7248801D1*
X3423985Y7265923D1*
X3418391Y7283723D1*
X3414678Y7302008D1*
X3412885Y7320580D1*
X3413032Y7339237D1*
X3415117Y7357779D1*
X3419117Y7376003D1*
X3424990Y7393713D1*
X3432672Y7410716D1*
X3442079Y7426830D1*
X3453110Y7441878D1*
X3465454Y7455503D1*
X3455667Y7466060D1*
X3439130Y7488821D1*
X3426358Y7513889D1*
X3417664Y7540646D1*
X3413263Y7568433D1*
Y7596567D1*
X3417664Y7624354D1*
X3426358Y7651111D1*
X3439130Y7676179D1*
X3455667Y7698940D1*
X3475560Y7718833D1*
X3498321Y7735370D1*
X3523389Y7748142D1*
X3550146Y7756836D1*
X3577933Y7761237D1*
X3638667Y7761789D1*
X3756067Y7761237D1*
X3783854Y7756836D1*
X3810611Y7748142D1*
X3835679Y7735370D1*
X3858440Y7718833D1*
X3878333Y7698940D1*
X3879252Y7697774D1*
X4311046Y7697435D1*
X4328914Y7694605D1*
X4346120Y7689014D1*
X4362239Y7680801D1*
X4376875Y7670167D1*
X4389667Y7657375D1*
X4400301Y7642739D1*
X4408514Y7626620D1*
X4414105Y7609414D1*
X4416935Y7591546D1*
X4417290Y7512500D1*
Y7299310D1*
X4438554Y7314083D1*
X4459032Y7325246D1*
X4480559Y7334222D1*
X4502901Y7340914D1*
X4525817Y7345250D1*
X4549059Y7347183D1*
X4572377Y7346691D1*
X4595518Y7343781D1*
X4618231Y7338484D1*
X4640271Y7330857D1*
X4661400Y7320982D1*
X4681390Y7308966D1*
X4700023Y7294940D1*
X4717100Y7279054D1*
X4732434Y7261481D1*
X4745861Y7242411D1*
X4757234Y7222049D1*
X4766432Y7200617D1*
X4773354Y7178345D1*
X4777927Y7155474D1*
X4780099Y7132253D1*
X4779853Y7109009D1*
X4777190Y7085839D1*
X4772135Y7063070D1*
X4764743Y7040950D1*
X4755094Y7019717D1*
X4743293Y6999600D1*
X4729466Y6980818D1*
X4713763Y6963573D1*
X4696354Y6948053D1*
X4677428Y6934423D1*
X4657189Y6922833D1*
X4635856Y6913407D1*
X4613659Y6906248D1*
X4590839Y6901432D1*
X4567642Y6899012D1*
X4544319Y6899014D1*
X4521123Y6901438D1*
X4498303Y6906258D1*
X4476108Y6913421D1*
X4454776Y6922851D1*
X4434539Y6934444D1*
X4417292Y6946759D1*
X4417290Y6679336D1*
X4438809Y6694239D1*
X4454174Y6702844D1*
X4470168Y6710217D1*
X4486691Y6716312D1*
X4503641Y6721093D1*
X4520913Y6724529D1*
X4538402Y6726599D1*
X4556000Y6727290D1*
X4569954Y6726742D1*
X5255957Y7412802D1*
X5247793Y7425151D1*
X5238919Y7440997D1*
X5231316Y7457489D1*
X5225030Y7474527D1*
X5220101Y7492006D1*
X5216558Y7509818D1*
X5214423Y7527853D1*
X5213710Y7546000D1*
X5214423Y7564147D1*
X5216558Y7582182D1*
X5220101Y7599994D1*
X5225030Y7617473D1*
X5231316Y7634511D1*
X5238919Y7651003D1*
X5247793Y7666849D1*
X5257882Y7681949D1*
X5269126Y7696211D1*
X5281453Y7709547D1*
X5294789Y7721874D1*
X5309051Y7733118D1*
X5324151Y7743207D1*
X5339997Y7752081D1*
X5356489Y7759684D1*
X5373527Y7765970D1*
X5391006Y7770899D1*
X5408818Y7774442D1*
X5426853Y7776577D1*
X5468334Y7777289D1*
X5699000Y7777290D1*
X5717147Y7776577D1*
X5735182Y7774442D1*
X5752994Y7770899D1*
X5770473Y7765970D1*
X5787511Y7759684D1*
X5804003Y7752081D1*
X5819849Y7743207D1*
X5834949Y7733118D1*
X5849211Y7721874D1*
X5862547Y7709547D1*
X5874874Y7696211D1*
X5886118Y7681949D1*
X5896207Y7666849D1*
X5905081Y7651003D1*
X5912684Y7634511D1*
X5918970Y7617473D1*
X5923899Y7599994D1*
X5927442Y7582182D1*
X5929577Y7564147D1*
X5930290Y7546000D1*
X5929577Y7527853D1*
X5927442Y7509818D1*
X5923899Y7492006D1*
X5918970Y7474527D1*
X5912684Y7457489D1*
X5905081Y7440997D1*
X5896207Y7425151D1*
X5886118Y7410051D1*
X5874874Y7395789D1*
X5862547Y7382453D1*
X5849211Y7370126D1*
X5834949Y7358882D1*
X5819849Y7348793D1*
X5804003Y7339919D1*
X5787511Y7332316D1*
X5770473Y7326030D1*
X5752994Y7321101D1*
X5735182Y7317558D1*
X5717147Y7315423D1*
X5675667Y7314709D1*
X5523545D1*
X5538333Y7307390D1*
X5699000D1*
X5717147Y7306677D1*
X5735182Y7304542D1*
X5752994Y7300999D1*
X5770473Y7296070D1*
X5787511Y7289784D1*
X5804003Y7282181D1*
X5819849Y7273307D1*
X5834949Y7263218D1*
X5849211Y7251974D1*
X5862547Y7239647D1*
X5874874Y7226311D1*
X5886118Y7212049D1*
X5893882Y7200429D1*
X6280252Y7200007D1*
X6299515Y7196956D1*
X6318064Y7190929D1*
X6335441Y7182075D1*
X6351220Y7170611D1*
X6365011Y7156820D1*
X6376475Y7141041D1*
X6385329Y7123664D1*
X6391356Y7105115D1*
X6394407Y7085852D1*
X6394790Y7006100D1*
X6394407Y5921748D1*
X6391356Y5902485D1*
X6385329Y5883936D1*
X6376475Y5866559D1*
X6365011Y5850780D1*
X6308889Y5794116D1*
X6177089Y5662316D1*
X6181583Y5631990D1*
X6182290Y5614000D1*
X6181583Y5596010D1*
X6179467Y5578131D1*
X6175955Y5560473D1*
X6171068Y5543145D1*
X6164836Y5526255D1*
X6157299Y5509905D1*
X6148502Y5494196D1*
X6138500Y5479227D1*
X6127353Y5465088D1*
X6115133Y5451867D1*
X6101912Y5439647D1*
X6087773Y5428500D1*
X6072804Y5418498D1*
X6057095Y5409701D1*
X6040745Y5402164D1*
X6023855Y5395932D1*
X6006527Y5391045D1*
X5988869Y5387533D1*
X5970990Y5385417D1*
X5953000Y5384710D1*
X5935010Y5385417D1*
X5917131Y5387533D1*
X5899473Y5391045D1*
X5882145Y5395932D1*
X5865255Y5402164D1*
X5848905Y5409701D1*
X5833196Y5418498D1*
X5818227Y5428500D1*
X5804088Y5439647D1*
X5790867Y5451867D1*
X5778647Y5465088D1*
X5767500Y5479227D1*
X5757498Y5494196D1*
X5748701Y5509905D1*
X5741164Y5526255D1*
X5734932Y5543145D1*
X5730045Y5560473D1*
X5726533Y5578131D1*
X5724417Y5596010D1*
X5723710Y5614000D1*
X5724417Y5631990D1*
X5726533Y5649869D1*
X5732012Y5674498D1*
X5265875Y5208832D1*
X5251239Y5198199D1*
X5235120Y5189986D1*
X5217914Y5184395D1*
X5200046Y5181565D1*
X5121000Y5181210D1*
X4761247D1*
X4781856Y5177422D1*
X4796539Y5173281D1*
X4810852Y5168001D1*
X4824706Y5161614D1*
X4838016Y5154159D1*
X4850701Y5145684D1*
X4862681Y5136239D1*
X4873884Y5125884D1*
X4884239Y5114681D1*
X4893684Y5102701D1*
X4902159Y5090016D1*
X4909614Y5076706D1*
X4916001Y5062852D1*
X4921281Y5048539D1*
X4925422Y5033856D1*
X4928398Y5018894D1*
X4930191Y5003744D1*
X4930790Y4988500D1*
X4930191Y4973256D1*
X4928398Y4958106D1*
X4925422Y4943144D1*
X4921281Y4928461D1*
X4916001Y4914148D1*
X4909614Y4900294D1*
X4902159Y4886984D1*
X4893684Y4874299D1*
X4884239Y4862319D1*
X4873884Y4851116D1*
X4862681Y4840761D1*
X4850701Y4831316D1*
X4838016Y4822841D1*
X4824706Y4815386D1*
X4810852Y4808999D1*
X4796539Y4803719D1*
X4781856Y4799578D1*
X4766894Y4796602D1*
X4751744Y4794809D1*
X4736500Y4794210D1*
X4721256Y4794809D1*
X4706106Y4796602D1*
X4691144Y4799578D1*
X4676461Y4803719D1*
X4662148Y4808999D1*
X4648294Y4815386D1*
X4634984Y4822841D1*
X4622299Y4831316D1*
X4610319Y4840761D1*
X4599116Y4851116D1*
X4588761Y4862319D1*
X4579316Y4874299D1*
X4570841Y4886984D1*
X4563386Y4900294D1*
X4556999Y4914148D1*
X4551719Y4928461D1*
X4547578Y4943144D1*
X4544602Y4958106D1*
X4542809Y4973256D1*
X4542210Y4988500D1*
X4542809Y5003744D1*
X4544602Y5018894D1*
X4547578Y5033856D1*
X4551719Y5048539D1*
X4556999Y5062852D1*
X4563386Y5076706D1*
X4570841Y5090016D1*
X4579316Y5102701D1*
X4588761Y5114681D1*
X4599116Y5125884D1*
X4610319Y5136239D1*
X4622299Y5145684D1*
X4634984Y5154159D1*
X4648294Y5161614D1*
X4662148Y5168001D1*
X4676461Y5173281D1*
X4691144Y5177422D1*
X4712912Y5181203D1*
X4222758Y5181210D1*
X4036298Y4994752D1*
X4047211Y4992789D1*
X4315791D1*
Y4903740D1*
X4374546Y4903435D1*
X4392414Y4900605D1*
X4409620Y4895014D1*
X4425739Y4886801D1*
X4440375Y4876167D1*
X4453167Y4863375D1*
X4463801Y4848739D1*
X4472014Y4832620D1*
X4477605Y4815414D1*
X4480435Y4797546D1*
X4480790Y4718500D1*
X4480435Y4080954D1*
X4477605Y4063086D1*
X4472014Y4045880D1*
X4463801Y4029761D1*
X4453167Y4015125D1*
X4440375Y4002333D1*
X4425739Y3991699D1*
X4409620Y3983486D1*
X4392414Y3977895D1*
X4374546Y3975065D1*
X4295500Y3974710D1*
X4135904D1*
X4159281Y3951263D1*
X4598857Y3951290D1*
X4579316Y3974299D1*
X4570841Y3986984D1*
X4563386Y4000294D1*
X4556999Y4014148D1*
X4551719Y4028461D1*
X4547578Y4043144D1*
X4544602Y4058106D1*
X4542809Y4073256D1*
X4542210Y4088500D1*
X4542809Y4103744D1*
X4544602Y4118894D1*
X4547578Y4133856D1*
X4551719Y4148539D1*
X4556999Y4162852D1*
X4563386Y4176706D1*
X4570841Y4190016D1*
X4579316Y4202701D1*
X4588761Y4214681D1*
X4599116Y4225884D1*
X4610319Y4236239D1*
X4622299Y4245684D1*
X4634984Y4254159D1*
X4648294Y4261614D1*
X4662148Y4268001D1*
X4676461Y4273281D1*
X4691144Y4277422D1*
X4706106Y4280398D1*
X4721256Y4282191D1*
X4736500Y4282790D1*
X4751744Y4282191D1*
X4766894Y4280398D1*
X4781856Y4277422D1*
X4796539Y4273281D1*
X4810852Y4268001D1*
X4824706Y4261614D1*
X4838016Y4254159D1*
X4850701Y4245684D1*
X4862681Y4236239D1*
X4873884Y4225884D1*
X4884239Y4214681D1*
X4893684Y4202701D1*
X4902159Y4190016D1*
X4909614Y4176706D1*
X4916001Y4162852D1*
X4921281Y4148539D1*
X4925422Y4133856D1*
X4928398Y4118894D1*
X4930191Y4103744D1*
X4930790Y4088500D1*
X4930191Y4073256D1*
X4928398Y4058106D1*
X4925422Y4043144D1*
X4921281Y4028461D1*
X4916001Y4014148D1*
X4909614Y4000294D1*
X4902159Y3986984D1*
X4893684Y3974299D1*
X4884239Y3962319D1*
X4874005Y3951248D1*
X5073046Y3950935D1*
X5090914Y3948105D1*
X5108120Y3942514D1*
X5124239Y3934301D1*
X5138875Y3923667D1*
X5151667Y3910875D1*
X5162301Y3896239D1*
X5170514Y3880120D1*
X5176105Y3862914D1*
X5178935Y3845046D1*
X5179290Y3766000D1*
Y3640857D1*
X5268291Y3640789D1*
Y3232209D1*
X4859711D1*
Y3640789D1*
X4948760D1*
X4948710Y3720784D1*
X4111500Y3720710D1*
X4093465Y3722129D1*
X4075873Y3726353D1*
X4059159Y3733276D1*
X4043734Y3742728D1*
X4029978Y3754478D1*
X3936719Y3847737D1*
X3276954Y3848065D1*
X3259086Y3850895D1*
X3241848Y3856501D1*
X3250509Y3844036D1*
X3563026Y3531519D1*
X3553386Y3548294D1*
X3546999Y3562148D1*
X3541719Y3576461D1*
X3537578Y3591144D1*
X3534602Y3606106D1*
X3532809Y3621256D1*
X3532210Y3636500D1*
X3532809Y3651744D1*
X3534602Y3666894D1*
X3537578Y3681856D1*
X3541719Y3696539D1*
X3546999Y3710852D1*
X3553386Y3724706D1*
X3560841Y3738016D1*
X3569316Y3750701D1*
X3578761Y3762681D1*
X3589116Y3773884D1*
X3600319Y3784239D1*
X3612299Y3793684D1*
X3624984Y3802159D1*
X3638294Y3809614D1*
X3652148Y3816001D1*
X3666461Y3821281D1*
X3681144Y3825422D1*
X3696106Y3828398D1*
X3711256Y3830191D1*
X3726500Y3830790D1*
X3741744Y3830191D1*
X3756894Y3828398D1*
X3771856Y3825422D1*
X3786539Y3821281D1*
X3800852Y3816001D1*
X3814706Y3809614D1*
X3828016Y3802159D1*
X3840701Y3793684D1*
X3852681Y3784239D1*
X3863884Y3773884D1*
X3874239Y3762681D1*
X3883684Y3750701D1*
X3892159Y3738016D1*
X3899614Y3724706D1*
X3906001Y3710852D1*
X3911281Y3696539D1*
X3915422Y3681856D1*
X3918398Y3666894D1*
X3920191Y3651744D1*
X3920790Y3636500D1*
X3920191Y3621256D1*
X3918398Y3606106D1*
X3915422Y3591144D1*
X3911281Y3576461D1*
X3906001Y3562148D1*
X3899614Y3548294D1*
X3892159Y3534984D1*
X3883684Y3522299D1*
X3874239Y3510319D1*
X3863884Y3499116D1*
X3852681Y3488761D1*
X3840701Y3479316D1*
X3828016Y3470841D1*
X3814706Y3463386D1*
X3800852Y3456999D1*
X3786539Y3451719D1*
X3771856Y3447578D1*
X3756894Y3444602D1*
X3741744Y3442809D1*
X3726500Y3442210D1*
X3711256Y3442809D1*
X3696106Y3444602D1*
X3681144Y3447578D1*
X3666461Y3451719D1*
X3652148Y3456999D1*
X3638294Y3463386D1*
X3621168Y3473390D1*
X4147200Y2947346D1*
X4147211Y3140789D1*
X4408890D1*
X4408960Y3240497D1*
X4383458Y3234725D1*
X4367528Y3232840D1*
X4351500Y3232210D1*
X4335472Y3232840D1*
X4319542Y3234725D1*
X4303809Y3237855D1*
X4288371Y3242209D1*
X4273322Y3247761D1*
X4258754Y3254476D1*
X4244759Y3262314D1*
X4231421Y3271226D1*
X4218824Y3281157D1*
X4207045Y3292045D1*
X4196157Y3303824D1*
X4186226Y3316421D1*
X4177314Y3329759D1*
X4169476Y3343754D1*
X4162761Y3358322D1*
X4157209Y3373371D1*
X4152855Y3388809D1*
X4149725Y3404542D1*
X4147840Y3420472D1*
X4147210Y3436500D1*
X4147840Y3452528D1*
X4149725Y3468458D1*
X4152855Y3484191D1*
X4157209Y3499629D1*
X4162761Y3514678D1*
X4169476Y3529246D1*
X4177314Y3543241D1*
X4186226Y3556579D1*
X4196157Y3569176D1*
X4207045Y3580955D1*
X4218824Y3591843D1*
X4231421Y3601774D1*
X4244759Y3610686D1*
X4258754Y3618524D1*
X4273322Y3625239D1*
X4288371Y3630791D1*
X4303809Y3635145D1*
X4319542Y3638275D1*
X4335472Y3640160D1*
X4351500Y3640790D1*
X4367528Y3640160D1*
X4383458Y3638275D1*
X4399191Y3635145D1*
X4414629Y3630791D1*
X4429678Y3625239D1*
X4444246Y3618524D1*
X4458241Y3610686D1*
X4471579Y3601774D1*
X4484176Y3591843D1*
X4495955Y3580955D1*
X4506843Y3569176D1*
X4516774Y3556579D1*
X4525686Y3543241D1*
X4533524Y3529246D1*
X4540239Y3514678D1*
X4545791Y3499629D1*
X4550145Y3484191D1*
X4553275Y3468458D1*
X4555160Y3452528D1*
X4555458Y3428048D1*
X4611917Y3371125D1*
X4622551Y3356489D1*
X4630764Y3340370D1*
X4636355Y3323164D1*
X4639185Y3305296D1*
X4639540Y3226250D1*
Y2489883D1*
X4662148Y2501001D1*
X4676461Y2506281D1*
X4691144Y2510422D1*
X4706106Y2513398D1*
X4721256Y2515191D1*
X4736500Y2515790D1*
X4751744Y2515191D1*
X4766894Y2513398D1*
X4781856Y2510422D1*
X4796539Y2506281D1*
X4810852Y2501001D1*
X4824706Y2494614D1*
X4838016Y2487159D1*
X4850701Y2478684D1*
X4862681Y2469239D1*
X4873884Y2458884D1*
X4884239Y2447681D1*
X4893684Y2435701D1*
X4902159Y2423016D1*
X4909614Y2409706D1*
X4916001Y2395852D1*
X4921281Y2381539D1*
X4925422Y2366856D1*
X4928398Y2351894D1*
X4930191Y2336744D1*
X4930790Y2321500D1*
X4930191Y2306256D1*
X4928398Y2291106D1*
X4925422Y2276144D1*
X4921281Y2261461D1*
X4916001Y2247148D1*
X4909614Y2233294D1*
X4902159Y2219984D1*
X4893684Y2207299D1*
X4884239Y2195319D1*
X4873884Y2184116D1*
X4862681Y2173761D1*
X4850701Y2164316D1*
X4838016Y2155841D1*
X4824706Y2148386D1*
X4810852Y2141999D1*
X4796539Y2136719D1*
X4781856Y2132578D1*
X4766894Y2129602D1*
X4751744Y2127809D1*
X4736500Y2127210D1*
X4721256Y2127809D1*
X4706106Y2129602D1*
X4691144Y2132578D1*
X4676461Y2136719D1*
X4662148Y2141999D1*
X4639507Y2153307D1*
X4639185Y2112454D1*
X4636355Y2094586D1*
X4633885Y2085840D1*
X4649333Y2078040D1*
X5154919D1*
X5159725Y2089542D1*
X5157840Y2105472D1*
X5157210Y2121500D1*
X5157840Y2137528D1*
X5159725Y2153458D1*
X5162855Y2169191D1*
X5167209Y2184629D1*
X5172761Y2199678D1*
X5179476Y2214246D1*
X5187314Y2228241D1*
X5196226Y2241579D1*
X5206157Y2254176D1*
X5217045Y2265955D1*
X5228824Y2276843D1*
X5241421Y2286774D1*
X5254759Y2295686D1*
X5268754Y2303524D1*
X5283322Y2310239D1*
X5298371Y2315791D1*
X5313809Y2320145D1*
X5329542Y2323275D1*
X5345472Y2325160D1*
X5361500Y2325790D1*
X5390160Y2323665D1*
X5390210Y4086305D1*
X5369729Y4084376D1*
X5346412Y4084768D1*
X5323291Y4087815D1*
X5300668Y4093477D1*
X5278838Y4101681D1*
X5258085Y4112319D1*
X5238680Y4125253D1*
X5220875Y4140314D1*
X5204903Y4157307D1*
X5190971Y4176008D1*
X5179262Y4196176D1*
X5169927Y4217547D1*
X5163089Y4239843D1*
X5158836Y4262773D1*
X5157225Y4286037D1*
X5158275Y4309334D1*
X5161974Y4332360D1*
X5168272Y4354814D1*
X5177089Y4376404D1*
X5188309Y4396848D1*
X5201786Y4415880D1*
X5217344Y4433253D1*
X5234780Y4448739D1*
X5253868Y4462137D1*
X5274358Y4473272D1*
X5295984Y4482000D1*
X5318464Y4488206D1*
X5341505Y4491809D1*
X5364806Y4492763D1*
X5388064Y4491056D1*
X5390211Y4490749D1*
X5390210Y4586148D1*
X5361500Y4584210D1*
X5345472Y4584840D1*
X5329542Y4586725D1*
X5313809Y4589855D1*
X5298371Y4594209D1*
X5283322Y4599761D1*
X5268754Y4606476D1*
X5254759Y4614314D1*
X5241421Y4623226D1*
X5228824Y4633157D1*
X5217045Y4644045D1*
X5206157Y4655824D1*
X5196226Y4668421D1*
X5187314Y4681759D1*
X5179476Y4695754D1*
X5172761Y4710322D1*
X5167209Y4725371D1*
X5162855Y4740809D1*
X5159725Y4756542D1*
X5157840Y4772472D1*
X5157210Y4788500D1*
X5157840Y4804528D1*
X5159725Y4820458D1*
X5162855Y4836191D1*
X5167209Y4851629D1*
X5172761Y4866678D1*
X5179476Y4881246D1*
X5187314Y4895241D1*
X5196226Y4908579D1*
X5206157Y4921176D1*
X5217045Y4932955D1*
X5228824Y4943843D1*
X5241421Y4953774D1*
X5254759Y4962686D1*
X5268754Y4970524D1*
X5283322Y4977239D1*
X5298371Y4982791D1*
X5313809Y4987145D1*
X5329542Y4990275D1*
X5345472Y4992160D1*
X5361500Y4992790D1*
X5377528Y4992160D1*
X5393458Y4990275D1*
X5409191Y4987145D1*
X5424629Y4982791D1*
X5439678Y4977239D1*
X5454246Y4970524D1*
X5468241Y4962686D1*
X5481579Y4953774D1*
X5494176Y4943843D1*
X5505955Y4932955D1*
X5516843Y4921176D1*
X5526774Y4908579D1*
X5535686Y4895241D1*
X5543524Y4881246D1*
X5550239Y4866678D1*
X5555791Y4851629D1*
X5560145Y4836191D1*
X5563275Y4820458D1*
X5565160Y4804528D1*
X5565790Y4788500D1*
X5565160Y4772472D1*
X5562162Y4750950D1*
X5593167Y4719375D1*
X5603801Y4704739D1*
X5612014Y4688620D1*
X5617605Y4671414D1*
X5620435Y4653546D1*
X5620790Y4574500D1*
Y3818445D1*
X5643644Y3825422D1*
X5658606Y3828398D1*
X5673756Y3830191D1*
X5689000Y3830790D1*
X5704244Y3830191D1*
X5719394Y3828398D1*
X5734356Y3825422D1*
X5749039Y3821281D1*
X5763352Y3816001D1*
X5777206Y3809614D1*
X5790516Y3802159D1*
X5803201Y3793684D1*
X5815181Y3784239D1*
X5826384Y3773884D1*
X5836739Y3762681D1*
X5846184Y3750701D1*
X5854659Y3738016D1*
X5862114Y3724706D1*
X5868501Y3710852D1*
X5873781Y3696539D1*
X5877922Y3681856D1*
X5880898Y3666894D1*
X5882691Y3651744D1*
X5883290Y3636500D1*
X5882691Y3621256D1*
X5880898Y3606106D1*
X5877922Y3591144D1*
X5873781Y3576461D1*
X5868501Y3562148D1*
X5862114Y3548294D1*
X5854659Y3534984D1*
X5846184Y3522299D1*
X5836739Y3510319D1*
X5826384Y3499116D1*
X5815181Y3488761D1*
X5803201Y3479316D1*
X5790516Y3470841D1*
X5777206Y3463386D1*
X5763352Y3456999D1*
X5749039Y3451719D1*
X5734356Y3447578D1*
X5719394Y3444602D1*
X5704244Y3442809D1*
X5689000Y3442210D1*
X5673756Y3442809D1*
X5658606Y3444602D1*
X5643644Y3447578D1*
X5620742Y3454751D1*
X5620790Y2918471D1*
X5643644Y2925422D1*
X5658606Y2928398D1*
X5673756Y2930191D1*
X5689000Y2930790D1*
X5704244Y2930191D1*
X5719394Y2928398D1*
X5734356Y2925422D1*
X5749039Y2921281D1*
X5763352Y2916001D1*
X5777206Y2909614D1*
X5790516Y2902159D1*
X5803201Y2893684D1*
X5815181Y2884239D1*
X5826384Y2873884D1*
X5836739Y2862681D1*
X5846184Y2850701D1*
X5854659Y2838016D1*
X5862114Y2824706D1*
X5868501Y2810852D1*
X5873781Y2796539D1*
X5877922Y2781856D1*
X5880898Y2766894D1*
X5882691Y2751744D1*
X5883290Y2736500D1*
X5882691Y2721256D1*
X5880898Y2706106D1*
X5877922Y2691144D1*
X5873781Y2676461D1*
X5868501Y2662148D1*
X5862114Y2648294D1*
X5854659Y2634984D1*
X5846184Y2622299D1*
X5836739Y2610319D1*
X5826384Y2599116D1*
X5815181Y2588761D1*
X5803201Y2579316D1*
X5790516Y2570841D1*
X5777206Y2563386D1*
X5763352Y2556999D1*
X5749039Y2551719D1*
X5734356Y2547578D1*
X5719394Y2544602D1*
X5704244Y2542809D1*
X5689000Y2542210D1*
X5673756Y2542809D1*
X5658606Y2544602D1*
X5643644Y2547578D1*
X5620742Y2554751D1*
X5620435Y1929954D1*
X5617605Y1912086D1*
X5612014Y1894880D1*
X5603801Y1878761D1*
X5593167Y1864125D1*
X5537525Y1807980D1*
X5500595Y1771050D1*
X5513424Y1758077D1*
X5528000Y1739873D1*
X5540406Y1720126D1*
X5550481Y1699094D1*
X5558092Y1677050D1*
X5563142Y1654283D1*
X5565565Y1631088D1*
X5565310Y1607511D1*
X5562388Y1584374D1*
X5556848Y1561721D1*
X5548762Y1539847D1*
X5538236Y1519037D1*
X5525407Y1499562D1*
X5510442Y1481676D1*
X5493536Y1465613D1*
X5474910Y1451581D1*
X5454805Y1439763D1*
X5433485Y1430313D1*
X5411227Y1423354D1*
X5388320Y1418978D1*
X5365064Y1417241D1*
X5341762Y1418166D1*
X5318717Y1421740D1*
X5296229Y1427918D1*
X5274592Y1436618D1*
X5254088Y1447727D1*
X5234983Y1461101D1*
X5217527Y1476565D1*
X5201947Y1493918D1*
X5188446Y1512933D1*
X5177201Y1533363D1*
X5168357Y1554942D1*
X5162029Y1577388D1*
X5158302Y1600408D1*
X5157222Y1623704D1*
X5158804Y1646971D1*
X5163028Y1669906D1*
X5168596Y1688724D1*
X4762466Y1688710D1*
X4681745Y1607950D1*
X4706106Y1613398D1*
X4721256Y1615191D1*
X4736500Y1615790D1*
X4751744Y1615191D1*
X4766894Y1613398D1*
X4781856Y1610422D1*
X4796539Y1606281D1*
X4810852Y1601001D1*
X4824706Y1594614D1*
X4838016Y1587159D1*
X4850701Y1578684D1*
X4862681Y1569239D1*
X4873884Y1558884D1*
X4884239Y1547681D1*
X4893684Y1535701D1*
X4902159Y1523016D1*
X4909614Y1509706D1*
X4916001Y1495852D1*
X4921281Y1481539D1*
X4925422Y1466856D1*
X4928398Y1451894D1*
X4930191Y1436744D1*
X4930790Y1421500D1*
X4930191Y1406256D1*
X4928398Y1391106D1*
X4925422Y1376144D1*
X4921281Y1361461D1*
X4916227Y1347763D1*
X5397249Y1347790D1*
X5901183Y1851727D1*
X5901565Y3148046D1*
X5904395Y3165914D1*
X5909986Y3183120D1*
X5918199Y3199239D1*
X5928833Y3213875D1*
X5984475Y3270020D1*
X6113181Y3398726D1*
X6110340Y3420472D1*
X6109710Y3436500D1*
X6110340Y3452528D1*
X6112225Y3468458D1*
X6115355Y3484191D1*
X6119709Y3499629D1*
X6125261Y3514678D1*
X6131976Y3529246D1*
X6139814Y3543241D1*
X6148726Y3556579D1*
X6158657Y3569176D1*
X6169545Y3580955D1*
X6181324Y3591843D1*
X6193921Y3601774D1*
X6207259Y3610686D1*
X6221254Y3618524D1*
X6235822Y3625239D1*
X6250871Y3630791D1*
X6266309Y3635145D1*
X6282042Y3638275D1*
X6297972Y3640160D1*
X6314000Y3640790D1*
X6330028Y3640160D1*
X6345958Y3638275D1*
X6361691Y3635145D1*
X6377129Y3630791D1*
X6392178Y3625239D1*
X6406746Y3618524D1*
X6420741Y3610686D1*
X6434079Y3601774D1*
X6446676Y3591843D1*
X6458455Y3580955D1*
X6469343Y3569176D1*
X6479274Y3556579D1*
X6488186Y3543241D1*
X6496024Y3529246D1*
X6502739Y3514678D1*
X6508291Y3499629D1*
X6512645Y3484191D1*
X6515775Y3468458D1*
X6517660Y3452528D1*
X6518290Y3436500D1*
X6517660Y3420472D1*
X6515775Y3404542D1*
X6512645Y3388809D1*
X6508291Y3373371D1*
X6502739Y3358322D1*
X6496024Y3343754D1*
X6488186Y3329759D1*
X6479274Y3316421D1*
X6469343Y3303824D1*
X6458455Y3292045D1*
X6446676Y3281157D1*
X6434079Y3271226D1*
X6420741Y3262314D1*
X6406746Y3254476D1*
X6392178Y3247761D1*
X6377129Y3242209D1*
X6361691Y3237855D1*
X6345958Y3234725D1*
X6330028Y3232840D1*
X6314000Y3232210D1*
X6297972Y3232840D1*
X6276450Y3235838D1*
X6131729Y3091184D1*
X6131790Y3028805D1*
X6143329Y3048776D1*
X6157237Y3067495D1*
X6173188Y3084508D1*
X6190973Y3099592D1*
X6210362Y3112550D1*
X6231102Y3123214D1*
X6252921Y3131446D1*
X6275537Y3137136D1*
X6298654Y3140213D1*
X6321971Y3140634D1*
X6345184Y3138396D1*
X6367990Y3133527D1*
X6390093Y3126090D1*
X6411205Y3116182D1*
X6431050Y3103933D1*
X6449369Y3089502D1*
X6465924Y3073077D1*
X6480500Y3054873D1*
X6492906Y3035126D1*
X6502981Y3014094D1*
X6510592Y2992050D1*
X6515642Y2969283D1*
X6518065Y2946088D1*
X6517810Y2922511D1*
X6514888Y2899374D1*
X6509348Y2876721D1*
X6501262Y2854847D1*
X6490736Y2834037D1*
X6477907Y2814562D1*
X6462942Y2796676D1*
X6446036Y2780613D1*
X6427410Y2766581D1*
X6407305Y2754763D1*
X6385985Y2745313D1*
X6363727Y2738354D1*
X6340820Y2733978D1*
X6317564Y2732241D1*
X6294262Y2733166D1*
X6271217Y2736740D1*
X6248729Y2742918D1*
X6227092Y2751618D1*
X6206588Y2762727D1*
X6187483Y2776101D1*
X6170027Y2791565D1*
X6154447Y2808918D1*
X6140946Y2827933D1*
X6131787Y2844128D1*
X6131435Y1794954D1*
X6128605Y1777086D1*
X6123014Y1759880D1*
X6114801Y1743761D1*
X6104167Y1729125D1*
X6048525Y1672980D1*
X5519875Y1144833D1*
X5505239Y1134199D1*
X5489120Y1125986D1*
X5471914Y1120395D1*
X5454046Y1117565D1*
X5375000Y1117210D1*
X3286654Y1117565D1*
X3268786Y1120395D1*
X3251580Y1125986D1*
X3235461Y1134199D1*
X3220825Y1144833D1*
X3164680Y1200475D1*
X2556533Y1809125D1*
X2545899Y1823761D1*
X2537686Y1839880D1*
X2532095Y1857086D1*
X2529264Y1874990D1*
X2524000Y1877510D1*
X2495765Y1879732D1*
X2468226Y1886344D1*
X2442059Y1897182D1*
X2417911Y1911981D1*
X2396984Y1929811D1*
X2376089Y1911981D1*
X2351941Y1897182D1*
X2325774Y1886344D1*
X2298235Y1879732D1*
X2270000Y1877510D1*
X2241765Y1879732D1*
X2214226Y1886344D1*
X2188059Y1897182D1*
X2163911Y1911981D1*
X2142374Y1930374D1*
X2123981Y1951911D1*
X2109182Y1976059D1*
X2098344Y2002226D1*
X2091732Y2029765D1*
X2089510Y2058000D1*
X2091732Y2086235D1*
X2098344Y2113774D1*
X2109182Y2139941D1*
X2123981Y2164089D1*
X2142374Y2185626D1*
X2154737Y2196788D1*
X2154710Y2611529D1*
X2143384Y2599116D1*
X2132181Y2588761D1*
X2120201Y2579316D1*
X2107516Y2570841D1*
X2094206Y2563386D1*
X2080352Y2556999D1*
X2066039Y2551719D1*
X2051356Y2547578D1*
X2036394Y2544602D1*
X2021244Y2542809D1*
X2006000Y2542210D1*
X1990756Y2542809D1*
X1975606Y2544602D1*
X1960644Y2547578D1*
X1945961Y2551719D1*
X1931648Y2556999D1*
X1917794Y2563386D1*
X1904484Y2570841D1*
X1891799Y2579316D1*
X1879819Y2588761D1*
X1868616Y2599116D1*
X1858261Y2610319D1*
X1848816Y2622299D1*
X1840341Y2634984D1*
X1832886Y2648294D1*
X1826499Y2662148D1*
X1821219Y2676461D1*
X1817078Y2691144D1*
X1814102Y2706106D1*
X1812309Y2721256D1*
X1811710Y2736500D1*
X1812309Y2751744D1*
X1814102Y2766894D1*
X1817078Y2781856D1*
X1821219Y2796539D1*
X1826499Y2810852D1*
X1832886Y2824706D1*
X1840341Y2838016D1*
X1848816Y2850701D1*
X1858261Y2862681D1*
X1868616Y2873884D1*
X1879819Y2884239D1*
X1891799Y2893684D1*
X1904484Y2902159D1*
X1917794Y2909614D1*
X1931648Y2916001D1*
X1945961Y2921281D1*
X1960644Y2925422D1*
X1975606Y2928398D1*
X1990756Y2930191D1*
X2006000Y2930790D1*
X2021244Y2930191D1*
X2036394Y2928398D1*
X2051356Y2925422D1*
X2066039Y2921281D1*
X2080352Y2916001D1*
X2094206Y2909614D1*
X2107516Y2902159D1*
X2120201Y2893684D1*
X2132181Y2884239D1*
X2143384Y2873884D1*
X2154735Y2861418D1*
X2155065Y3084546D1*
X2157895Y3102414D1*
X2163486Y3119620D1*
X2171699Y3135739D1*
X2182333Y3150375D1*
X2237975Y3206520D1*
X2430229Y3398774D1*
X2427340Y3420472D1*
X2426710Y3436500D1*
X2427340Y3452528D1*
X2429225Y3468458D1*
X2432355Y3484191D1*
X2436709Y3499629D1*
X2442261Y3514678D1*
X2448976Y3529246D1*
X2456814Y3543241D1*
X2465726Y3556579D1*
X2475657Y3569176D1*
X2486545Y3580955D1*
X2498324Y3591843D1*
X2510921Y3601774D1*
X2524259Y3610686D1*
X2538254Y3618524D1*
X2552822Y3625239D1*
X2567871Y3630791D1*
X2583309Y3635145D1*
X2599042Y3638275D1*
X2614972Y3640160D1*
X2631000Y3640790D1*
X2647028Y3640160D1*
X2662958Y3638275D1*
X2678691Y3635145D1*
X2694129Y3630791D1*
X2709178Y3625239D1*
X2723746Y3618524D1*
X2737741Y3610686D1*
X2751079Y3601774D1*
X2763676Y3591843D1*
X2775455Y3580955D1*
X2786343Y3569176D1*
X2796274Y3556579D1*
X2805186Y3543241D1*
X2813024Y3529246D1*
X2819739Y3514678D1*
X2825291Y3499629D1*
X2829645Y3484191D1*
X2832775Y3468458D1*
X2834660Y3452528D1*
X2835290Y3436500D1*
X2834660Y3420472D1*
X2832775Y3404542D1*
X2829645Y3388809D1*
X2825291Y3373371D1*
X2819739Y3358322D1*
X2813024Y3343754D1*
X2805186Y3329759D1*
X2796274Y3316421D1*
X2786343Y3303824D1*
X2775455Y3292045D1*
X2763676Y3281157D1*
X2751079Y3271226D1*
X2737741Y3262314D1*
X2723746Y3254476D1*
X2709178Y3247761D1*
X2694129Y3242209D1*
X2678691Y3237855D1*
X2662958Y3234725D1*
X2647028Y3232840D1*
X2631000Y3232210D1*
X2614972Y3232840D1*
X2593450Y3235838D1*
X2498356Y3140811D1*
X2835291Y3140789D1*
Y2732209D1*
X2426711D1*
Y3069176D1*
X2385311Y3027766D1*
X2385290Y2196945D1*
X2397016Y2186189D1*
X2410476Y2198159D1*
X2414352Y2213827D1*
X2421276Y2230541D1*
X2430728Y2245966D1*
X2442503Y2259746D1*
X2646425Y2463167D1*
X2661061Y2473801D1*
X2677180Y2482014D1*
X2694386Y2487605D1*
X2712254Y2490435D1*
X2791300Y2490790D1*
X3421466Y2490435D1*
X3439334Y2487605D1*
X3456540Y2482014D1*
X3472659Y2473801D1*
X3487295Y2463167D1*
X3543440Y2407525D1*
X3904681Y2046284D1*
X3907211Y2057209D1*
Y2325789D1*
X3996260D1*
X3996210Y2772190D1*
X3303821Y3464634D1*
X3305790Y3436500D1*
X3305160Y3420472D1*
X3303275Y3404542D1*
X3300145Y3388809D1*
X3295791Y3373371D1*
X3290239Y3358322D1*
X3283524Y3343754D1*
X3275686Y3329759D1*
X3266774Y3316421D1*
X3256843Y3303824D1*
X3245955Y3292045D1*
X3234176Y3281157D1*
X3221579Y3271226D1*
X3208241Y3262314D1*
X3194246Y3254476D1*
X3179678Y3247761D1*
X3164629Y3242209D1*
X3149191Y3237855D1*
X3133458Y3234725D1*
X3117528Y3232840D1*
X3101500Y3232210D1*
X3085472Y3232840D1*
X3069542Y3234725D1*
X3053809Y3237855D1*
X3038371Y3242209D1*
X3023322Y3247761D1*
X3008754Y3254476D1*
X2994759Y3262314D1*
X2981421Y3271226D1*
X2968824Y3281157D1*
X2957045Y3292045D1*
X2946157Y3303824D1*
X2936226Y3316421D1*
X2927314Y3329759D1*
X2919476Y3343754D1*
X2912761Y3358322D1*
X2907209Y3373371D1*
X2902855Y3388809D1*
X2899725Y3404542D1*
X2897840Y3420472D1*
X2897210Y3436500D1*
X2897840Y3452528D1*
X2899725Y3468458D1*
X2902940Y3484492D1*
X2539762Y3847693D1*
X2006954Y3848065D1*
X1989086Y3850895D1*
X1971880Y3856486D1*
X1955761Y3864699D1*
X1941125Y3875333D1*
X1884980Y3930975D1*
X1737833Y4078625D1*
X1727199Y4093261D1*
X1718986Y4109380D1*
X1713395Y4126586D1*
X1710565Y4144454D1*
X1710210Y4223500D1*
X1710565Y4607046D1*
X1713395Y4624914D1*
X1718986Y4642120D1*
X1727199Y4658239D1*
X1737832Y4672875D1*
X1793475Y4729020D1*
X1893308Y4828853D1*
X1897485Y4843904D1*
X1908251Y4869896D1*
X1922951Y4893884D1*
X1941223Y4915277D1*
X1930748Y4927226D1*
X1555747Y4927210D1*
X1496264Y4867719D1*
X1496290Y3605096D1*
X1513676Y3591843D1*
X1525455Y3580955D1*
X1536343Y3569176D1*
X1546274Y3556579D1*
X1555186Y3543241D1*
X1563024Y3529246D1*
X1569739Y3514678D1*
X1575291Y3499629D1*
X1579645Y3484191D1*
X1582775Y3468458D1*
X1584660Y3452528D1*
X1585290Y3436500D1*
X1584660Y3420472D1*
X1582775Y3404542D1*
X1579645Y3388809D1*
X1575291Y3373371D1*
X1569739Y3358322D1*
X1563024Y3343754D1*
X1555186Y3329759D1*
X1546274Y3316421D1*
X1536343Y3303824D1*
X1525455Y3292045D1*
X1513676Y3281157D1*
X1501079Y3271226D1*
X1487741Y3262314D1*
X1473746Y3254476D1*
X1459178Y3247761D1*
X1444129Y3242209D1*
X1428691Y3237855D1*
X1412958Y3234725D1*
X1397028Y3232840D1*
X1381000Y3232210D1*
X1364972Y3232840D1*
X1349042Y3234725D1*
X1333309Y3237855D1*
X1317871Y3242209D1*
X1302822Y3247761D1*
X1288254Y3254476D1*
X1274259Y3262314D1*
X1260921Y3271226D1*
X1248324Y3281157D1*
X1236545Y3292045D1*
X1225657Y3303824D1*
X1215726Y3316421D1*
X1206814Y3329759D1*
X1198976Y3343754D1*
X1192261Y3358322D1*
X1186709Y3373371D1*
X1182355Y3388809D1*
X1179225Y3404542D1*
X1177340Y3420472D1*
X1176710Y3436500D1*
X1177340Y3452528D1*
X1179225Y3468458D1*
X1182355Y3484191D1*
X1186709Y3499629D1*
X1192261Y3514678D1*
X1198976Y3529246D1*
X1206814Y3543241D1*
X1215726Y3556579D1*
X1225657Y3569176D1*
X1236545Y3580955D1*
X1248324Y3591843D1*
X1265662Y3604942D1*
X1266065Y4924546D1*
X1268895Y4942414D1*
X1274486Y4959620D1*
X1282699Y4975739D1*
X1293333Y4990375D1*
X1348975Y5046520D1*
X1433125Y5130167D1*
X1447761Y5140801D1*
X1463880Y5149014D1*
X1481086Y5154605D1*
X1498954Y5157435D1*
X1578000Y5157790D1*
X1930643D1*
X1941223Y5169723D1*
X1922951Y5191116D1*
X1908251Y5215104D1*
X1897485Y5241096D1*
X1890917Y5268453D1*
X1888710Y5296500D1*
X1890917Y5324547D1*
X1897485Y5351904D1*
X1908251Y5377896D1*
X1922951Y5401884D1*
X1941223Y5423277D1*
X1931667Y5434060D1*
X1915130Y5456821D1*
X1902358Y5481889D1*
X1893664Y5508646D1*
X1889263Y5536433D1*
Y5564567D1*
X1893664Y5592354D1*
X1902358Y5619111D1*
X1915130Y5644179D1*
X1931667Y5666940D1*
X1941223Y5677723D1*
X1930748Y5689226D1*
X1785070Y5689210D1*
X1768848Y5670652D1*
X1757934Y5660563D1*
X1746262Y5651361D1*
X1733904Y5643104D1*
X1720936Y5635841D1*
X1707438Y5629619D1*
X1693494Y5624475D1*
X1679189Y5620440D1*
X1664611Y5617540D1*
X1649852Y5615794D1*
X1635000Y5615210D1*
X1620148Y5615794D1*
X1605389Y5617540D1*
X1590811Y5620440D1*
X1576506Y5624475D1*
X1562562Y5629619D1*
X1549064Y5635841D1*
X1536096Y5643104D1*
X1523738Y5651361D1*
X1512066Y5660563D1*
X1501152Y5670652D1*
X1491063Y5681566D1*
X1481861Y5693238D1*
X1473604Y5705596D1*
X1466341Y5718564D1*
X1460119Y5732062D1*
X1454975Y5746006D1*
X1450940Y5760311D1*
X1448040Y5774889D1*
X1446294Y5789648D1*
X1445710Y5804500D1*
X1446294Y5819352D1*
X1448040Y5834111D1*
X1450940Y5848689D1*
X1454975Y5862994D1*
X1460119Y5876938D1*
X1466341Y5890436D1*
X1473604Y5903404D1*
X1481861Y5915762D1*
X1494728Y5931399D1*
X1481861Y5947238D1*
X1473604Y5959596D1*
X1466341Y5972564D1*
X1460119Y5986062D1*
X1454975Y6000006D1*
X1450940Y6014311D1*
X1448040Y6028889D1*
X1446294Y6043648D1*
X1445710Y6058500D1*
X1446294Y6073352D1*
X1448040Y6088111D1*
X1450940Y6102689D1*
X1454975Y6116994D1*
X1460119Y6130938D1*
X1466341Y6144436D1*
X1473604Y6157404D1*
X1481861Y6169762D1*
X1494728Y6185399D1*
X1481861Y6201238D1*
X1473604Y6213596D1*
X1466341Y6226564D1*
X1460119Y6240062D1*
X1454975Y6254006D1*
X1450940Y6268311D1*
X1448040Y6282889D1*
X1446294Y6297648D1*
X1445710Y6312500D1*
X1446294Y6327352D1*
X1448040Y6342111D1*
X1450940Y6356689D1*
X1454975Y6370994D1*
X1460119Y6384938D1*
X1466341Y6398436D1*
X1473604Y6411404D1*
X1481861Y6423762D1*
X1494728Y6439399D1*
X1481861Y6455238D1*
X1473604Y6467596D1*
X1466341Y6480564D1*
X1460119Y6494062D1*
X1454975Y6508006D1*
X1450940Y6522311D1*
X1448040Y6536889D1*
X1446294Y6551648D1*
X1445710Y6566500D1*
X1446294Y6581352D1*
X1448040Y6596111D1*
X1450940Y6610689D1*
X1454975Y6624994D1*
X1460119Y6638938D1*
X1466341Y6652436D1*
X1473604Y6665404D1*
X1481861Y6677762D1*
X1494728Y6693399D1*
X1481861Y6709238D1*
X1473604Y6721596D1*
X1466341Y6734564D1*
X1460119Y6748062D1*
X1454975Y6762006D1*
X1450940Y6776311D1*
X1448040Y6790889D1*
X1446294Y6805648D1*
X1445710Y6820500D1*
X1446294Y6835352D1*
X1448040Y6850111D1*
X1450940Y6864689D1*
X1457285Y6885258D1*
X1445711Y6885209D1*
Y7263789D1*
X1661271D1*
X1814125Y7416167D1*
X1828761Y7426801D1*
X1844880Y7435014D1*
X1862086Y7440605D1*
X1879954Y7443435D1*
X1930654Y7443790D1*
X1941425Y7455464D1*
Y7201536D2*
X1933571Y7210001D1*
X1824291Y7100456D1*
Y6935755D1*
X1930647Y6935790D1*
X1941223Y6947723D1*
X1922951Y6969116D1*
X1908251Y6993104D1*
X1897485Y7019096D1*
X1890917Y7046453D1*
X1888710Y7074500D1*
X1890917Y7102547D1*
X1897485Y7129904D1*
X1908251Y7155896D1*
X1922951Y7179884D1*
X1941223Y7201277D1*
X1941425Y7201464D1*
X2355252Y7213226D2*
X2344777Y7201277D1*
X2363049Y7179884D1*
X2377749Y7155896D1*
X2388515Y7129904D1*
X2395083Y7102547D1*
X2397290Y7074500D1*
X2395083Y7046453D1*
X2388515Y7019096D1*
X2377749Y6993104D1*
X2363049Y6969116D1*
X2344777Y6947723D1*
X2354333Y6936940D1*
X2370870Y6914179D1*
X2383642Y6889111D1*
X2392336Y6862354D1*
X2396737Y6834567D1*
Y6806433D1*
X2392336Y6778646D1*
X2383642Y6751889D1*
X2370870Y6726821D1*
X2354333Y6704060D1*
X2344777Y6693277D1*
X2363049Y6671884D1*
X2377749Y6647896D1*
X2388515Y6621904D1*
X2395083Y6594547D1*
X2397290Y6566500D1*
X2395083Y6538453D1*
X2388515Y6511096D1*
X2377749Y6485104D1*
X2363049Y6461116D1*
X2344777Y6439723D1*
X2354333Y6428940D1*
X2370870Y6406179D1*
X2383642Y6381111D1*
X2392336Y6354354D1*
X2396737Y6326567D1*
Y6298433D1*
X2392336Y6270646D1*
X2383642Y6243889D1*
X2370870Y6218821D1*
X2354333Y6196060D1*
X2344777Y6185277D1*
X2363049Y6163884D1*
X2377749Y6139896D1*
X2388515Y6113904D1*
X2395083Y6086547D1*
X2397290Y6058500D1*
X2395083Y6030453D1*
X2388515Y6003096D1*
X2377749Y5977104D1*
X2363049Y5953116D1*
X2344777Y5931723D1*
X2354333Y5920940D1*
X2370870Y5898179D1*
X2383642Y5873111D1*
X2392336Y5846354D1*
X2396737Y5818567D1*
Y5790433D1*
X2392336Y5762646D1*
X2383642Y5735889D1*
X2370870Y5710821D1*
X2354333Y5688060D1*
X2344777Y5677277D1*
X2363049Y5655884D1*
X2377749Y5631896D1*
X2388515Y5605904D1*
X2395083Y5578547D1*
X2397290Y5550500D1*
X2395083Y5522453D1*
X2388515Y5495096D1*
X2377749Y5469104D1*
X2363049Y5445116D1*
X2344777Y5423723D1*
X2354333Y5412940D1*
X2370870Y5390179D1*
X2383642Y5365111D1*
X2392336Y5338354D1*
X2396737Y5310567D1*
Y5282433D1*
X2392336Y5254646D1*
X2383642Y5227889D1*
X2370870Y5202821D1*
X2354333Y5180060D1*
X2344777Y5169277D1*
X2363049Y5147884D1*
X2377749Y5123896D1*
X2388515Y5097904D1*
X2395083Y5070547D1*
X2397290Y5042500D1*
X2395083Y5014453D1*
X2388515Y4987096D1*
X2377749Y4961104D1*
X2363049Y4937116D1*
X2344777Y4915723D1*
X2354333Y4904940D1*
X2370870Y4882179D1*
X2383642Y4857111D1*
X2392336Y4830354D1*
X2396737Y4802567D1*
Y4774433D1*
X2392336Y4746646D1*
X2383642Y4719889D1*
X2370870Y4694821D1*
X2354333Y4672060D1*
X2344777Y4661277D1*
X2363049Y4639884D1*
X2377749Y4615896D1*
X2388515Y4589904D1*
X2395083Y4562547D1*
X2397279Y4534775D1*
X2425047Y4532583D1*
X2452404Y4526015D1*
X2478396Y4515249D1*
X2502384Y4500549D1*
X2523777Y4482277D1*
X2534560Y4491833D1*
X2557321Y4508370D1*
X2582389Y4521142D1*
X2609146Y4529836D1*
X2636933Y4534237D1*
X2665067D1*
X2692854Y4529836D1*
X2719611Y4521142D1*
X2744679Y4508370D1*
X2767440Y4491833D1*
X2778223Y4482277D1*
X2799616Y4500549D1*
X2823604Y4515249D1*
X2849596Y4526015D1*
X2876953Y4532583D1*
X2905000Y4534790D1*
X2933047Y4532583D1*
X2960404Y4526015D1*
X2986396Y4515249D1*
X3010384Y4500549D1*
X3031777Y4482277D1*
X3042560Y4491833D1*
X3065321Y4508370D1*
X3090389Y4521142D1*
X3117146Y4529836D1*
X3144933Y4534237D1*
X3173067D1*
X3200854Y4529836D1*
X3227611Y4521142D1*
X3252679Y4508370D1*
X3275440Y4491833D1*
X3286223Y4482277D1*
X3294501Y4489929D1*
X2944333Y4840625D1*
X2933699Y4855261D1*
X2925486Y4871380D1*
X2919895Y4888586D1*
X2917065Y4906454D1*
X2916710Y4990148D1*
X2672710Y4990210D1*
Y5348790D1*
X2726760D1*
X2726710Y7213263D1*
X2355357Y7213210D1*
X1941425Y6693536D2*
X1930748Y6705226D1*
X1785179Y6705210D1*
X1775272Y6693601D1*
X1784940Y6681820D1*
X1930654Y6681790D1*
X1941425Y6693464D1*
Y6439536D2*
X1930748Y6451226D1*
X1785185Y6451210D1*
X1775272Y6439601D1*
X1784940Y6427820D1*
X1930768Y6427790D1*
X1941425Y6439464D1*
Y6185536D2*
X1930748Y6197226D1*
X1785065Y6197210D1*
X1775272Y6185601D1*
X1784940Y6173820D1*
X1930768Y6173790D1*
X1941425Y6185464D1*
Y5931536D2*
X1930748Y5943226D1*
X1785070Y5943210D1*
X1775272Y5931601D1*
X1784940Y5919820D1*
X1930768Y5919790D1*
X1941425Y5931464D1*
X2068055Y4101212D2*
X2039953Y4103417D1*
X2038281Y4103750D1*
X2063700Y4078345D1*
X2270223Y4078723D1*
X2251951Y4100116D1*
X2249354Y4104002D1*
X2232067Y4101763D1*
X2171334Y4101209D1*
X2068001Y4101301D1*
X3879252Y7467226D2*
X3868575Y7455536D1*
X3883527Y7438569D1*
X3894199Y7423264D1*
X3903224Y7406934D1*
X3910502Y7389753D1*
X3915955Y7371910D1*
X3919525Y7353596D1*
X3921172Y7335011D1*
X3920744Y7314514D1*
X3918322Y7296014D1*
X3913991Y7277865D1*
X3907798Y7260265D1*
X3899808Y7243404D1*
X3890110Y7227464D1*
X3878808Y7212619D1*
X3868777Y7201277D1*
X3887049Y7179884D1*
X3901749Y7155896D1*
X3912515Y7129904D1*
X3919083Y7102547D1*
X3921290Y7074500D1*
X3919083Y7046453D1*
X3912515Y7019096D1*
X3901749Y6993104D1*
X3887049Y6969116D1*
X3868777Y6947723D1*
X3872995Y6942714D1*
X3885449Y6958665D1*
X3897403Y6971597D1*
X3910335Y6983551D1*
X3924166Y6994454D1*
X3938809Y7004239D1*
X3954174Y7012844D1*
X3970168Y7020217D1*
X3986691Y7026312D1*
X4003641Y7031093D1*
X4020913Y7034529D1*
X4038402Y7036599D1*
X4056000Y7037290D1*
X4073598Y7036599D1*
X4091087Y7034529D1*
X4108359Y7031093D1*
X4125309Y7026312D1*
X4141832Y7020217D1*
X4157826Y7012844D1*
X4173191Y7004239D1*
X4186748Y6995181D1*
X4186710Y7467227D1*
X3879357Y7467210D1*
X3920737Y6552433D2*
X3916336Y6524646D1*
X3907642Y6497889D1*
X3894870Y6472821D1*
X3878333Y6450060D1*
X3868777Y6439277D1*
X3887049Y6417884D1*
X3901749Y6393896D1*
X3912515Y6367904D1*
X3919083Y6340547D1*
X3921290Y6312500D1*
X3919083Y6284453D1*
X3912515Y6257096D1*
X3901749Y6231104D1*
X3887049Y6207116D1*
X3868777Y6185723D1*
X3878333Y6174940D1*
X3894870Y6152179D1*
X3907642Y6127111D1*
X3916336Y6100354D1*
X3920737Y6072567D1*
Y6044433D1*
X3916336Y6016646D1*
X3907642Y5989889D1*
X3894870Y5964821D1*
X3878333Y5942060D1*
X3868777Y5931277D1*
X3887049Y5909884D1*
X3901749Y5885896D1*
X3912515Y5859904D1*
X3919083Y5832547D1*
X3921290Y5804500D1*
X3919083Y5776453D1*
X3912515Y5749096D1*
X3901749Y5723104D1*
X3887049Y5699116D1*
X3868777Y5677723D1*
X3878333Y5666940D1*
X3894870Y5644179D1*
X3907642Y5619111D1*
X3916336Y5592354D1*
X3920737Y5564567D1*
Y5536433D1*
X3916336Y5508646D1*
X3907642Y5481889D1*
X3894870Y5456821D1*
X3878333Y5434060D1*
X3868777Y5423277D1*
X3887049Y5401884D1*
X3901749Y5377896D1*
X3912515Y5351904D1*
X3919083Y5324547D1*
X3921290Y5296500D1*
X3919083Y5268453D1*
X3912515Y5241096D1*
X3901749Y5215104D1*
X3887049Y5191116D1*
X3868777Y5169723D1*
X3876429Y5160999D1*
X4100125Y5384167D1*
X4114761Y5394801D1*
X4130880Y5403014D1*
X4148086Y5408605D1*
X4165954Y5411435D1*
X4245000Y5411790D1*
X5143242D1*
X5723749Y5992294D1*
X5723711Y6351289D1*
X6146210Y6351500D1*
Y6951878D1*
X5893977Y6951810D1*
X5886118Y6940151D1*
X5874874Y6925889D1*
X5862547Y6912553D1*
X5849211Y6900226D1*
X5834949Y6888982D1*
X5819849Y6878893D1*
X5804003Y6870019D1*
X5787511Y6862416D1*
X5770473Y6856130D1*
X5752994Y6851201D1*
X5735182Y6847658D1*
X5717147Y6845523D1*
X5675667Y6844810D1*
X5503674D1*
X5515000Y6837490D1*
X5699000D1*
X5717147Y6836777D1*
X5735182Y6834642D1*
X5752994Y6831099D1*
X5770473Y6826170D1*
X5787511Y6819884D1*
X5804003Y6812281D1*
X5819849Y6803407D1*
X5834949Y6793318D1*
X5849211Y6782074D1*
X5862547Y6769747D1*
X5874874Y6756411D1*
X5886118Y6742149D1*
X5896207Y6727049D1*
X5905081Y6711203D1*
X5912684Y6694711D1*
X5918970Y6677673D1*
X5923899Y6660194D1*
X5927442Y6642382D1*
X5929577Y6624347D1*
X5930290Y6606200D1*
X5929577Y6588053D1*
X5927442Y6570018D1*
X5923899Y6552206D1*
X5918970Y6534727D1*
X5912684Y6517689D1*
X5905081Y6501197D1*
X5896207Y6485351D1*
X5886118Y6470251D1*
X5874874Y6455989D1*
X5862547Y6442653D1*
X5849211Y6430326D1*
X5834949Y6419082D1*
X5819849Y6408993D1*
X5804003Y6400119D1*
X5787511Y6392516D1*
X5770473Y6386230D1*
X5752994Y6381301D1*
X5735182Y6377758D1*
X5717147Y6375623D1*
X5675667Y6374910D1*
X5445000D1*
X5426853Y6375623D1*
X5408818Y6377758D1*
X5391006Y6381301D1*
X5373527Y6386230D1*
X5356489Y6392516D1*
X5339997Y6400119D1*
X5324151Y6408993D1*
X5309051Y6419082D1*
X5294789Y6430326D1*
X5281453Y6442653D1*
X5269126Y6455989D1*
X5257882Y6470251D1*
X5247793Y6485351D1*
X5238919Y6501197D1*
X5231316Y6517689D1*
X5225030Y6534727D1*
X5218620Y6559651D1*
X4756275Y6097833D1*
X4741639Y6087199D1*
X4725520Y6078986D1*
X4708314Y6073395D1*
X4690446Y6070565D1*
X4611400Y6070210D1*
X4419954Y6070565D1*
X4402086Y6073395D1*
X4384880Y6078986D1*
X4368761Y6087199D1*
X4354125Y6097833D1*
X4297980Y6153475D1*
X4214333Y6237625D1*
X4203699Y6252261D1*
X4195486Y6268380D1*
X4189895Y6285586D1*
X4187065Y6303454D1*
X4186710Y6382500D1*
Y6630690D1*
X4173191Y6621761D1*
X4157826Y6613156D1*
X4141832Y6605783D1*
X4125309Y6599688D1*
X4108359Y6594907D1*
X4091087Y6591471D1*
X4073598Y6589401D1*
X4056000Y6588710D1*
X4038402Y6589401D1*
X4020913Y6591471D1*
X4003641Y6594907D1*
X3986691Y6599688D1*
X3970168Y6605783D1*
X3954174Y6613156D1*
X3938809Y6621761D1*
X3924166Y6631546D1*
X3910335Y6642449D1*
X3899171Y6652769D1*
X3907642Y6635111D1*
X3916336Y6608354D1*
X3920737Y6580567D1*
Y6552433D1*
X3896240Y4443268D2*
X3887049Y4429116D1*
X3868777Y4407723D1*
X3878333Y4396940D1*
X3894870Y4374179D1*
X3907642Y4349111D1*
X3912855Y4336191D1*
X3917209Y4351629D1*
X3922761Y4366678D1*
X3929476Y4381246D1*
X3937314Y4395241D1*
X3946226Y4408579D1*
X3956157Y4421176D1*
X3967045Y4432955D1*
X3978824Y4443843D1*
X3991421Y4453774D1*
X4004759Y4462686D1*
X4018754Y4470524D1*
X4033322Y4477239D1*
X4048371Y4482791D1*
X4063809Y4487145D1*
X4079542Y4490275D1*
X4095472Y4492160D1*
X4111500Y4492790D1*
X4127528Y4492160D1*
X4143458Y4490275D1*
X4159191Y4487145D1*
X4174629Y4482791D1*
X4189678Y4477239D1*
X4204246Y4470524D1*
X4218241Y4462686D1*
X4231579Y4453774D1*
X4250203Y4438271D1*
X4250210Y4584284D1*
X4026949Y4584209D1*
X4019301Y4569511D1*
X4008667Y4554875D1*
X3953025Y4498730D1*
X3900597Y4446811D1*
X2777964Y4078925D2*
X2767440Y4069167D1*
X2744679Y4052630D1*
X2719611Y4039858D1*
X2692854Y4031164D1*
X2684171Y4029437D1*
X3074605Y3638940D1*
X3101500Y3640790D1*
X3129787Y3638709D1*
X2817332Y3951625D1*
X2806699Y3966261D1*
X2798486Y3982380D1*
X2792895Y3999586D1*
X2790065Y4017454D1*
X2789710Y4068154D1*
X2778036Y4078925D1*
X4226859Y2325789D2*
X4315791D1*
Y2076141D1*
X4408905Y2169200D1*
X4408960Y2732268D1*
X4226845Y2732209D1*
X4226790Y2325716D1*
X4315160Y1605472D2*
X4313275Y1589542D1*
X4310145Y1573809D1*
X4305640Y1557959D1*
X4448308Y1700603D1*
X4432877Y1694352D1*
X4415285Y1690129D1*
X4397250Y1688710D1*
X4304372D1*
X4310145Y1669191D1*
X4313275Y1653458D1*
X4315160Y1637528D1*
X4315790Y1621500D1*
X4315160Y1605472D1*
X3942780Y1506579D2*
X3929476Y1528754D1*
X3922761Y1543322D1*
X3917209Y1558371D1*
X3912855Y1573809D1*
X3909725Y1589542D1*
X3907840Y1605472D1*
X3907210Y1621500D1*
X3907840Y1637528D1*
X3909725Y1653458D1*
X3912855Y1669191D1*
X3918705Y1688685D1*
X3651154Y1689065D1*
X3633286Y1691895D1*
X3616080Y1697486D1*
X3599961Y1705699D1*
X3585325Y1716333D1*
X3529180Y1771975D1*
X3390419Y1910735D1*
X3367941Y1897182D1*
X3341774Y1886344D1*
X3314235Y1879732D1*
X3286000Y1877510D1*
X3257765Y1879732D1*
X3230226Y1886344D1*
X3204059Y1897182D1*
X3179911Y1911981D1*
X3158984Y1929811D1*
X3138089Y1911981D1*
X3113941Y1897182D1*
X3105645Y1893358D1*
X3492484Y1506561D1*
X3942680Y1506540D1*
X4556773Y1347763D2*
X4551719Y1361461D1*
X4547578Y1376144D1*
X4544602Y1391106D1*
X4542809Y1406256D1*
X4542210Y1421500D1*
X4542809Y1436744D1*
X4544602Y1451894D1*
X4550312Y1476549D1*
X4421626Y1347831D1*
X4556703Y1347790D1*
X5267660Y2920472D2*
X5265775Y2904542D1*
X5262645Y2888809D1*
X5258291Y2873371D1*
X5252739Y2858322D1*
X5246024Y2843754D1*
X5238186Y2829759D1*
X5229274Y2816421D1*
X5219343Y2803824D1*
X5208455Y2792045D1*
X5196676Y2781157D1*
X5184079Y2771226D1*
X5170741Y2762314D1*
X5156746Y2754476D1*
X5142178Y2747761D1*
X5127129Y2742209D1*
X5111691Y2737855D1*
X5095958Y2734725D1*
X5080028Y2732840D1*
X5064000Y2732210D1*
X5047972Y2732840D1*
X5032042Y2734725D1*
X5016309Y2737855D1*
X5000871Y2742209D1*
X4985822Y2747761D1*
X4971254Y2754476D1*
X4957259Y2762314D1*
X4943921Y2771226D1*
X4931324Y2781157D1*
X4919545Y2792045D1*
X4908657Y2803824D1*
X4898726Y2816421D1*
X4889814Y2829759D1*
X4881976Y2843754D1*
X4875261Y2858322D1*
X4869709Y2873371D1*
X4865355Y2888809D1*
X4862225Y2904542D1*
X4860340Y2920472D1*
X4859710Y2936500D1*
X4860340Y2952528D1*
X4862225Y2968458D1*
X4865355Y2984191D1*
X4869709Y2999629D1*
X4875261Y3014678D1*
X4881976Y3029246D1*
X4889814Y3043241D1*
X4898726Y3056579D1*
X4908657Y3069176D1*
X4919545Y3080955D1*
X4931324Y3091843D1*
X4943921Y3101774D1*
X4957259Y3110686D1*
X4971254Y3118524D1*
X4985822Y3125239D1*
X5000871Y3130791D1*
X5016309Y3135145D1*
X5032042Y3138275D1*
X5047972Y3140160D1*
X5064000Y3140790D1*
X5080028Y3140160D1*
X5095958Y3138275D1*
X5111691Y3135145D1*
X5127129Y3130791D1*
X5142178Y3125239D1*
X5156746Y3118524D1*
X5170741Y3110686D1*
X5184079Y3101774D1*
X5196676Y3091843D1*
X5208455Y3080955D1*
X5219343Y3069176D1*
X5229274Y3056579D1*
X5238186Y3043241D1*
X5246024Y3029246D1*
X5252739Y3014678D1*
X5258291Y2999629D1*
X5262645Y2984191D1*
X5265775Y2968458D1*
X5267660Y2952528D1*
X5268290Y2936500D1*
X5267660Y2920472D1*
X1585237Y2931834D2*
X1583374Y2908588D1*
X1578874Y2885705D1*
X1571796Y2863485D1*
X1562232Y2842216D1*
X1550305Y2822175D1*
X1536173Y2803625D1*
X1520018Y2786806D1*
X1502052Y2771937D1*
X1482508Y2759213D1*
X1461642Y2748800D1*
X1439724Y2740832D1*
X1417042Y2735414D1*
X1393889Y2732617D1*
X1370569Y2732476D1*
X1347385Y2734995D1*
X1324639Y2740139D1*
X1302627Y2747841D1*
X1281636Y2758003D1*
X1261941Y2770490D1*
X1243797Y2785141D1*
X1227440Y2801764D1*
X1213085Y2820143D1*
X1200918Y2840038D1*
X1191098Y2861190D1*
X1183752Y2883324D1*
X1178977Y2906150D1*
X1176834Y2929372D1*
X1177352Y2952687D1*
X1180524Y2975791D1*
X1186308Y2998383D1*
X1194629Y3020168D1*
X1205379Y3040864D1*
X1218418Y3060199D1*
X1233575Y3077922D1*
X1250653Y3093803D1*
X1269430Y3107633D1*
X1289661Y3119234D1*
X1311082Y3128453D1*
X1333414Y3135170D1*
X1356366Y3139299D1*
X1379639Y3140785D1*
X1402930Y3139609D1*
X1425936Y3135787D1*
X1448355Y3129367D1*
X1469897Y3120434D1*
X1490281Y3109104D1*
X1509240Y3095525D1*
X1526528Y3079873D1*
X1541920Y3062354D1*
X1555215Y3043194D1*
X1566240Y3022644D1*
X1574850Y3000971D1*
X1580935Y2978458D1*
X1584414Y2955398D1*
X1585237Y2931834D1*
X2199691Y3621256D2*
X2197898Y3606106D1*
X2194922Y3591144D1*
X2190781Y3576461D1*
X2185501Y3562148D1*
X2179114Y3548294D1*
X2171659Y3534984D1*
X2163184Y3522299D1*
X2153739Y3510319D1*
X2143384Y3499116D1*
X2132181Y3488761D1*
X2120201Y3479316D1*
X2107516Y3470841D1*
X2094206Y3463386D1*
X2080352Y3456999D1*
X2066039Y3451719D1*
X2051356Y3447578D1*
X2036394Y3444602D1*
X2021244Y3442809D1*
X2006000Y3442210D1*
X1990756Y3442809D1*
X1975606Y3444602D1*
X1960644Y3447578D1*
X1945961Y3451719D1*
X1931648Y3456999D1*
X1917794Y3463386D1*
X1904484Y3470841D1*
X1891799Y3479316D1*
X1879819Y3488761D1*
X1868616Y3499116D1*
X1858261Y3510319D1*
X1848816Y3522299D1*
X1840341Y3534984D1*
X1832886Y3548294D1*
X1826499Y3562148D1*
X1821219Y3576461D1*
X1817078Y3591144D1*
X1814102Y3606106D1*
X1812309Y3621256D1*
X1811710Y3636500D1*
X1812309Y3651744D1*
X1814102Y3666894D1*
X1817078Y3681856D1*
X1821219Y3696539D1*
X1826499Y3710852D1*
X1832886Y3724706D1*
X1840341Y3738016D1*
X1848816Y3750701D1*
X1858261Y3762681D1*
X1868616Y3773884D1*
X1879819Y3784239D1*
X1891799Y3793684D1*
X1904484Y3802159D1*
X1917794Y3809614D1*
X1931648Y3816001D1*
X1945961Y3821281D1*
X1960644Y3825422D1*
X1975606Y3828398D1*
X1990756Y3830191D1*
X2006000Y3830790D1*
X2021244Y3830191D1*
X2036394Y3828398D1*
X2051356Y3825422D1*
X2066039Y3821281D1*
X2080352Y3816001D1*
X2094206Y3809614D1*
X2107516Y3802159D1*
X2120201Y3793684D1*
X2132181Y3784239D1*
X2143384Y3773884D1*
X2153739Y3762681D1*
X2163184Y3750701D1*
X2171659Y3738016D1*
X2179114Y3724706D1*
X2185501Y3710852D1*
X2190781Y3696539D1*
X2194922Y3681856D1*
X2197898Y3666894D1*
X2199691Y3651744D1*
X2200290Y3636500D1*
X2199691Y3621256D1*
X6055871Y5892709D2*
X5950325D1*
X5892797Y5835252D1*
X5917131Y5840467D1*
X5935010Y5842583D1*
X5953000Y5843290D1*
X5970990Y5842583D1*
X6001216Y5838011D1*
X6055902Y5892675D1*
X6182243Y5101334D2*
X6180582Y5078070D1*
X6176568Y5055094D1*
X6170240Y5032646D1*
X6161664Y5010957D1*
X6150929Y4990251D1*
X6138146Y4970742D1*
X6123448Y4952633D1*
X6106986Y4936111D1*
X6088931Y4921347D1*
X6069469Y4908493D1*
X6048802Y4897683D1*
X6027144Y4889029D1*
X6004719Y4882619D1*
X5981759Y4878521D1*
X5958501Y4876776D1*
X5935186Y4877403D1*
X5912055Y4880395D1*
X5889348Y4885722D1*
X5867300Y4893328D1*
X5846139Y4903134D1*
X5826083Y4915039D1*
X5807340Y4928921D1*
X5790105Y4944634D1*
X5774554Y4962017D1*
X5760851Y4980890D1*
X5749135Y5001057D1*
X5739529Y5022310D1*
X5732131Y5044429D1*
X5727019Y5067185D1*
X5724245Y5090343D1*
X5723838Y5113663D1*
X5725802Y5136903D1*
X5730117Y5159824D1*
X5736738Y5182188D1*
X5745596Y5203763D1*
X5756601Y5224327D1*
X5769638Y5243667D1*
X5784571Y5261582D1*
X5801248Y5277887D1*
X5819495Y5292414D1*
X5839123Y5305012D1*
X5859929Y5315551D1*
X5881699Y5323922D1*
X5904206Y5330038D1*
X5927218Y5333836D1*
X5950496Y5335276D1*
X5973801Y5334345D1*
X5996890Y5331050D1*
X6019526Y5325427D1*
X6041473Y5317534D1*
X6062504Y5307452D1*
X6082403Y5295285D1*
X6100962Y5281160D1*
X6117991Y5265223D1*
X6133313Y5247638D1*
X6146768Y5228588D1*
X6158219Y5208269D1*
X6167547Y5186892D1*
X6174655Y5164678D1*
X6179469Y5141857D1*
X6181940Y5118665D1*
X6182243Y5101334D1*
X3305737Y2931834D2*
X3303874Y2908588D1*
X3299374Y2885705D1*
X3292296Y2863485D1*
X3282732Y2842216D1*
X3270805Y2822175D1*
X3256673Y2803625D1*
X3240518Y2786806D1*
X3222552Y2771937D1*
X3203008Y2759213D1*
X3182142Y2748800D1*
X3160224Y2740832D1*
X3137542Y2735414D1*
X3114389Y2732617D1*
X3091069Y2732476D1*
X3067885Y2734995D1*
X3045139Y2740139D1*
X3023127Y2747841D1*
X3002136Y2758003D1*
X2982441Y2770490D1*
X2964297Y2785141D1*
X2947940Y2801764D1*
X2933585Y2820143D1*
X2921418Y2840038D1*
X2911598Y2861190D1*
X2904252Y2883324D1*
X2899477Y2906150D1*
X2897334Y2929372D1*
X2897852Y2952687D1*
X2901024Y2975791D1*
X2906808Y2998383D1*
X2915129Y3020168D1*
X2925879Y3040864D1*
X2938918Y3060199D1*
X2954075Y3077922D1*
X2971153Y3093803D1*
X2989930Y3107633D1*
X3010161Y3119234D1*
X3031582Y3128453D1*
X3053914Y3135170D1*
X3076866Y3139299D1*
X3100139Y3140785D1*
X3123430Y3139609D1*
X3146436Y3135787D1*
X3168855Y3129367D1*
X3190397Y3120434D1*
X3210781Y3109104D1*
X3229740Y3095525D1*
X3247028Y3079873D1*
X3262420Y3062354D1*
X3275715Y3043194D1*
X3286740Y3022644D1*
X3295350Y3000971D1*
X3301435Y2978458D1*
X3304914Y2955398D1*
X3305737Y2931834D1*
X3920191Y2721256D2*
X3918398Y2706106D1*
X3915422Y2691144D1*
X3911281Y2676461D1*
X3906001Y2662148D1*
X3899614Y2648294D1*
X3892159Y2634984D1*
X3883684Y2622299D1*
X3874239Y2610319D1*
X3863884Y2599116D1*
X3852681Y2588761D1*
X3840701Y2579316D1*
X3828016Y2570841D1*
X3814706Y2563386D1*
X3800852Y2556999D1*
X3786539Y2551719D1*
X3771856Y2547578D1*
X3756894Y2544602D1*
X3741744Y2542809D1*
X3726500Y2542210D1*
X3711256Y2542809D1*
X3696106Y2544602D1*
X3681144Y2547578D1*
X3666461Y2551719D1*
X3652148Y2556999D1*
X3638294Y2563386D1*
X3624984Y2570841D1*
X3612299Y2579316D1*
X3600319Y2588761D1*
X3589116Y2599116D1*
X3578761Y2610319D1*
X3569316Y2622299D1*
X3560841Y2634984D1*
X3553386Y2648294D1*
X3546999Y2662148D1*
X3541719Y2676461D1*
X3537578Y2691144D1*
X3534602Y2706106D1*
X3532809Y2721256D1*
X3532210Y2736500D1*
X3532809Y2751744D1*
X3534602Y2766894D1*
X3537578Y2781856D1*
X3541719Y2796539D1*
X3546999Y2810852D1*
X3553386Y2824706D1*
X3560841Y2838016D1*
X3569316Y2850701D1*
X3578761Y2862681D1*
X3589116Y2873884D1*
X3600319Y2884239D1*
X3612299Y2893684D1*
X3624984Y2902159D1*
X3638294Y2909614D1*
X3652148Y2916001D1*
X3666461Y2921281D1*
X3681144Y2925422D1*
X3696106Y2928398D1*
X3711256Y2930191D1*
X3726500Y2930790D1*
X3741744Y2930191D1*
X3756894Y2928398D1*
X3771856Y2925422D1*
X3786539Y2921281D1*
X3800852Y2916001D1*
X3814706Y2909614D1*
X3828016Y2902159D1*
X3840701Y2893684D1*
X3852681Y2884239D1*
X3863884Y2873884D1*
X3874239Y2862681D1*
X3883684Y2850701D1*
X3892159Y2838016D1*
X3899614Y2824706D1*
X3906001Y2810852D1*
X3911281Y2796539D1*
X3915422Y2781856D1*
X3918398Y2766894D1*
X3920191Y2751744D1*
X3920790Y2736500D1*
X3920191Y2721256D1*
X3158984Y2186189D2*
X3179911Y2204019D1*
X3204059Y2218818D1*
X3230226Y2229656D1*
X3257765Y2236268D1*
X3286000Y2238490D1*
X3314235Y2236268D1*
X3341774Y2229656D1*
X3367941Y2218818D1*
X3392089Y2204019D1*
X3413626Y2185626D1*
X3426159Y2171524D1*
X3441827Y2167648D1*
X3458541Y2160724D1*
X3466468Y2156282D1*
X3461914Y2162962D1*
X3364659Y2260216D1*
X2993347Y2259697D1*
X3015300Y2237745D1*
X3032000Y2238490D1*
X3060235Y2236268D1*
X3087774Y2229656D1*
X3113941Y2218818D1*
X3138089Y2204019D1*
X3159016Y2186189D1*
X5264514Y6931739D2*
X5247793Y6955251D1*
X5238919Y6971097D1*
X5231316Y6987589D1*
X5222469Y7013708D1*
X4772016Y6563172D1*
X4777529Y6538087D1*
X4779599Y6520598D1*
X4780290Y6503000D1*
X4779599Y6485402D1*
X4777529Y6467913D1*
X4774093Y6450641D1*
X4770414Y6437597D1*
X5264420Y6931565D1*
X1581214Y7577868D2*
X1578610Y7555872D1*
X1574289Y7534149D1*
X1568277Y7512831D1*
X1560611Y7492051D1*
X1551338Y7471937D1*
X1540516Y7452612D1*
X1528210Y7434196D1*
X1514498Y7416802D1*
X1499463Y7400537D1*
X1483198Y7385502D1*
X1465804Y7371790D1*
X1447388Y7359484D1*
X1428063Y7348662D1*
X1407949Y7339389D1*
X1387169Y7331723D1*
X1365851Y7325711D1*
X1344128Y7321390D1*
X1322132Y7318786D1*
X1300000Y7317917D1*
X1277868Y7318786D1*
X1255872Y7321390D1*
X1234149Y7325711D1*
X1212831Y7331723D1*
X1192051Y7339389D1*
X1171937Y7348662D1*
X1152612Y7359484D1*
X1134196Y7371790D1*
X1116802Y7385502D1*
X1097777Y7403523D1*
X1097750Y1496721D1*
X1116802Y1514498D1*
X1134196Y1528210D1*
X1152612Y1540516D1*
X1171937Y1551338D1*
X1192051Y1560611D1*
X1212831Y1568277D1*
X1234149Y1574289D1*
X1255872Y1578610D1*
X1277868Y1581214D1*
X1300000Y1582083D1*
X1322132Y1581214D1*
X1344128Y1578610D1*
X1365851Y1574289D1*
X1387169Y1568277D1*
X1407949Y1560611D1*
X1428063Y1551338D1*
X1447388Y1540516D1*
X1465804Y1528210D1*
X1483198Y1514498D1*
X1499463Y1499463D1*
X1514498Y1483198D1*
X1528210Y1465804D1*
X1540516Y1447388D1*
X1551338Y1428063D1*
X1560611Y1407949D1*
X1568277Y1387169D1*
X1574289Y1365851D1*
X1578610Y1344128D1*
X1581214Y1322132D1*
X1582083Y1300000D1*
X1581214Y1277868D1*
X1578610Y1255872D1*
X1574289Y1234149D1*
X1568277Y1212831D1*
X1560611Y1192051D1*
X1551338Y1171937D1*
X1540516Y1152612D1*
X1528210Y1134196D1*
X1514498Y1116802D1*
X1496477Y1097777D1*
X6203435Y1097750D1*
X6185502Y1116802D1*
X6171790Y1134196D1*
X6159484Y1152612D1*
X6148662Y1171937D1*
X6139389Y1192051D1*
X6131723Y1212831D1*
X6125711Y1234149D1*
X6121390Y1255872D1*
X6118786Y1277868D1*
X6117917Y1300000D1*
X6118786Y1322132D1*
X6121390Y1344128D1*
X6125711Y1365851D1*
X6131723Y1387169D1*
X6139389Y1407949D1*
X6148662Y1428063D1*
X6159484Y1447388D1*
X6171790Y1465804D1*
X6185502Y1483198D1*
X6200537Y1499463D1*
X6216802Y1514498D1*
X6234196Y1528210D1*
X6252612Y1540516D1*
X6271937Y1551338D1*
X6292051Y1560611D1*
X6312831Y1568277D1*
X6334149Y1574289D1*
X6355872Y1578610D1*
X6377868Y1581214D1*
X6400000Y1582083D1*
X6422132Y1581214D1*
X6444128Y1578610D1*
X6465851Y1574289D1*
X6487169Y1568277D1*
X6507949Y1560611D1*
X6528063Y1551338D1*
X6547388Y1540516D1*
X6565804Y1528210D1*
X6583198Y1514498D1*
X6602223Y1496477D1*
X6602250Y7403279D1*
X6583198Y7385502D1*
X6565804Y7371790D1*
X6547388Y7359484D1*
X6528063Y7348662D1*
X6507949Y7339389D1*
X6487169Y7331723D1*
X6465851Y7325711D1*
X6444128Y7321390D1*
X6422132Y7318786D1*
X6400000Y7317917D1*
X6377868Y7318786D1*
X6355872Y7321390D1*
X6334149Y7325711D1*
X6312831Y7331723D1*
X6292051Y7339389D1*
X6271937Y7348662D1*
X6252612Y7359484D1*
X6234196Y7371790D1*
X6216802Y7385502D1*
X6200537Y7400537D1*
X6185502Y7416802D1*
X6171790Y7434196D1*
X6159484Y7452612D1*
X6148662Y7471937D1*
X6139389Y7492051D1*
X6131723Y7512831D1*
X6125711Y7534149D1*
X6121390Y7555872D1*
X6118786Y7577868D1*
X6117917Y7600000D1*
X6118786Y7622132D1*
X6121390Y7644128D1*
X6125711Y7665851D1*
X6131723Y7687169D1*
X6139389Y7707949D1*
X6148662Y7728063D1*
X6159484Y7747388D1*
X6171790Y7765804D1*
X6185502Y7783198D1*
X6203523Y7802223D1*
X1496565Y7802250D1*
X1514498Y7783198D1*
X1528210Y7765804D1*
X1540516Y7747388D1*
X1551338Y7728063D1*
X1560611Y7707949D1*
X1568277Y7687169D1*
X1574289Y7665851D1*
X1578610Y7644128D1*
X1581214Y7622132D1*
X1582083Y7600000D1*
X1581214Y7577868D1*
X3412801Y7328500D2*
D17*
X3921199D1*
X5361500Y1621500D2*
Y1417301D1*
X5157301Y1621500D2*
X5565699D1*
X6314000Y3140699D2*
Y2732301D1*
Y2936500D2*
X6518199D1*
X5361500Y4492699D2*
Y4084301D1*
X5157301Y4288500D2*
X5361500D1*
X1381000Y3140699D2*
Y2732301D1*
X1176801Y2936500D2*
X1585199D1*
X5953000Y5335199D2*
Y4876801D1*
X5723801Y5106000D2*
X6182199D1*
X3101500Y3140699D2*
Y2732301D1*
X2897301Y2936500D2*
X3305699D1*
X4556000Y7347199D2*
Y6898801D1*
Y7123000D2*
X4780199D1*
D18*
X2143000Y7582500D3*
Y7328500D3*
Y7074500D3*
Y6820500D3*
Y6566500D3*
Y6312500D3*
Y6058500D3*
Y5804500D3*
Y5550500D3*
Y5296500D3*
Y5042500D3*
Y4788500D3*
Y4534500D3*
Y4280500D3*
X3667000Y7582500D3*
Y7328500D3*
Y7074500D3*
Y6820500D3*
Y6566500D3*
Y6312500D3*
Y6058500D3*
Y5804500D3*
Y5550500D3*
Y5296500D3*
Y5042500D3*
Y4788500D3*
Y4534500D3*
Y4280500D3*
D22*
X2397000D3*
X2651000D3*
X2905000D3*
X3159000D3*
X3413000D3*
D23*
X4111500Y2121500D3*
D27*
X5361500D3*
X4111500Y1621500D3*
X5361500D3*
D23*
X5064000Y3436500D3*
D27*
X6314000D3*
X5064000Y2936500D3*
X6314000D3*
D23*
X4111500Y4788500D3*
D27*
X5361500D3*
X4111500Y4288500D3*
X5361500D3*
D23*
X2631000Y2936500D3*
D27*
X1381000D3*
X2631000Y3436500D3*
X1381000D3*
D28*
X5953000Y6122000D3*
D32*
Y5614000D3*
Y5106000D3*
D23*
X4351500Y2936500D3*
D27*
X3101500D3*
X4351500Y3436500D3*
X3101500D3*
D33*
X3286000Y2058000D3*
X3032000D3*
X2778000D3*
D37*
X1635000Y7074500D3*
D39*
Y6820500D3*
Y6566500D3*
Y6312500D3*
Y6058500D3*
Y5804500D3*
D40*
X5572000Y7546000D3*
Y7076100D3*
Y6606200D3*
D44*
X3032000Y5169500D3*
X2842000D3*
D46*
X4556000Y6503000D3*
X4056000Y6813000D3*
X4556000Y7123000D3*
D33*
X2270000Y2058000D3*
X2524000D3*
M02*
