  0
SECTION
  2
HEADER
  9
$ACADVER
  1
AC1009
  9
$ANGDIR
  70
0
  9
$CECOLOR
  62
256
  9
$CELTYPE
  6
BYLAYER
  9
$EXTMIN
  10
0.0
  20
0.0
  9
$EXTMAX
  10
55.0
  20
66.04
  9
$FILLMODE
  70
1
  9
$MIRRTEXT
  70
0
  0
ENDSEC
  0
SECTION
  2
TABLES
  0
TABLE
  2
LAYER
  70
17
  0
LAYER
  2
Drill_Top
  70
64
  62
7
  6
CONTINUOUS
  0
ENDTAB
  0
ENDSEC
  0
SECTION
  2
ENTITIES
  0
CIRCLE
  8
Drill_Top
  10
17.78
  20
62.23
  40
0.45
  0
CIRCLE
  8
Drill_Top
  10
17.78
  20
59.69
  40
0.45
  0
CIRCLE
  8
Drill_Top
  10
17.78
  20
57.15
  40
0.45
  0
CIRCLE
  8
Drill_Top
  10
17.78
  20
54.61
  40
0.45
  0
CIRCLE
  8
Drill_Top
  10
17.78
  20
52.07
  40
0.45
  0
CIRCLE
  8
Drill_Top
  10
17.78
  20
49.53
  40
0.45
  0
CIRCLE
  8
Drill_Top
  10
17.78
  20
46.99
  40
0.45
  0
CIRCLE
  8
Drill_Top
  10
17.78
  20
44.45
  40
0.45
  0
CIRCLE
  8
Drill_Top
  10
17.78
  20
41.91
  40
0.45
  0
CIRCLE
  8
Drill_Top
  10
17.78
  20
39.37
  40
0.45
  0
CIRCLE
  8
Drill_Top
  10
17.78
  20
36.83
  40
0.45
  0
CIRCLE
  8
Drill_Top
  10
17.78
  20
34.29
  40
0.45
  0
CIRCLE
  8
Drill_Top
  10
17.78
  20
31.75
  40
0.45
  0
CIRCLE
  8
Drill_Top
  10
17.78
  20
29.21
  40
0.45
  0
CIRCLE
  8
Drill_Top
  10
33.02
  20
62.23
  40
0.45
  0
CIRCLE
  8
Drill_Top
  10
33.02
  20
59.69
  40
0.45
  0
CIRCLE
  8
Drill_Top
  10
33.02
  20
57.15
  40
0.45
  0
CIRCLE
  8
Drill_Top
  10
33.02
  20
54.61
  40
0.45
  0
CIRCLE
  8
Drill_Top
  10
33.02
  20
52.07
  40
0.45
  0
CIRCLE
  8
Drill_Top
  10
33.02
  20
49.53
  40
0.45
  0
CIRCLE
  8
Drill_Top
  10
33.02
  20
46.99
  40
0.45
  0
CIRCLE
  8
Drill_Top
  10
33.02
  20
44.45
  40
0.45
  0
CIRCLE
  8
Drill_Top
  10
33.02
  20
41.91
  40
0.45
  0
CIRCLE
  8
Drill_Top
  10
33.02
  20
39.37
  40
0.45
  0
CIRCLE
  8
Drill_Top
  10
33.02
  20
36.83
  40
0.45
  0
CIRCLE
  8
Drill_Top
  10
33.02
  20
34.29
  40
0.45
  0
CIRCLE
  8
Drill_Top
  10
33.02
  20
31.75
  40
0.45
  0
CIRCLE
  8
Drill_Top
  10
33.02
  20
29.21
  40
0.45
  0
CIRCLE
  8
Drill_Top
  10
20.32
  20
29.21
  40
0.45
  0
CIRCLE
  8
Drill_Top
  10
22.86
  20
29.21
  40
0.45
  0
CIRCLE
  8
Drill_Top
  10
25.4
  20
29.21
  40
0.45
  0
CIRCLE
  8
Drill_Top
  10
27.94
  20
29.21
  40
0.45
  0
CIRCLE
  8
Drill_Top
  10
30.48
  20
29.21
  40
0.45
  0
CIRCLE
  8
Drill_Top
  10
5.08
  20
15.24
  40
0.6
  0
CIRCLE
  8
Drill_Top
  10
17.58
  20
15.24
  40
0.6
  0
CIRCLE
  8
Drill_Top
  10
5.08
  20
10.24
  40
0.6
  0
CIRCLE
  8
Drill_Top
  10
17.58
  20
10.24
  40
0.6
  0
CIRCLE
  8
Drill_Top
  10
11.33
  20
17.24
  40
0.9
  0
CIRCLE
  8
Drill_Top
  10
11.33
  20
8.24
  40
0.9
  0
CIRCLE
  8
Drill_Top
  10
21.59
  20
15.24
  40
0.6
  0
CIRCLE
  8
Drill_Top
  10
34.09
  20
15.24
  40
0.6
  0
CIRCLE
  8
Drill_Top
  10
21.59
  20
10.24
  40
0.6
  0
CIRCLE
  8
Drill_Top
  10
34.09
  20
10.24
  40
0.6
  0
CIRCLE
  8
Drill_Top
  10
27.84
  20
17.24
  40
0.9
  0
CIRCLE
  8
Drill_Top
  10
27.84
  20
8.24
  40
0.9
  0
CIRCLE
  8
Drill_Top
  10
38.1
  20
15.24
  40
0.6
  0
CIRCLE
  8
Drill_Top
  10
50.6
  20
15.24
  40
0.6
  0
CIRCLE
  8
Drill_Top
  10
38.1
  20
10.24
  40
0.6
  0
CIRCLE
  8
Drill_Top
  10
50.6
  20
10.24
  40
0.6
  0
CIRCLE
  8
Drill_Top
  10
44.35
  20
17.24
  40
0.9
  0
CIRCLE
  8
Drill_Top
  10
44.35
  20
8.24
  40
0.9
  0
CIRCLE
  8
Drill_Top
  10
44.45
  20
59.69
  40
0.65
  0
CIRCLE
  8
Drill_Top
  10
39.37
  20
59.69
  40
0.65
  0
CIRCLE
  8
Drill_Top
  10
41.91
  20
34.29
  40
0.65
  0
CIRCLE
  8
Drill_Top
  10
41.91
  20
29.21
  40
0.65
  0
CIRCLE
  8
Drill_Top
  10
41.91
  20
24.13
  40
0.65
  0
CIRCLE
  8
Drill_Top
  10
11.43
  20
3.81
  40
0.4827
  0
CIRCLE
  8
Drill_Top
  10
27.94
  20
3.81
  40
0.4827
  0
CIRCLE
  8
Drill_Top
  10
44.45
  20
3.81
  40
0.4827
  0
CIRCLE
  8
Drill_Top
  10
6.35
  20
57.15
  40
0.55
  0
CIRCLE
  8
Drill_Top
  10
6.35
  20
54.61
  40
0.55
  0
CIRCLE
  8
Drill_Top
  10
6.35
  20
52.07
  40
0.55
  0
CIRCLE
  8
Drill_Top
  10
6.35
  20
49.53
  40
0.55
  0
CIRCLE
  8
Drill_Top
  10
6.35
  20
46.99
  40
0.55
  0
CIRCLE
  8
Drill_Top
  10
6.35
  20
44.45
  40
0.55
  0
CIRCLE
  8
Drill_Top
  10
41.91
  20
50.8
  40
0.75
  0
CIRCLE
  8
Drill_Top
  10
41.91
  20
46.101
  40
0.75
  0
CIRCLE
  8
Drill_Top
  10
41.91
  20
41.402
  40
0.75
  0
CIRCLE
  8
Drill_Top
  10
3.0
  20
63.04
  40
1.6
  0
CIRCLE
  8
Drill_Top
  10
52.0
  20
63.04
  40
1.6
  0
CIRCLE
  8
Drill_Top
  10
52.0
  20
3.04
  40
1.6
  0
CIRCLE
  8
Drill_Top
  10
3.0
  20
3.04
  40
1.6
  0
ENDSEC
  0
EOF
