M48
METRIC,0000.00
T01C0.9
T02C0.965
T03C1.1
T04C1.2
T05C1.3
T06C1.5
T07C1.8
T08C3.2
%
T01
X+002778Y+007223
X+002778Y+006969
X+002778Y+006715
X+002778Y+006461
X+002778Y+006207
X+002778Y+005953
X+002778Y+005699
X+002778Y+005445
X+002778Y+005191
X+002778Y+004937
X+002778Y+004683
X+002778Y+004429
X+002778Y+004175
X+002778Y+003921
X+003032Y+003921
X+003286Y+003921
X+003540Y+003921
X+003794Y+003921
X+004048Y+003921
X+004302Y+003921
X+004302Y+004175
X+004302Y+004429
X+004302Y+004683
X+004302Y+004937
X+004302Y+005191
X+004302Y+005445
X+004302Y+005699
X+004302Y+005953
X+004302Y+006207
X+004302Y+006461
X+004302Y+006715
X+004302Y+006969
X+004302Y+007223
T02
X+002143Y+001381
X+003794Y+001381
X+005445Y+001381
T03
X+001635Y+006715
X+001635Y+006461
X+001635Y+006207
X+001635Y+005953
X+001635Y+005699
X+001635Y+005445
T04
X+001508Y+002524
X+001508Y+002024
X+002758Y+002024
X+003159Y+002024
X+003159Y+002524
X+002758Y+002524
X+004409Y+002524
X+004810Y+002524
X+004810Y+002024
X+004409Y+002024
X+006060Y+002024
X+006060Y+002524
T05
X+005445Y+006969
X+004937Y+006969
X+005191Y+004429
X+005191Y+003921
X+005191Y+003413
T06
X+005191Y+006080
X+005191Y+005610
X+005191Y+005140
T07
X+002133Y+002724
X+002133Y+001824
X+003784Y+001824
X+003784Y+002724
X+005435Y+002724
X+005435Y+001824
T08
X+001300Y+007304
X+006200Y+007304
X+006200Y+001304
X+001300Y+001304
T00
M30
