%TF.GenerationSoftware,Novarm,DipTrace,3.3.1.3*%
%TF.CreationDate,2019-07-25T18:01:04+00:00*%
%FSLAX35Y35*%
%MOMM*%
%TF.FileFunction,Copper,L1,Top*%
%TF.Part,Single*%
%ADD18C,1.5*%
%ADD19C,1.7*%
%ADD23C,2.0*%
%ADD28C,2.5*%
%ADD32C,1.524*%
%ADD40C,2.54*%
G75*
G01*
%LPD*%
D18*
X2778000Y7223000D3*
Y6969000D3*
Y6715000D3*
Y6461000D3*
Y6207000D3*
Y5953000D3*
Y5699000D3*
Y5445000D3*
Y5191000D3*
Y4937000D3*
Y4683000D3*
Y4429000D3*
Y4175000D3*
Y3921000D3*
X4302000Y7223000D3*
Y6969000D3*
Y6715000D3*
Y6461000D3*
Y6207000D3*
Y5953000D3*
Y5699000D3*
Y5445000D3*
Y5191000D3*
Y4937000D3*
Y4683000D3*
Y4429000D3*
Y4175000D3*
Y3921000D3*
X3032000D3*
X3286000D3*
X3540000D3*
X3794000D3*
X4048000D3*
D23*
X1508000Y2524000D3*
X2758000D3*
X1508000Y2024000D3*
X2758000D3*
X3159000Y2524000D3*
X4409000D3*
X3159000Y2024000D3*
X4409000D3*
X4810000Y2524000D3*
X6060000D3*
X4810000Y2024000D3*
X6060000D3*
D28*
X5445000Y6969000D3*
X4937000D3*
X5191000Y4429000D3*
Y3921000D3*
Y3413000D3*
D32*
X2143000Y1381000D3*
X3794000D3*
X5445000D3*
D19*
X1635000Y6715000D3*
Y6461000D3*
Y6207000D3*
Y5953000D3*
Y5699000D3*
Y5445000D3*
D40*
X5191000Y6080000D3*
Y5610100D3*
Y5140200D3*
M02*
