%TF.GenerationSoftware,Novarm,DipTrace,3.3.1.3*%
%TF.CreationDate,2019-11-14T11:02:36+00:00*%
%FSLAX35Y35*%
%MOMM*%
%TF.FileFunction,Copper,L1,Top*%
%TF.Part,Single*%
%ADD19C,1.5*%
%ADD20C,1.7*%
%ADD24C,2.0*%
%ADD29C,2.5*%
%ADD33C,1.524*%
%ADD41C,2.54*%
%ADD46C,2.4*%
G75*
G01*
%LPD*%
D19*
X2143000Y7582500D3*
Y7328500D3*
Y7074500D3*
Y6820500D3*
Y6566500D3*
Y6312500D3*
Y6058500D3*
Y5804500D3*
Y5550500D3*
Y5296500D3*
Y5042500D3*
Y4788500D3*
Y4534500D3*
Y4280500D3*
X3667000Y7582500D3*
Y7328500D3*
Y7074500D3*
Y6820500D3*
Y6566500D3*
Y6312500D3*
Y6058500D3*
Y5804500D3*
Y5550500D3*
Y5296500D3*
Y5042500D3*
Y4788500D3*
Y4534500D3*
Y4280500D3*
X2397000D3*
X2651000D3*
X2905000D3*
X3159000D3*
X3413000D3*
D24*
X4111500Y2121500D3*
X5361500D3*
X4111500Y1621500D3*
X5361500D3*
X5064000Y3436500D3*
X6314000D3*
X5064000Y2936500D3*
X6314000D3*
X4111500Y4788500D3*
X5361500D3*
X4111500Y4288500D3*
X5361500D3*
X2631000Y2936500D3*
X1381000D3*
X2631000Y3436500D3*
X1381000D3*
D29*
X5953000Y6122000D3*
Y5614000D3*
Y5106000D3*
D24*
X4351500Y2936500D3*
X3101500D3*
X4351500Y3436500D3*
X3101500D3*
D33*
X3286000Y2058000D3*
X3032000D3*
X2778000D3*
D20*
X1635000Y7074500D3*
Y6820500D3*
Y6566500D3*
Y6312500D3*
Y6058500D3*
Y5804500D3*
D41*
X5572000Y7546000D3*
Y7076100D3*
Y6606200D3*
D46*
X4556000Y6503000D3*
X4056000Y6813000D3*
X4556000Y7123000D3*
D33*
X2270000Y2058000D3*
X2524000D3*
M02*
