%TF.GenerationSoftware,Novarm,DipTrace,3.3.1.3*%
%TF.CreationDate,2019-11-14T11:02:32+00:00*%
%FSLAX35Y35*%
%MOMM*%
%TF.FileFunction,Soldermask,Top*%
%TF.Part,Single*%
%ADD20C,1.7*%
%ADD25C,2.2*%
%ADD26C,1.8*%
%ADD30C,2.7*%
%ADD35C,1.724*%
%ADD38C,1.9*%
%ADD42C,2.74*%
%ADD48C,2.6*%
%ADD50C,3.2*%
G75*
G01*
%LPD*%
D20*
X2143000Y7582500D3*
Y7328500D3*
Y7074500D3*
Y6820500D3*
Y6566500D3*
Y6312500D3*
Y6058500D3*
Y5804500D3*
Y5550500D3*
Y5296500D3*
Y5042500D3*
Y4788500D3*
Y4534500D3*
Y4280500D3*
X3667000Y7582500D3*
Y7328500D3*
Y7074500D3*
Y6820500D3*
Y6566500D3*
Y6312500D3*
Y6058500D3*
Y5804500D3*
Y5550500D3*
Y5296500D3*
Y5042500D3*
Y4788500D3*
Y4534500D3*
Y4280500D3*
X2397000D3*
X2651000D3*
X2905000D3*
X3159000D3*
X3413000D3*
D25*
X4111500Y2121500D3*
X5361500D3*
X4111500Y1621500D3*
X5361500D3*
D26*
X4736500Y2321500D3*
Y1421500D3*
D25*
X5064000Y3436500D3*
X6314000D3*
X5064000Y2936500D3*
X6314000D3*
D26*
X5689000Y3636500D3*
Y2736500D3*
D25*
X4111500Y4788500D3*
X5361500D3*
X4111500Y4288500D3*
X5361500D3*
D26*
X4736500Y4988500D3*
Y4088500D3*
D25*
X2631000Y2936500D3*
X1381000D3*
X2631000Y3436500D3*
X1381000D3*
D26*
X2006000Y2736500D3*
Y3636500D3*
D30*
X5953000Y6122000D3*
Y5614000D3*
Y5106000D3*
D25*
X4351500Y2936500D3*
X3101500D3*
X4351500Y3436500D3*
X3101500D3*
D26*
X3726500Y2736500D3*
Y3636500D3*
D35*
X3286000Y2058000D3*
X3032000D3*
X2778000D3*
D38*
X1635000Y7074500D3*
Y6820500D3*
Y6566500D3*
Y6312500D3*
Y6058500D3*
Y5804500D3*
D42*
X5572000Y7546000D3*
Y7076100D3*
Y6606200D3*
D48*
X4556000Y6503000D3*
X4056000Y6813000D3*
X4556000Y7123000D3*
D35*
X2270000Y2058000D3*
X2524000D3*
D50*
X1300000Y7600000D3*
X6400000D3*
Y1300000D3*
X1300000D3*
M02*
